<?xml version="1.0" encoding="UTF-8"?><svg xmlns="http://www.w3.org/2000/svg" xmlns:xlink="http://www.w3.org/1999/xlink" fill-opacity="1" color-rendering="auto" color-interpolation="auto" text-rendering="auto" stroke="black" stroke-linecap="square" width="935" stroke-miterlimit="10" shape-rendering="auto" stroke-opacity="1" fill="black" stroke-dasharray="none" font-weight="normal" stroke-width="1" height="409" font-family="'Dialog'" font-style="normal" stroke-linejoin="miter" font-size="12px" stroke-dashoffset="0" image-rendering="auto">
  <!--Generated by ySVG 2.5-->
  <defs id="genericDefs"/>
  <g>
    <defs id="defs1">
      <clipPath clipPathUnits="userSpaceOnUse" id="clipPath1">
        <path d="M0 0 L935 0 L935 409 L0 409 L0 0 Z"/>
      </clipPath>
      <clipPath clipPathUnits="userSpaceOnUse" id="clipPath2">
        <path d="M25 30 L960 30 L960 439 L25 439 L25 30 Z"/>
      </clipPath>
    </defs>
    <g fill="white" text-rendering="geometricPrecision" shape-rendering="geometricPrecision" transform="translate(-25,-30)" stroke="white">
      <rect x="25" width="935" height="409" y="30" clip-path="url(#clipPath2)" stroke="none"/>
    </g>
    <g fill="rgb(255,255,153)" text-rendering="geometricPrecision" shape-rendering="geometricPrecision" transform="matrix(1,0,0,1,-25,-30)" stroke="rgb(255,255,153)">
      <path d="M795.25 45 L929.8 45 L944.75 76 L929.8 107 L795.25 107 L810.2 76 Z" fill-rule="evenodd" clip-path="url(#clipPath2)" stroke="none"/>
    </g>
    <g text-rendering="geometricPrecision" stroke-miterlimit="1.45" shape-rendering="geometricPrecision" transform="matrix(1,0,0,1,-25,-30)" stroke-linecap="butt">
      <path fill="none" d="M795.25 45 L929.8 45 L944.75 76 L929.8 107 L795.25 107 L810.2 76 Z" fill-rule="evenodd" clip-path="url(#clipPath2)"/>
      <text x="847.4297" xml:space="preserve" y="80.5352" clip-path="url(#clipPath2)" font-family="sans-serif" stroke="none">Sources</text>
    </g>
    <g fill="rgb(153,204,0)" text-rendering="geometricPrecision" shape-rendering="geometricPrecision" transform="matrix(1,0,0,1,-25,-30)" stroke="rgb(153,204,0)">
      <path d="M797.5 362 L928 362 L942.5 393 L928 424 L797.5 424 L812 393 Z" fill-rule="evenodd" clip-path="url(#clipPath2)" stroke="none"/>
    </g>
    <g text-rendering="geometricPrecision" stroke-miterlimit="1.45" shape-rendering="geometricPrecision" transform="matrix(1,0,0,1,-25,-30)" stroke-linecap="butt">
      <path fill="none" d="M797.5 362 L928 362 L942.5 393 L928 424 L797.5 424 L812 393 Z" fill-rule="evenodd" clip-path="url(#clipPath2)"/>
      <text x="852.1611" xml:space="preserve" y="397.5352" clip-path="url(#clipPath2)" font-family="sans-serif" stroke="none">Places</text>
    </g>
    <g fill="rgb(204,153,255)" text-rendering="geometricPrecision" shape-rendering="geometricPrecision" transform="matrix(1,0,0,1,-25,-30)" stroke="rgb(204,153,255)">
      <rect x="40.5" y="201" clip-path="url(#clipPath2)" width="159" rx="4" ry="4" height="62" stroke="none"/>
    </g>
    <g text-rendering="geometricPrecision" stroke-miterlimit="1.45" shape-rendering="geometricPrecision" transform="matrix(1,0,0,1,-25,-30)" stroke-linecap="butt">
      <rect x="40.5" y="201" clip-path="url(#clipPath2)" fill="none" width="159" rx="4" ry="4" height="62"/>
      <text x="70.0107" xml:space="preserve" y="236.5352" clip-path="url(#clipPath2)" font-family="sans-serif" stroke="none">Cross References</text>
    </g>
    <g fill="rgb(204,153,255)" text-rendering="geometricPrecision" shape-rendering="geometricPrecision" transform="matrix(1,0,0,1,-25,-30)" stroke="rgb(204,153,255)">
      <rect x="370.5" y="165" clip-path="url(#clipPath2)" width="159" rx="4" ry="4" height="134" stroke="none"/>
    </g>
    <g text-rendering="geometricPrecision" stroke-miterlimit="1.45" shape-rendering="geometricPrecision" transform="matrix(1,0,0,1,-25,-30)" stroke-linecap="butt">
      <rect x="370.5" y="165" clip-path="url(#clipPath2)" fill="none" width="159" rx="4" ry="4" height="134"/>
      <text x="423.7617" xml:space="preserve" y="236.5352" clip-path="url(#clipPath2)" font-family="sans-serif" stroke="none">Personae</text>
    </g>
    <g fill="rgb(255,255,153)" text-rendering="geometricPrecision" shape-rendering="geometricPrecision" transform="matrix(1,0,0,1,-25,-30)" stroke="rgb(255,255,153)">
      <rect x="304" y="57" clip-path="url(#clipPath2)" width="292" rx="4" ry="4" height="38" stroke="none"/>
    </g>
    <g text-rendering="geometricPrecision" stroke-miterlimit="1.45" shape-rendering="geometricPrecision" transform="matrix(1,0,0,1,-25,-30)" stroke-linecap="butt">
      <rect x="304" y="57" clip-path="url(#clipPath2)" fill="none" width="292" rx="4" ry="4" height="38"/>
      <text x="424.1104" xml:space="preserve" y="80.5352" clip-path="url(#clipPath2)" font-family="sans-serif" stroke="none">Citations</text>
    </g>
    <g fill="rgb(153,204,0)" text-rendering="geometricPrecision" shape-rendering="geometricPrecision" transform="matrix(1,0,0,1,-25,-30)" stroke="rgb(153,204,0)">
      <rect x="304" y="371" clip-path="url(#clipPath2)" width="292" rx="4" ry="4" height="38" stroke="none"/>
    </g>
    <g text-rendering="geometricPrecision" stroke-miterlimit="1.45" shape-rendering="geometricPrecision" transform="matrix(1,0,0,1,-25,-30)" stroke-linecap="butt">
      <rect x="304" y="371" clip-path="url(#clipPath2)" fill="none" width="292" rx="4" ry="4" height="38"/>
      <text x="431.2734" xml:space="preserve" y="394.5352" clip-path="url(#clipPath2)" font-family="sans-serif" stroke="none">Events</text>
      <path fill="none" d="M199.4788 232 L362.5194 232" clip-path="url(#clipPath2)"/>
      <path d="M370.5194 232 L358.5194 227 L361.5194 232 L358.5194 237 Z" clip-path="url(#clipPath2)" stroke="none"/>
      <rect x="209.625" y="222.9336" clip-path="url(#clipPath2)" fill="rgb(204,153,255)" width="25.3984" height="18.1328" stroke="none"/>
      <text x="211.625" xml:space="preserve" y="236.5352" clip-path="url(#clipPath2)" font-family="sans-serif" stroke="none">link</text>
      <path fill="none" d="M450 165.0068 L450 102.9922" clip-path="url(#clipPath2)"/>
      <path d="M450 94.9922 L445 106.9922 L450 103.9922 L455 106.9922 Z" clip-path="url(#clipPath2)" stroke="none"/>
      <rect x="393.6719" y="136.7422" clip-path="url(#clipPath2)" fill="rgb(255,255,153)" width="112.6562" height="18.1328" stroke="none"/>
      <text x="395.6719" xml:space="preserve" y="150.3438" clip-path="url(#clipPath2)" font-family="sans-serif" stroke="none">are extracted from</text>
      <path fill="none" d="M595.99 76 L802.2275 76" clip-path="url(#clipPath2)"/>
      <path d="M810.2275 76 L798.2275 71 L801.2275 76 L798.2275 81 Z" clip-path="url(#clipPath2)" stroke="none"/>
      <rect x="606.125" y="66.9336" clip-path="url(#clipPath2)" fill="rgb(255,255,153)" width="24.7891" height="18.1328" stroke="none"/>
      <text x="608.125" xml:space="preserve" y="80.5352" clip-path="url(#clipPath2)" font-family="sans-serif" stroke="none">cite</text>
      <path fill="none" d="M450 299.0034 L450 363.0276" clip-path="url(#clipPath2)"/>
      <path d="M450 371.0276 L455 359.0276 L450 362.0276 L445 359.0276 Z" clip-path="url(#clipPath2)" stroke="none"/>
      <rect x="414.042" y="309.125" clip-path="url(#clipPath2)" fill="rgb(255,255,153)" width="71.916" height="18.1328" stroke="none"/>
      <text x="416.042" xml:space="preserve" y="322.7266" clip-path="url(#clipPath2)" font-family="sans-serif" stroke="none">have role in</text>
      <path fill="none" d="M595.99 391.0428 L803.8333 392.5274" clip-path="url(#clipPath2)"/>
      <path d="M811.8331 392.5845 L799.8691 387.4989 L802.8334 392.5202 L799.7977 397.4987 Z" clip-path="url(#clipPath2)" stroke="none"/>
      <rect x="606.125" y="382.23" clip-path="url(#clipPath2)" fill="rgb(153,204,0)" width="50.7344" height="18.1328" stroke="none"/>
      <text x="608.125" xml:space="preserve" y="395.8315" clip-path="url(#clipPath2)" font-family="sans-serif" stroke="none">occur in</text>
    </g>
  </g>
</svg>
