<?xml version="1.0" encoding="UTF-8"?><svg xmlns="http://www.w3.org/2000/svg" xmlns:xlink="http://www.w3.org/1999/xlink" fill-opacity="1" color-rendering="auto" color-interpolation="auto" text-rendering="auto" stroke="black" stroke-linecap="square" width="1598" stroke-miterlimit="10" shape-rendering="auto" stroke-opacity="1" fill="black" stroke-dasharray="none" font-weight="normal" stroke-width="1" height="1096" font-family="'Dialog'" font-style="normal" stroke-linejoin="miter" font-size="12px" stroke-dashoffset="0" image-rendering="auto">
  <!--Generated by ySVG 2.5-->
  <defs id="genericDefs"/>
  <g>
    <defs id="defs1">
      <clipPath clipPathUnits="userSpaceOnUse" id="clipPath1">
        <path d="M0 0 L1598 0 L1598 1096 L0 1096 L0 0 Z"/>
      </clipPath>
      <clipPath clipPathUnits="userSpaceOnUse" id="clipPath2">
        <path d="M622 -789 L2220 -789 L2220 307 L622 307 L622 -789 Z"/>
      </clipPath>
    </defs>
    <g fill="white" text-rendering="geometricPrecision" shape-rendering="geometricPrecision" transform="translate(-622,789)" stroke="white">
      <rect x="622" width="1598" height="1096" y="-789" clip-path="url(#clipPath2)" stroke="none"/>
    </g>
    <g fill="rgb(245,245,245)" text-rendering="geometricPrecision" shape-rendering="geometricPrecision" transform="matrix(1,0,0,1,-622,789)" stroke="rgb(245,245,245)">
      <rect x="637.2381" y="-773.1089" clip-path="url(#clipPath2)" width="1239.6381" rx="4" ry="4" height="260.862" stroke="none"/>
      <rect x="637.2381" y="-773.1089" clip-path="url(#clipPath2)" fill="rgb(235,235,235)" width="1239.6381" height="24.4301" stroke="none"/>
    </g>
    <g font-size="15px" stroke-linecap="butt" transform="matrix(1,0,0,1,-622,789)" text-rendering="geometricPrecision" font-family="'Noto Sans'" shape-rendering="geometricPrecision" stroke-miterlimit="1.45">
      <text x="1819.2559" xml:space="preserve" y="-755.0738" clip-path="url(#clipPath2)" stroke="none">Sources</text>
    </g>
    <g stroke-linecap="butt" transform="matrix(1,0,0,1,-622,789)" fill="rgb(0,141,210)" text-rendering="geometricPrecision" shape-rendering="geometricPrecision" stroke-dasharray="6,2" stroke="rgb(0,141,210)" stroke-miterlimit="1.45">
      <rect x="637.2381" y="-773.1089" clip-path="url(#clipPath2)" fill="none" width="1239.6381" rx="4" ry="4" height="260.862"/>
    </g>
    <g fill="rgb(255,247,228)" text-rendering="geometricPrecision" shape-rendering="geometricPrecision" transform="matrix(1,0,0,1,-622,789)" stroke="rgb(255,247,228)">
      <ellipse rx="76" ry="38.2712" clip-path="url(#clipPath2)" cx="1295.1191" cy="-695.4076" stroke="none"/>
    </g>
    <g stroke-linecap="butt" transform="matrix(1,0,0,1,-622,789)" fill="rgb(0,141,210)" text-rendering="geometricPrecision" shape-rendering="geometricPrecision" stroke="rgb(0,141,210)" stroke-miterlimit="1.45">
      <ellipse rx="76" fill="none" ry="38.2712" clip-path="url(#clipPath2)" cx="1295.1191" cy="-695.4076"/>
      <text x="1267.5669" y="-707.0956" clip-path="url(#clipPath2)" fill="black" font-family="'Noto Sans'" stroke="none" xml:space="preserve">Citation</text>
      <text x="1267.5669" y="-690.7515" clip-path="url(#clipPath2)" fill="black" font-family="'Noto Sans'" stroke="none" xml:space="preserve"> </text>
      <text x="1267.5669" y="-674.4074" clip-path="url(#clipPath2)" fill="black" font-family="'Noto Sans'" stroke="none" xml:space="preserve">brief desc</text>
    </g>
    <g fill="rgb(255,247,228)" text-rendering="geometricPrecision" shape-rendering="geometricPrecision" transform="matrix(1,0,0,1,-622,789)" stroke="rgb(255,247,228)">
      <rect x="1260.1191" width="70" height="30" y="-557.2469" clip-path="url(#clipPath2)" stroke="none"/>
    </g>
    <g stroke-linecap="butt" transform="matrix(1,0,0,1,-622,789)" fill="rgb(99,123,131)" text-rendering="geometricPrecision" shape-rendering="geometricPrecision" stroke="rgb(99,123,131)" stroke-miterlimit="1.45">
      <rect fill="none" x="1260.1191" width="70" height="30" y="-557.2469" clip-path="url(#clipPath2)"/>
      <text x="1279.3269" xml:space="preserve" y="-537.5909" clip-path="url(#clipPath2)" font-family="'Noto Sans'" stroke="none">CITES</text>
    </g>
    <g fill="rgb(255,247,228)" text-rendering="geometricPrecision" shape-rendering="geometricPrecision" transform="matrix(1,0,0,1,-622,789)" stroke="rgb(255,247,228)">
      <rect x="693.2381" width="70" height="30" y="-557.2469" clip-path="url(#clipPath2)" stroke="none"/>
    </g>
    <g stroke-linecap="butt" transform="matrix(1,0,0,1,-622,789)" fill="rgb(99,123,131)" text-rendering="geometricPrecision" shape-rendering="geometricPrecision" stroke="rgb(99,123,131)" stroke-miterlimit="1.45">
      <rect fill="none" x="693.2381" width="70" height="30" y="-557.2469" clip-path="url(#clipPath2)"/>
      <text x="712.446" xml:space="preserve" y="-537.5909" clip-path="url(#clipPath2)" font-family="'Noto Sans'" stroke="none">CITES</text>
    </g>
    <g fill="rgb(255,247,228)" text-rendering="geometricPrecision" shape-rendering="geometricPrecision" transform="matrix(1,0,0,1,-622,789)" stroke="rgb(255,247,228)">
      <path d="M1648.6763 -695.4076 L1669.9962 -710.4076 L1840.5563 -710.4076 L1861.8762 -695.4076 L1840.5563 -680.4076 L1669.9962 -680.4076 Z" fill-rule="evenodd" clip-path="url(#clipPath2)" stroke="none"/>
    </g>
    <g stroke-linecap="butt" transform="matrix(1,0,0,1,-622,789)" fill="rgb(99,123,131)" text-rendering="geometricPrecision" shape-rendering="geometricPrecision" stroke="rgb(99,123,131)" stroke-miterlimit="1.45">
      <path fill="none" d="M1648.6763 -695.4076 L1669.9962 -710.4076 L1840.5563 -710.4076 L1861.8762 -695.4076 L1840.5563 -680.4076 L1669.9962 -680.4076 Z" fill-rule="evenodd" clip-path="url(#clipPath2)"/>
      <text x="1679.7777" xml:space="preserve" y="-690.7515" clip-path="url(#clipPath2)" font-family="'Noto Sans'" stroke="none">source information system</text>
      <path fill="none" d="M1295.119 -557.2469 L1295.119 -649.1364" clip-path="url(#clipPath2)" stroke="black"/>
      <path fill="black" d="M1295.119 -657.1364 L1290.119 -645.1364 L1295.119 -648.1364 L1300.119 -645.1364 Z" clip-path="url(#clipPath2)" stroke="none"/>
      <text x="1238.0907" y="-632.1833" clip-path="url(#clipPath2)" fill="black" font-family="'Noto Sans'" stroke="none" xml:space="preserve">personae</text>
      <path fill="none" d="M763.2382 -551.7033 L1220.4264 -675.227" clip-path="url(#clipPath2)" stroke="black"/>
      <path fill="black" d="M1228.1494 -677.3137 L1215.2606 -679.0106 L1219.4609 -674.9661 L1217.869 -669.3568 Z" clip-path="url(#clipPath2)" stroke="none"/>
      <text x="1147.8937" y="-679.6542" clip-path="url(#clipPath2)" fill="black" font-family="'Noto Sans'" stroke="none" xml:space="preserve">matchings</text>
      <path fill="none" d="M1371.119 -695.4076 L1640.6858 -695.4076" clip-path="url(#clipPath2)" stroke="black"/>
      <path fill="black" d="M1648.6858 -695.4076 L1636.6858 -700.4076 L1639.6858 -695.4076 L1636.6858 -690.4076 Z" clip-path="url(#clipPath2)" stroke="none"/>
      <text x="1383.244" y="-702.9236" clip-path="url(#clipPath2)" fill="black" font-family="'Noto Sans'" stroke="none" xml:space="preserve">url</text>
    </g>
    <g fill="rgb(245,245,245)" text-rendering="geometricPrecision" shape-rendering="geometricPrecision" transform="matrix(1,0,0,1,-622,789)" stroke="rgb(245,245,245)">
      <rect x="637.2381" y="-426.6479" clip-path="url(#clipPath2)" width="454" rx="4" ry="4" height="140.1507" stroke="none"/>
      <rect x="637.2381" y="-426.6479" clip-path="url(#clipPath2)" fill="rgb(235,235,235)" width="454" height="24.4301" stroke="none"/>
    </g>
    <g font-size="15px" stroke-linecap="butt" transform="matrix(1,0,0,1,-622,789)" text-rendering="geometricPrecision" font-family="'Noto Sans'" shape-rendering="geometricPrecision" stroke-miterlimit="1.45">
      <text x="1004.4875" xml:space="preserve" y="-408.6128" clip-path="url(#clipPath2)" stroke="none">Conclusions</text>
    </g>
    <g stroke-linecap="butt" transform="matrix(1,0,0,1,-622,789)" fill="rgb(212,57,130)" text-rendering="geometricPrecision" shape-rendering="geometricPrecision" stroke-dasharray="6,2" stroke="rgb(212,57,130)" stroke-miterlimit="1.45">
      <rect x="637.2381" y="-426.6479" clip-path="url(#clipPath2)" fill="none" width="454" rx="4" ry="4" height="140.1507"/>
    </g>
    <g fill="rgb(255,247,228)" text-rendering="geometricPrecision" shape-rendering="geometricPrecision" transform="matrix(1,0,0,1,-622,789)" stroke="rgb(255,247,228)">
      <rect x="962.2381" width="114" height="84" y="-386.3575" clip-path="url(#clipPath2)" stroke="none"/>
    </g>
    <g stroke-linecap="butt" transform="matrix(1,0,0,1,-622,789)" fill="rgb(99,123,131)" text-rendering="geometricPrecision" shape-rendering="geometricPrecision" stroke="rgb(99,123,131)" stroke-miterlimit="1.45">
      <rect fill="none" x="962.2381" width="114" height="84" y="-386.3575" clip-path="url(#clipPath2)"/>
      <text x="994.4819" xml:space="preserve" y="-372.3897" clip-path="url(#clipPath2)" font-family="'Noto Sans'" stroke="none">IS</text>
      <text x="994.4819" xml:space="preserve" y="-356.0456" clip-path="url(#clipPath2)" font-family="'Noto Sans'" stroke="none">Is</text>
      <text x="994.4819" xml:space="preserve" y="-339.7015" clip-path="url(#clipPath2)" font-family="'Noto Sans'" stroke="none"> </text>
      <text x="994.4819" xml:space="preserve" y="-323.3574" clip-path="url(#clipPath2)" font-family="'Noto Sans'" stroke="none">certainty</text>
      <text x="994.4819" xml:space="preserve" y="-307.0132" clip-path="url(#clipPath2)" font-family="'Noto Sans'" stroke="none">notes</text>
    </g>
    <g fill="rgb(255,247,228)" text-rendering="geometricPrecision" shape-rendering="geometricPrecision" transform="matrix(1,0,0,1,-622,789)" stroke="rgb(255,247,228)">
      <ellipse rx="76" ry="38.2712" clip-path="url(#clipPath2)" cx="728.2381" cy="-344.3575" stroke="none"/>
    </g>
    <g stroke-linecap="butt" transform="matrix(1,0,0,1,-622,789)" fill="rgb(212,57,130)" text-rendering="geometricPrecision" shape-rendering="geometricPrecision" stroke="rgb(212,57,130)" stroke-miterlimit="1.45">
      <ellipse rx="76" fill="none" ry="38.2712" clip-path="url(#clipPath2)" cx="728.2381" cy="-344.3575"/>
      <text x="699.744" y="-356.0456" clip-path="url(#clipPath2)" fill="black" font-family="'Noto Sans'" stroke="none" xml:space="preserve">Sameness</text>
      <text x="699.744" y="-339.7015" clip-path="url(#clipPath2)" fill="black" font-family="'Noto Sans'" stroke="none" xml:space="preserve"> </text>
      <text x="699.744" y="-323.3574" clip-path="url(#clipPath2)" fill="black" font-family="'Noto Sans'" stroke="none" xml:space="preserve">rationale</text>
      <path fill="none" d="M804.2382 -344.3575 L954.2382 -344.3575" clip-path="url(#clipPath2)" stroke="black"/>
      <path fill="black" d="M962.2382 -344.3575 L950.2382 -349.3575 L953.2382 -344.3575 L950.2382 -339.3575 Z" clip-path="url(#clipPath2)" stroke="none"/>
      <text x="816.3632" y="-351.8735" clip-path="url(#clipPath2)" fill="black" font-family="'Noto Sans'" stroke="none" xml:space="preserve">are</text>
      <text x="889.9432" y="-351.1876" clip-path="url(#clipPath2)" fill="black" font-family="sans-serif" stroke="none" xml:space="preserve">sameness</text>
      <path fill="none" d="M728.2382 -382.6287 L728.2382 -519.225" clip-path="url(#clipPath2)" stroke="black"/>
      <path fill="black" d="M728.2382 -527.225 L723.2382 -515.225 L728.2382 -518.225 L733.2382 -515.225 Z" clip-path="url(#clipPath2)" stroke="none"/>
      <text x="698.5339" y="-398.2697" clip-path="url(#clipPath2)" fill="black" font-family="'Noto Sans'" stroke="none" xml:space="preserve">cites</text>
    </g>
    <g fill="rgb(245,245,245)" text-rendering="geometricPrecision" shape-rendering="geometricPrecision" transform="matrix(1,0,0,1,-622,789)" stroke="rgb(245,245,245)">
      <rect x="1179.1191" y="-425.7877" clip-path="url(#clipPath2)" width="232" rx="4" ry="4" height="717.5649" stroke="none"/>
      <rect x="1179.1191" y="-425.7877" clip-path="url(#clipPath2)" fill="rgb(235,235,235)" width="232" height="24.4301" stroke="none"/>
    </g>
    <g font-size="15px" stroke-linecap="butt" transform="matrix(1,0,0,1,-622,789)" text-rendering="geometricPrecision" font-family="'Noto Sans'" shape-rendering="geometricPrecision" stroke-miterlimit="1.45">
      <text x="1330.8036" xml:space="preserve" y="-407.7525" clip-path="url(#clipPath2)" stroke="none">Extractions</text>
    </g>
    <g stroke-linecap="butt" transform="matrix(1,0,0,1,-622,789)" fill="rgb(188,136,1)" text-rendering="geometricPrecision" shape-rendering="geometricPrecision" stroke-dasharray="6,2" stroke="rgb(188,136,1)" stroke-miterlimit="1.45">
      <rect x="1179.1191" y="-425.7877" clip-path="url(#clipPath2)" fill="none" width="232" rx="4" ry="4" height="717.5649"/>
    </g>
    <g fill="rgb(255,247,228)" text-rendering="geometricPrecision" shape-rendering="geometricPrecision" transform="matrix(1,0,0,1,-622,789)" stroke="rgb(255,247,228)">
      <ellipse rx="76" ry="38.2712" clip-path="url(#clipPath2)" cx="1295.1191" cy="-344.3575" stroke="none"/>
    </g>
    <g stroke-linecap="butt" transform="matrix(1,0,0,1,-622,789)" fill="rgb(188,136,1)" text-rendering="geometricPrecision" shape-rendering="geometricPrecision" stroke="rgb(188,136,1)" stroke-miterlimit="1.45">
      <ellipse rx="76" fill="none" ry="38.2712" clip-path="url(#clipPath2)" cx="1295.1191" cy="-344.3575"/>
      <text x="1272.049" y="-356.0456" clip-path="url(#clipPath2)" fill="black" font-family="'Noto Sans'" stroke="none" xml:space="preserve">Persona</text>
      <text x="1272.049" y="-339.7015" clip-path="url(#clipPath2)" fill="black" font-family="'Noto Sans'" stroke="none" xml:space="preserve"> </text>
      <text x="1272.049" y="-323.3574" clip-path="url(#clipPath2)" fill="black" font-family="'Noto Sans'" stroke="none" xml:space="preserve">ident</text>
    </g>
    <g fill="rgb(255,247,228)" text-rendering="geometricPrecision" shape-rendering="geometricPrecision" transform="matrix(1,0,0,1,-622,789)" stroke="rgb(255,247,228)">
      <rect x="1238.1191" width="114" height="108.2712" y="-168.9257" clip-path="url(#clipPath2)" stroke="none"/>
    </g>
    <g stroke-linecap="butt" transform="matrix(1,0,0,1,-622,789)" fill="rgb(99,123,131)" text-rendering="geometricPrecision" shape-rendering="geometricPrecision" stroke="rgb(99,123,131)" stroke-miterlimit="1.45">
      <rect fill="none" x="1238.1191" width="114" height="108.2712" y="-168.9257" clip-path="url(#clipPath2)"/>
      <text x="1255.6388" xml:space="preserve" y="-150.9944" clip-path="url(#clipPath2)" font-family="'Noto Sans'" stroke="none">HAD_ROLE_IN</text>
      <text x="1255.6388" xml:space="preserve" y="-134.6503" clip-path="url(#clipPath2)" font-family="'Noto Sans'" stroke="none">Role</text>
      <text x="1255.6388" xml:space="preserve" y="-118.3061" clip-path="url(#clipPath2)" font-family="'Noto Sans'" stroke="none"> </text>
      <text x="1255.6388" xml:space="preserve" y="-101.962" clip-path="url(#clipPath2)" font-family="'Noto Sans'" stroke="none">desc</text>
      <text x="1255.6388" xml:space="preserve" y="-85.6179" clip-path="url(#clipPath2)" font-family="'Noto Sans'" stroke="none">certainty</text>
      <text x="1255.6388" xml:space="preserve" y="-69.2738" clip-path="url(#clipPath2)" font-family="'Noto Sans'" stroke="none">notes</text>
    </g>
    <g fill="rgb(255,247,228)" text-rendering="geometricPrecision" shape-rendering="geometricPrecision" transform="matrix(1,0,0,1,-622,789)" stroke="rgb(255,247,228)">
      <ellipse rx="101" ry="98.2712" clip-path="url(#clipPath2)" cx="1295.1191" cy="178.5061" stroke="none"/>
    </g>
    <g stroke-linecap="butt" transform="matrix(1,0,0,1,-622,789)" fill="rgb(188,136,1)" text-rendering="geometricPrecision" shape-rendering="geometricPrecision" stroke="rgb(188,136,1)" stroke-miterlimit="1.45">
      <ellipse rx="101" fill="none" ry="98.2712" clip-path="url(#clipPath2)" cx="1295.1191" cy="178.5061"/>
      <text x="1246.6807" y="125.9577" clip-path="url(#clipPath2)" fill="black" font-family="'Noto Sans'" stroke="none" xml:space="preserve">Event</text>
      <text x="1246.6807" y="142.3018" clip-path="url(#clipPath2)" fill="black" font-family="'Noto Sans'" stroke="none" xml:space="preserve"> </text>
      <text x="1246.6807" y="158.646" clip-path="url(#clipPath2)" fill="black" font-family="'Noto Sans'" stroke="none" xml:space="preserve">date</text>
      <text x="1246.6807" y="174.9901" clip-path="url(#clipPath2)" fill="black" font-family="'Noto Sans'" stroke="none" xml:space="preserve">certainty of date</text>
      <text x="1246.6807" y="191.3342" clip-path="url(#clipPath2)" fill="black" font-family="'Noto Sans'" stroke="none" xml:space="preserve">certainty of place</text>
      <text x="1246.6807" y="207.6783" clip-path="url(#clipPath2)" fill="black" font-family="'Noto Sans'" stroke="none" xml:space="preserve">type</text>
      <text x="1246.6807" y="224.0224" clip-path="url(#clipPath2)" fill="black" font-family="'Noto Sans'" stroke="none" xml:space="preserve">desc</text>
      <text x="1246.6807" y="240.3665" clip-path="url(#clipPath2)" fill="black" font-family="'Noto Sans'" stroke="none" xml:space="preserve">notes</text>
      <path fill="none" d="M1076.2382 -344.3575 L1211.119 -344.3575" clip-path="url(#clipPath2)" stroke="black"/>
      <path fill="black" d="M1219.119 -344.3575 L1207.119 -349.3575 L1210.119 -344.3575 L1207.119 -339.3575 Z" clip-path="url(#clipPath2)" stroke="none"/>
      <text x="1088.3632" y="-351.8735" clip-path="url(#clipPath2)" fill="black" font-family="'Noto Sans'" stroke="none" xml:space="preserve">persona</text>
      <text x="1177.0995" y="-351.1876" clip-path="url(#clipPath2)" fill="black" font-family="sans-serif" stroke="none" xml:space="preserve">xrefs</text>
      <path fill="none" d="M1295.119 -382.6287 L1295.119 -519.2438" clip-path="url(#clipPath2)" stroke="black"/>
      <path fill="black" d="M1295.119 -527.2438 L1290.119 -515.2438 L1295.119 -518.2438 L1300.119 -515.2438 Z" clip-path="url(#clipPath2)" stroke="none"/>
      <text x="1262.8475" y="-397.5838" clip-path="url(#clipPath2)" fill="black" font-family="sans-serif" stroke="none" xml:space="preserve">cites</text>
      <path fill="none" d="M1295.119 -306.0863 L1295.119 -176.9257" clip-path="url(#clipPath2)" stroke="black"/>
      <path fill="black" d="M1295.119 -168.9257 L1300.119 -180.9257 L1295.119 -177.9257 L1290.119 -180.9257 Z" clip-path="url(#clipPath2)" stroke="none"/>
      <text x="1233.5187" y="-281.1332" clip-path="url(#clipPath2)" fill="black" font-family="'Noto Sans'" stroke="none" xml:space="preserve">hadRoleIn</text>
      <text x="1242.6327" y="-183.8808" clip-path="url(#clipPath2)" fill="black" font-family="sans-serif" stroke="none" xml:space="preserve">persona</text>
      <path fill="none" d="M1295.119 -60.6545 L1295.119 72.2349" clip-path="url(#clipPath2)" stroke="black"/>
      <path fill="black" d="M1295.119 80.2349 L1300.119 68.2349 L1295.119 71.2349 L1290.119 68.2349 Z" clip-path="url(#clipPath2)" stroke="none"/>
      <text x="1259.7389" y="-35.7014" clip-path="url(#clipPath2)" fill="black" font-family="'Noto Sans'" stroke="none" xml:space="preserve">event</text>
      <text x="1247.1444" y="65.2798" clip-path="url(#clipPath2)" fill="black" font-family="sans-serif" stroke="none" xml:space="preserve">players</text>
    </g>
    <g fill="rgb(245,245,245)" text-rendering="geometricPrecision" shape-rendering="geometricPrecision" transform="matrix(1,0,0,1,-622,789)" stroke="rgb(245,245,245)">
      <rect x="1499" y="-425.7877" clip-path="url(#clipPath2)" width="705.0763" rx="4" ry="4" height="717.5649" stroke="none"/>
      <rect x="1499" y="-425.7877" clip-path="url(#clipPath2)" fill="rgb(235,235,235)" width="705.0763" height="24.4301" stroke="none"/>
    </g>
    <g font-size="15px" stroke-linecap="butt" transform="matrix(1,0,0,1,-622,789)" text-rendering="geometricPrecision" font-family="'Noto Sans'" shape-rendering="geometricPrecision" stroke-miterlimit="1.45">
      <text x="2157.8711" xml:space="preserve" y="-407.7525" clip-path="url(#clipPath2)" stroke="none">Places</text>
    </g>
    <g stroke-linecap="butt" transform="matrix(1,0,0,1,-622,789)" fill="rgb(141,153,0)" text-rendering="geometricPrecision" shape-rendering="geometricPrecision" stroke-dasharray="6,2" stroke="rgb(141,153,0)" stroke-miterlimit="1.45">
      <rect x="1499" y="-425.7877" clip-path="url(#clipPath2)" fill="none" width="705.0763" rx="4" ry="4" height="717.5649"/>
    </g>
    <g fill="rgb(255,247,228)" text-rendering="geometricPrecision" shape-rendering="geometricPrecision" transform="matrix(1,0,0,1,-622,789)" stroke="rgb(255,247,228)">
      <ellipse rx="76" ry="58.6712" clip-path="url(#clipPath2)" cx="1638.4" cy="7.2099" stroke="none"/>
    </g>
    <g stroke-linecap="butt" transform="matrix(1,0,0,1,-622,789)" fill="rgb(141,153,0)" text-rendering="geometricPrecision" shape-rendering="geometricPrecision" stroke="rgb(141,153,0)" stroke-miterlimit="1.45">
      <ellipse rx="76" fill="none" ry="58.6712" clip-path="url(#clipPath2)" cx="1638.4" cy="7.2099"/>
      <text x="1592.6616" y="-12.6502" clip-path="url(#clipPath2)" fill="black" font-family="'Noto Sans'" stroke="none" xml:space="preserve">Place</text>
      <text x="1592.6616" y="3.6939" clip-path="url(#clipPath2)" fill="black" font-family="'Noto Sans'" stroke="none" xml:space="preserve"> </text>
      <text x="1592.6616" y="20.038" clip-path="url(#clipPath2)" fill="black" font-family="'Noto Sans'" stroke="none" xml:space="preserve">name</text>
      <text x="1592.6616" y="36.3821" clip-path="url(#clipPath2)" fill="black" font-family="'Noto Sans'" stroke="none" xml:space="preserve">rough plus code</text>
    </g>
    <g fill="rgb(255,247,228)" text-rendering="geometricPrecision" shape-rendering="geometricPrecision" transform="matrix(1,0,0,1,-622,789)" stroke="rgb(255,247,228)">
      <path d="M1531.8 211.3311 L1553.12 196.3311 L1723.6801 196.3311 L1745 211.3311 L1723.6801 226.3311 L1553.12 226.3311 Z" fill-rule="evenodd" clip-path="url(#clipPath2)" stroke="none"/>
    </g>
    <g stroke-linecap="butt" transform="matrix(1,0,0,1,-622,789)" fill="rgb(99,123,131)" text-rendering="geometricPrecision" shape-rendering="geometricPrecision" stroke="rgb(99,123,131)" stroke-miterlimit="1.45">
      <path fill="none" d="M1531.8 211.3311 L1553.12 196.3311 L1723.6801 196.3311 L1745 211.3311 L1723.6801 226.3311 L1553.12 226.3311 Z" fill-rule="evenodd" clip-path="url(#clipPath2)"/>
      <text x="1549.7914" xml:space="preserve" y="215.9872" clip-path="url(#clipPath2)" font-family="'Noto Sans'" stroke="none">geographic information system</text>
    </g>
    <g fill="rgb(255,247,228)" text-rendering="geometricPrecision" shape-rendering="geometricPrecision" transform="matrix(1,0,0,1,-622,789)" stroke="rgb(255,247,228)">
      <ellipse rx="72.8" ry="58.6712" clip-path="url(#clipPath2)" cx="1722.4" cy="-327.6863" stroke="none"/>
    </g>
    <g stroke-linecap="butt" transform="matrix(1,0,0,1,-622,789)" fill="rgb(141,153,0)" text-rendering="geometricPrecision" shape-rendering="geometricPrecision" stroke="rgb(141,153,0)" stroke-miterlimit="1.45">
      <ellipse rx="72.8" fill="none" ry="58.6712" clip-path="url(#clipPath2)" cx="1722.4" cy="-327.6863"/>
      <text x="1698.7118" y="-323.0303" clip-path="url(#clipPath2)" fill="black" font-family="'Noto Sans'" stroke="none" xml:space="preserve">Transfer</text>
    </g>
    <g fill="rgb(255,247,228)" text-rendering="geometricPrecision" shape-rendering="geometricPrecision" transform="matrix(1,0,0,1,-622,789)" stroke="rgb(255,247,228)">
      <ellipse rx="72.8" ry="58.6712" clip-path="url(#clipPath2)" cx="2116.2763" cy="7.2099" stroke="none"/>
    </g>
    <g stroke-linecap="butt" transform="matrix(1,0,0,1,-622,789)" fill="rgb(141,153,0)" text-rendering="geometricPrecision" shape-rendering="geometricPrecision" stroke="rgb(141,153,0)" stroke-miterlimit="1.45">
      <ellipse rx="72.8" fill="none" ry="58.6712" clip-path="url(#clipPath2)" cx="2116.2763" cy="7.2099"/>
      <text x="2086.7319" y="11.8659" clip-path="url(#clipPath2)" fill="black" font-family="'Noto Sans'" stroke="none" xml:space="preserve">Transform</text>
    </g>
    <g fill="rgb(255,247,228)" text-rendering="geometricPrecision" shape-rendering="geometricPrecision" transform="matrix(1,0,0,1,-622,789)" stroke="rgb(255,247,228)">
      <rect x="1871.6191" width="70" height="30" y="-47.4613" clip-path="url(#clipPath2)" stroke="none"/>
    </g>
    <g stroke-linecap="butt" transform="matrix(1,0,0,1,-622,789)" fill="rgb(99,123,131)" text-rendering="geometricPrecision" shape-rendering="geometricPrecision" stroke="rgb(99,123,131)" stroke-miterlimit="1.45">
      <rect fill="none" x="1871.6191" width="70" height="30" y="-47.4613" clip-path="url(#clipPath2)"/>
      <text x="1889.6449" xml:space="preserve" y="-27.8053" clip-path="url(#clipPath2)" font-family="'Noto Sans'" stroke="none">FROM</text>
    </g>
    <g fill="rgb(255,247,228)" text-rendering="geometricPrecision" shape-rendering="geometricPrecision" transform="matrix(1,0,0,1,-622,789)" stroke="rgb(255,247,228)">
      <rect x="1687.4" width="70" height="30" y="-188.9438" clip-path="url(#clipPath2)" stroke="none"/>
    </g>
    <g stroke-linecap="butt" transform="matrix(1,0,0,1,-622,789)" fill="rgb(99,123,131)" text-rendering="geometricPrecision" shape-rendering="geometricPrecision" stroke="rgb(99,123,131)" stroke-miterlimit="1.45">
      <rect fill="none" x="1687.4" width="70" height="30" y="-188.9438" clip-path="url(#clipPath2)"/>
      <text x="1705.4259" xml:space="preserve" y="-169.2878" clip-path="url(#clipPath2)" font-family="'Noto Sans'" stroke="none">FROM</text>
    </g>
    <g fill="rgb(255,247,228)" text-rendering="geometricPrecision" shape-rendering="geometricPrecision" transform="matrix(1,0,0,1,-622,789)" stroke="rgb(255,247,228)">
      <rect x="1871.6191" width="70" height="30" y="51.2085" clip-path="url(#clipPath2)" stroke="none"/>
    </g>
    <g stroke-linecap="butt" transform="matrix(1,0,0,1,-622,789)" fill="rgb(99,123,131)" text-rendering="geometricPrecision" shape-rendering="geometricPrecision" stroke="rgb(99,123,131)" stroke-miterlimit="1.45">
      <rect fill="none" x="1871.6191" width="70" height="30" y="51.2085" clip-path="url(#clipPath2)"/>
      <text x="1898.597" xml:space="preserve" y="70.8646" clip-path="url(#clipPath2)" font-family="'Noto Sans'" stroke="none">TO</text>
    </g>
    <g fill="rgb(255,247,228)" text-rendering="geometricPrecision" shape-rendering="geometricPrecision" transform="matrix(1,0,0,1,-622,789)" stroke="rgb(255,247,228)">
      <rect x="1768.2" width="70" height="30" y="-188.9438" clip-path="url(#clipPath2)" stroke="none"/>
    </g>
    <g stroke-linecap="butt" transform="matrix(1,0,0,1,-622,789)" fill="rgb(99,123,131)" text-rendering="geometricPrecision" shape-rendering="geometricPrecision" stroke="rgb(99,123,131)" stroke-miterlimit="1.45">
      <rect fill="none" x="1768.2" width="70" height="30" y="-188.9438" clip-path="url(#clipPath2)"/>
      <text x="1795.178" xml:space="preserve" y="-169.2878" clip-path="url(#clipPath2)" font-family="'Noto Sans'" stroke="none">TO</text>
    </g>
    <g fill="rgb(255,247,228)" text-rendering="geometricPrecision" shape-rendering="geometricPrecision" transform="matrix(1,0,0,1,-622,789)" stroke="rgb(255,247,228)">
      <rect x="1514" width="70" height="30" y="-188.9438" clip-path="url(#clipPath2)" stroke="none"/>
    </g>
    <g stroke-linecap="butt" transform="matrix(1,0,0,1,-622,789)" fill="rgb(99,123,131)" text-rendering="geometricPrecision" shape-rendering="geometricPrecision" stroke="rgb(99,123,131)" stroke-miterlimit="1.45">
      <rect fill="none" x="1514" width="70" height="30" y="-188.9438" clip-path="url(#clipPath2)"/>
      <text x="1541.2" xml:space="preserve" y="-169.2878" clip-path="url(#clipPath2)" font-family="'Noto Sans'" stroke="none">OF</text>
    </g>
    <g fill="rgb(255,247,228)" text-rendering="geometricPrecision" shape-rendering="geometricPrecision" transform="matrix(1,0,0,1,-622,789)" stroke="rgb(255,247,228)">
      <ellipse rx="72.8" ry="58.6712" clip-path="url(#clipPath2)" cx="2116.2763" cy="-327.6863" stroke="none"/>
    </g>
    <g stroke-linecap="butt" transform="matrix(1,0,0,1,-622,789)" fill="rgb(141,153,0)" text-rendering="geometricPrecision" shape-rendering="geometricPrecision" stroke="rgb(141,153,0)" stroke-miterlimit="1.45">
      <ellipse rx="72.8" fill="none" ry="58.6712" clip-path="url(#clipPath2)" cx="2116.2763" cy="-327.6863"/>
      <text x="2079.8201" y="-347.5465" clip-path="url(#clipPath2)" fill="black" font-family="'Noto Sans'" stroke="none" xml:space="preserve">PlaceChange</text>
      <text x="2079.8201" y="-331.2024" clip-path="url(#clipPath2)" fill="black" font-family="'Noto Sans'" stroke="none" xml:space="preserve"> </text>
      <text x="2079.8201" y="-314.8582" clip-path="url(#clipPath2)" fill="black" font-family="'Noto Sans'" stroke="none" xml:space="preserve">date</text>
      <text x="2079.8201" y="-298.5141" clip-path="url(#clipPath2)" fill="black" font-family="'Noto Sans'" stroke="none" xml:space="preserve">notes</text>
    </g>
    <g fill="rgb(255,247,228)" text-rendering="geometricPrecision" shape-rendering="geometricPrecision" transform="matrix(1,0,0,1,-622,789)" stroke="rgb(255,247,228)">
      <rect x="1884.3381" width="70" height="30" y="-342.6863" clip-path="url(#clipPath2)" stroke="none"/>
    </g>
    <g stroke-linecap="butt" transform="matrix(1,0,0,1,-622,789)" fill="rgb(99,123,131)" text-rendering="geometricPrecision" shape-rendering="geometricPrecision" stroke="rgb(99,123,131)" stroke-miterlimit="1.45">
      <rect fill="none" x="1884.3381" width="70" height="30" y="-342.6863" clip-path="url(#clipPath2)"/>
      <text x="1895.8779" xml:space="preserve" y="-323.0303" clip-path="url(#clipPath2)" font-family="'Noto Sans'" stroke="none">DURING</text>
    </g>
    <g fill="rgb(255,247,228)" text-rendering="geometricPrecision" shape-rendering="geometricPrecision" transform="matrix(1,0,0,1,-622,789)" stroke="rgb(255,247,228)">
      <rect x="2081.2763" width="70" height="30" y="-175.2382" clip-path="url(#clipPath2)" stroke="none"/>
    </g>
    <g stroke-linecap="butt" transform="matrix(1,0,0,1,-622,789)" fill="rgb(99,123,131)" text-rendering="geometricPrecision" shape-rendering="geometricPrecision" stroke="rgb(99,123,131)" stroke-miterlimit="1.45">
      <rect fill="none" x="2081.2763" width="70" height="30" y="-175.2382" clip-path="url(#clipPath2)"/>
      <text x="2092.8162" xml:space="preserve" y="-155.5822" clip-path="url(#clipPath2)" font-family="'Noto Sans'" stroke="none">DURING</text>
    </g>
    <g fill="rgb(255,247,228)" text-rendering="geometricPrecision" shape-rendering="geometricPrecision" transform="matrix(1,0,0,1,-622,789)" stroke="rgb(255,247,228)">
      <rect x="1884.3381" width="70" height="30" y="-342.6863" clip-path="url(#clipPath2)" stroke="none"/>
    </g>
    <g stroke-linecap="butt" transform="matrix(1,0,0,1,-622,789)" fill="rgb(99,123,131)" text-rendering="geometricPrecision" shape-rendering="geometricPrecision" stroke="rgb(99,123,131)" stroke-miterlimit="1.45">
      <rect fill="none" x="1884.3381" width="70" height="30" y="-342.6863" clip-path="url(#clipPath2)"/>
      <text x="1895.8779" xml:space="preserve" y="-323.0303" clip-path="url(#clipPath2)" font-family="'Noto Sans'" stroke="none">DURING</text>
      <path fill="none" d="M1384.9894 133.661 L1567.4146 42.6314" clip-path="url(#clipPath2)" stroke="black"/>
      <path fill="black" d="M1574.5729 39.0595 L1561.6029 39.9435 L1566.5198 43.0779 L1566.0679 48.8913 Z" clip-path="url(#clipPath2)" stroke="none"/>
      <text x="1408.244" y="98.7048" clip-path="url(#clipPath2)" fill="black" font-family="'Noto Sans'" stroke="none" xml:space="preserve">place</text>
      <path fill="none" d="M1638.4 65.8811 L1638.4 188.3103" clip-path="url(#clipPath2)" stroke="black"/>
      <path fill="black" d="M1638.4 196.3103 L1643.4 184.3103 L1638.4 187.3103 L1633.4 184.3103 Z" clip-path="url(#clipPath2)" stroke="none"/>
      <text x="1597.5237" y="90.8342" clip-path="url(#clipPath2)" fill="black" font-family="'Noto Sans'" stroke="none" xml:space="preserve">region</text>
      <path fill="none" d="M2045.4034 -6.2006 L1949.4796 -24.3513" clip-path="url(#clipPath2)" stroke="black"/>
      <path fill="black" d="M1941.6191 -25.8386 L1952.4803 -18.6948 L1950.4623 -24.1653 L1954.3395 -28.5204 Z" clip-path="url(#clipPath2)" stroke="none"/>
      <text x="2003.7871" y="-21.9697" clip-path="url(#clipPath2)" fill="black" font-family="'Noto Sans'" stroke="none" xml:space="preserve">from</text>
      <path fill="none" d="M1871.619 -27.2846 L1720.9563 -5.0007" clip-path="url(#clipPath2)" stroke="black"/>
      <path fill="black" d="M1713.0424 -3.8302 L1725.6448 -0.6397 L1721.9456 -5.147 L1724.1816 -10.5321 Z" clip-path="url(#clipPath2)" stroke="none"/>
      <text x="1726.525" y="11.2996" clip-path="url(#clipPath2)" fill="black" font-family="'Noto Sans'" stroke="none" xml:space="preserve">destruction</text>
      <path fill="none" d="M1722.4 -269.0151 L1722.4 -196.9438" clip-path="url(#clipPath2)" stroke="black"/>
      <path fill="black" d="M1722.4 -188.9438 L1727.4 -200.9438 L1722.4 -197.9438 L1717.4 -200.9438 Z" clip-path="url(#clipPath2)" stroke="none"/>
      <text x="1640.1354" y="-244.062" clip-path="url(#clipPath2)" fill="black" font-family="'Noto Sans'" stroke="none" xml:space="preserve">from superior</text>
      <path fill="none" d="M1715.4446 -158.9438 L1667.3793 -55.2865" clip-path="url(#clipPath2)" stroke="black"/>
      <path fill="black" d="M1664.0139 -48.0288 L1673.598 -56.812 L1667.7999 -56.1937 L1664.5259 -61.0187 Z" clip-path="url(#clipPath2)" stroke="none"/>
      <text x="1631.9321" y="-67.1023" clip-path="url(#clipPath2)" fill="black" font-family="'Noto Sans'" stroke="none" xml:space="preserve">losses</text>
      <path fill="none" d="M2047.5457 26.5511 L1949.3199 54.1923" clip-path="url(#clipPath2)" stroke="black"/>
      <path fill="black" d="M1941.619 56.3593 L1954.5248 57.9218 L1950.2825 53.9214 L1951.8159 48.2957 Z" clip-path="url(#clipPath2)" stroke="none"/>
      <text x="2019.7592" y="23.0294" clip-path="url(#clipPath2)" fill="black" font-family="'Noto Sans'" stroke="none" xml:space="preserve">to</text>
      <path fill="none" d="M1871.619 58.5098 L1719.3041 25.0059" clip-path="url(#clipPath2)" stroke="black"/>
      <path fill="black" d="M1711.4908 23.2873 L1722.1365 30.7485 L1720.2808 25.2207 L1724.2848 20.982 Z" clip-path="url(#clipPath2)" stroke="none"/>
      <text x="1726.525" y="59.4253" clip-path="url(#clipPath2)" fill="black" font-family="'Noto Sans'" stroke="none" xml:space="preserve">construction</text>
      <path fill="none" d="M1750.7931 -273.6614 L1791.595 -196.0254" clip-path="url(#clipPath2)" stroke="black"/>
      <path fill="black" d="M1795.3167 -188.9438 L1794.1602 -201.8923 L1791.1298 -196.9106 L1785.3081 -197.2401 Z" clip-path="url(#clipPath2)" stroke="none"/>
      <text x="1773.248" y="-244.062" clip-path="url(#clipPath2)" fill="black" font-family="'Noto Sans'" stroke="none" xml:space="preserve">to superior</text>
      <path fill="none" d="M1789.5541 -158.9438 L1687.4624 -46.7212" clip-path="url(#clipPath2)" stroke="black"/>
      <path fill="black" d="M1682.079 -40.8035 L1693.8527 -46.3154 L1688.1354 -47.4609 L1686.4556 -53.0447 Z" clip-path="url(#clipPath2)" stroke="none"/>
      <text x="1723.4932" y="-67.1023" clip-path="url(#clipPath2)" fill="black" font-family="'Noto Sans'" stroke="none" xml:space="preserve">gains</text>
      <path fill="none" d="M1673.433 -284.2705 L1571.9038 -194.2512" clip-path="url(#clipPath2)" stroke="black"/>
      <path fill="black" d="M1565.9178 -188.9438 L1578.2139 -193.1637 L1572.6521 -194.9146 L1571.5797 -200.6461 Z" clip-path="url(#clipPath2)" stroke="none"/>
      <text x="1561.6777" y="-244.062" clip-path="url(#clipPath2)" fill="black" font-family="'Noto Sans'" stroke="none" xml:space="preserve">of inferior</text>
      <path fill="none" d="M1556.4026 -158.9438 L1607.8022 -54.7911" clip-path="url(#clipPath2)" stroke="black"/>
      <path fill="black" d="M1611.3427 -47.6171 L1610.5157 -60.5908 L1607.3597 -55.6878 L1601.5483 -56.1653 Z" clip-path="url(#clipPath2)" stroke="none"/>
      <text x="1537.0806" y="-67.1023" clip-path="url(#clipPath2)" fill="black" font-family="'Noto Sans'" stroke="none" xml:space="preserve">superiors</text>
      <path fill="none" d="M2116.2764 -51.4613 L2116.2764 -137.2382" clip-path="url(#clipPath2)" stroke="black"/>
      <path fill="black" d="M2116.2764 -145.2382 L2111.2764 -133.2382 L2116.2764 -136.2382 L2121.2764 -133.2382 Z" clip-path="url(#clipPath2)" stroke="none"/>
      <text x="2073.5635" y="-66.4164" clip-path="url(#clipPath2)" fill="black" font-family="sans-serif" stroke="none" xml:space="preserve">during</text>
      <path fill="none" d="M2116.2764 -175.2382 L2116.2764 -261.0151" clip-path="url(#clipPath2)" stroke="black"/>
      <path fill="black" d="M2116.2764 -269.0151 L2111.2764 -257.0151 L2116.2764 -260.0151 L2121.2764 -257.0151 Z" clip-path="url(#clipPath2)" stroke="none"/>
      <text x="2046.9852" y="-245.7515" clip-path="url(#clipPath2)" fill="black" font-family="sans-serif" stroke="none" xml:space="preserve">transforms</text>
      <path fill="none" d="M1795.2 -327.6863 L1876.3381 -327.6863" clip-path="url(#clipPath2)" stroke="black"/>
      <path fill="black" d="M1884.3381 -327.6863 L1872.3381 -332.6863 L1875.3381 -327.6863 L1872.3381 -322.6863 Z" clip-path="url(#clipPath2)" stroke="none"/>
      <text x="1807.325" y="-334.5164" clip-path="url(#clipPath2)" fill="black" font-family="sans-serif" stroke="none" xml:space="preserve">during</text>
      <path fill="none" d="M1954.3381 -327.6863 L2035.4763 -327.6863" clip-path="url(#clipPath2)" stroke="black"/>
      <path fill="black" d="M2043.4763 -327.6863 L2031.4763 -332.6863 L2034.4763 -327.6863 L2031.4763 -322.6863 Z" clip-path="url(#clipPath2)" stroke="none"/>
      <text x="1977.7087" y="-334.5164" clip-path="url(#clipPath2)" fill="black" font-family="sans-serif" stroke="none" xml:space="preserve">transfers</text>
    </g>
  </g>
</svg>
