<?xml version="1.0" encoding="UTF-8"?><svg xmlns="http://www.w3.org/2000/svg" xmlns:xlink="http://www.w3.org/1999/xlink" fill-opacity="1" color-rendering="auto" color-interpolation="auto" text-rendering="auto" stroke="black" stroke-linecap="square" width="1598" stroke-miterlimit="10" shape-rendering="auto" stroke-opacity="1" fill="black" stroke-dasharray="none" font-weight="normal" stroke-width="1" height="1109" font-family="'Dialog'" font-style="normal" stroke-linejoin="miter" font-size="12px" stroke-dashoffset="0" image-rendering="auto">
  <!--Generated by ySVG 2.5-->
  <defs id="genericDefs"/>
  <g>
    <defs id="defs1">
      <clipPath clipPathUnits="userSpaceOnUse" id="clipPath1">
        <path d="M0 0 L1598 0 L1598 1109 L0 1109 L0 0 Z"/>
      </clipPath>
      <clipPath clipPathUnits="userSpaceOnUse" id="clipPath2">
        <path d="M622 -751 L2220 -751 L2220 358 L622 358 L622 -751 Z"/>
      </clipPath>
    </defs>
    <g fill="white" text-rendering="geometricPrecision" shape-rendering="geometricPrecision" transform="translate(-622,751)" stroke="white">
      <rect x="622" width="1598" height="1109" y="-751" clip-path="url(#clipPath2)" stroke="none"/>
    </g>
    <g fill="rgb(245,245,245)" text-rendering="geometricPrecision" shape-rendering="geometricPrecision" transform="matrix(1,0,0,1,-622,751)" stroke="rgb(245,245,245)">
      <rect x="637.2381" y="-735.6496" clip-path="url(#clipPath2)" width="814.8809" rx="4" ry="4" height="279.862" stroke="none"/>
      <rect x="637.2381" y="-735.6496" clip-path="url(#clipPath2)" fill="rgb(235,235,235)" width="814.8809" height="24.4301" stroke="none"/>
    </g>
    <g font-size="15px" stroke-linecap="butt" transform="matrix(1,0,0,1,-622,751)" text-rendering="geometricPrecision" font-family="'Noto Sans'" shape-rendering="geometricPrecision" stroke-miterlimit="1.45">
      <text x="1394.4987" xml:space="preserve" y="-717.6145" clip-path="url(#clipPath2)" stroke="none">Sources</text>
    </g>
    <g stroke-linecap="butt" transform="matrix(1,0,0,1,-622,751)" fill="rgb(0,141,210)" text-rendering="geometricPrecision" shape-rendering="geometricPrecision" stroke-dasharray="6,2" stroke="rgb(0,141,210)" stroke-miterlimit="1.45">
      <rect x="637.2381" y="-735.6496" clip-path="url(#clipPath2)" fill="none" width="814.8809" rx="4" ry="4" height="279.862"/>
    </g>
    <g fill="rgb(255,247,228)" text-rendering="geometricPrecision" shape-rendering="geometricPrecision" transform="matrix(1,0,0,1,-622,751)" stroke="rgb(255,247,228)">
      <ellipse rx="76" ry="38.2712" clip-path="url(#clipPath2)" cx="1019.2381" cy="-657.9483" stroke="none"/>
    </g>
    <g stroke-linecap="butt" transform="matrix(1,0,0,1,-622,751)" fill="rgb(0,141,210)" text-rendering="geometricPrecision" shape-rendering="geometricPrecision" stroke="rgb(0,141,210)" stroke-miterlimit="1.45">
      <ellipse rx="76" fill="none" ry="38.2712" clip-path="url(#clipPath2)" cx="1019.2381" cy="-657.9483"/>
      <text x="987.6419" y="-669.6364" clip-path="url(#clipPath2)" fill="black" font-family="'Noto Sans'" stroke="none" xml:space="preserve">Citation</text>
      <text x="987.6419" y="-653.2922" clip-path="url(#clipPath2)" fill="black" font-family="'Noto Sans'" stroke="none" xml:space="preserve"> </text>
      <text x="987.6419" y="-636.9481" clip-path="url(#clipPath2)" fill="black" font-family="'Noto Sans'" stroke="none" xml:space="preserve">description</text>
    </g>
    <g fill="rgb(255,247,228)" text-rendering="geometricPrecision" shape-rendering="geometricPrecision" transform="matrix(1,0,0,1,-622,751)" stroke="rgb(255,247,228)">
      <rect x="1279.1191" width="70" height="30" y="-519.7877" clip-path="url(#clipPath2)" stroke="none"/>
    </g>
    <g stroke-linecap="butt" transform="matrix(1,0,0,1,-622,751)" fill="rgb(99,123,131)" text-rendering="geometricPrecision" shape-rendering="geometricPrecision" stroke="rgb(99,123,131)" stroke-miterlimit="1.45">
      <rect fill="none" x="1279.1191" width="70" height="30" y="-519.7877" clip-path="url(#clipPath2)"/>
      <text x="1298.3269" xml:space="preserve" y="-500.1316" clip-path="url(#clipPath2)" font-family="'Noto Sans'" stroke="none">CITES</text>
    </g>
    <g fill="rgb(255,247,228)" text-rendering="geometricPrecision" shape-rendering="geometricPrecision" transform="matrix(1,0,0,1,-622,751)" stroke="rgb(255,247,228)">
      <rect x="693.2381" width="70" height="30" y="-519.7877" clip-path="url(#clipPath2)" stroke="none"/>
    </g>
    <g stroke-linecap="butt" transform="matrix(1,0,0,1,-622,751)" fill="rgb(99,123,131)" text-rendering="geometricPrecision" shape-rendering="geometricPrecision" stroke="rgb(99,123,131)" stroke-miterlimit="1.45">
      <rect fill="none" x="693.2381" width="70" height="30" y="-519.7877" clip-path="url(#clipPath2)"/>
      <text x="712.446" xml:space="preserve" y="-500.1316" clip-path="url(#clipPath2)" font-family="'Noto Sans'" stroke="none">CITES</text>
      <path fill="none" d="M1314.119 -519.7877 L1314.119 -569.5 L1313.515 -574.0357 L1311.7031 -577.6427 L1308.6831 -580.3212 L1304.4552 -582.0709 L1094.1681 -638.0144" clip-path="url(#clipPath2)" stroke="black"/>
      <path fill="black" d="M1086.437 -640.0711 L1096.7482 -632.1541 L1095.1345 -637.7573 L1099.3191 -641.818 Z" clip-path="url(#clipPath2)" stroke="none"/>
      <text x="1107.3632" y="-603.0366" clip-path="url(#clipPath2)" fill="black" font-family="'Noto Sans'" stroke="none" xml:space="preserve">personae</text>
      <path fill="none" d="M728.2382 -519.7877 L728.2382 -578.5 L728.8461 -583.0201 L730.6699 -586.5803 L733.7095 -589.1808 L737.965 -590.8214 L942.779 -639.701" clip-path="url(#clipPath2)" stroke="black"/>
      <path fill="black" d="M950.5604 -641.5581 L937.7275 -643.6359 L941.8063 -639.4689 L940.049 -633.9091 Z" clip-path="url(#clipPath2)" stroke="none"/>
      <text x="872.0128" y="-605.507" clip-path="url(#clipPath2)" fill="black" font-family="'Noto Sans'" stroke="none" xml:space="preserve">matchings</text>
    </g>
    <g fill="rgb(245,245,245)" text-rendering="geometricPrecision" shape-rendering="geometricPrecision" transform="matrix(1,0,0,1,-622,751)" stroke="rgb(245,245,245)">
      <rect x="637.2381" y="-425.7877" clip-path="url(#clipPath2)" width="507" rx="4" ry="4" height="143.0192" stroke="none"/>
      <rect x="637.2381" y="-425.7877" clip-path="url(#clipPath2)" fill="rgb(235,235,235)" width="507" height="24.4301" stroke="none"/>
    </g>
    <g font-size="15px" stroke-linecap="butt" transform="matrix(1,0,0,1,-622,751)" text-rendering="geometricPrecision" font-family="'Noto Sans'" shape-rendering="geometricPrecision" stroke-miterlimit="1.45">
      <text x="1057.4875" xml:space="preserve" y="-407.7525" clip-path="url(#clipPath2)" stroke="none">Conclusions</text>
    </g>
    <g stroke-linecap="butt" transform="matrix(1,0,0,1,-622,751)" fill="rgb(212,57,130)" text-rendering="geometricPrecision" shape-rendering="geometricPrecision" stroke-dasharray="6,2" stroke="rgb(212,57,130)" stroke-miterlimit="1.45">
      <rect x="637.2381" y="-425.7877" clip-path="url(#clipPath2)" fill="none" width="507" rx="4" ry="4" height="143.0192"/>
    </g>
    <g fill="rgb(255,247,228)" text-rendering="geometricPrecision" shape-rendering="geometricPrecision" transform="matrix(1,0,0,1,-622,751)" stroke="rgb(255,247,228)">
      <rect x="962.2381" width="114" height="84" y="-382.6287" clip-path="url(#clipPath2)" stroke="none"/>
    </g>
    <g stroke-linecap="butt" transform="matrix(1,0,0,1,-622,751)" fill="rgb(99,123,131)" text-rendering="geometricPrecision" shape-rendering="geometricPrecision" stroke="rgb(99,123,131)" stroke-miterlimit="1.45">
      <rect fill="none" x="962.2381" width="114" height="84" y="-382.6287" clip-path="url(#clipPath2)"/>
      <text x="994.4819" xml:space="preserve" y="-368.6609" clip-path="url(#clipPath2)" font-family="'Noto Sans'" stroke="none">IS</text>
      <text x="994.4819" xml:space="preserve" y="-352.3168" clip-path="url(#clipPath2)" font-family="'Noto Sans'" stroke="none">Is</text>
      <text x="994.4819" xml:space="preserve" y="-335.9727" clip-path="url(#clipPath2)" font-family="'Noto Sans'" stroke="none"> </text>
      <text x="994.4819" xml:space="preserve" y="-319.6285" clip-path="url(#clipPath2)" font-family="'Noto Sans'" stroke="none">certainty</text>
      <text x="994.4819" xml:space="preserve" y="-303.2844" clip-path="url(#clipPath2)" font-family="'Noto Sans'" stroke="none">notes</text>
    </g>
    <g fill="rgb(255,247,228)" text-rendering="geometricPrecision" shape-rendering="geometricPrecision" transform="matrix(1,0,0,1,-622,751)" stroke="rgb(255,247,228)">
      <ellipse rx="76" ry="38.2712" clip-path="url(#clipPath2)" cx="728.2381" cy="-340.6287" stroke="none"/>
    </g>
    <g stroke-linecap="butt" transform="matrix(1,0,0,1,-622,751)" fill="rgb(212,57,130)" text-rendering="geometricPrecision" shape-rendering="geometricPrecision" stroke="rgb(212,57,130)" stroke-miterlimit="1.45">
      <ellipse rx="76" fill="none" ry="38.2712" clip-path="url(#clipPath2)" cx="728.2381" cy="-340.6287"/>
      <text x="699.744" y="-360.4888" clip-path="url(#clipPath2)" fill="black" font-family="'Noto Sans'" stroke="none" xml:space="preserve">Sameness</text>
      <text x="699.744" y="-344.1447" clip-path="url(#clipPath2)" fill="black" font-family="'Noto Sans'" stroke="none" xml:space="preserve"> </text>
      <text x="699.744" y="-327.8006" clip-path="url(#clipPath2)" fill="black" font-family="'Noto Sans'" stroke="none" xml:space="preserve">rationale</text>
      <text x="699.744" y="-311.4565" clip-path="url(#clipPath2)" fill="black" font-family="'Noto Sans'" stroke="none" xml:space="preserve">notes</text>
      <path fill="none" d="M728.2382 -378.8999 L728.2382 -481.7796" clip-path="url(#clipPath2)" stroke="black"/>
      <path fill="black" d="M728.2382 -489.7796 L723.2382 -477.7796 L728.2382 -480.7796 L733.2382 -477.7796 Z" clip-path="url(#clipPath2)" stroke="none"/>
      <text x="698.5339" y="-394.5409" clip-path="url(#clipPath2)" fill="black" font-family="'Noto Sans'" stroke="none" xml:space="preserve">cites</text>
      <path fill="none" d="M804.2382 -340.6287 L954.2382 -340.6287" clip-path="url(#clipPath2)" stroke="black"/>
      <path fill="black" d="M962.2382 -340.6287 L950.2382 -345.6287 L953.2382 -340.6287 L950.2382 -335.6287 Z" clip-path="url(#clipPath2)" stroke="none"/>
      <text x="816.3632" y="-348.1447" clip-path="url(#clipPath2)" fill="black" font-family="'Noto Sans'" stroke="none" xml:space="preserve">are</text>
      <text x="889.9432" y="-347.4588" clip-path="url(#clipPath2)" fill="black" font-family="sans-serif" stroke="none" xml:space="preserve">sameness</text>
    </g>
    <g fill="rgb(245,245,245)" text-rendering="geometricPrecision" shape-rendering="geometricPrecision" transform="matrix(1,0,0,1,-622,751)" stroke="rgb(245,245,245)">
      <rect x="1172.1191" y="-425.7877" clip-path="url(#clipPath2)" width="280" rx="4" ry="4" height="768.1507" stroke="none"/>
      <rect x="1172.1191" y="-425.7877" clip-path="url(#clipPath2)" fill="rgb(235,235,235)" width="280" height="24.4301" stroke="none"/>
    </g>
    <g font-size="15px" stroke-linecap="butt" transform="matrix(1,0,0,1,-622,751)" text-rendering="geometricPrecision" font-family="'Noto Sans'" shape-rendering="geometricPrecision" stroke-miterlimit="1.45">
      <text x="1371.8036" xml:space="preserve" y="-407.7525" clip-path="url(#clipPath2)" stroke="none">Extractions</text>
    </g>
    <g stroke-linecap="butt" transform="matrix(1,0,0,1,-622,751)" fill="rgb(188,136,1)" text-rendering="geometricPrecision" shape-rendering="geometricPrecision" stroke-dasharray="6,2" stroke="rgb(188,136,1)" stroke-miterlimit="1.45">
      <rect x="1172.1191" y="-425.7877" clip-path="url(#clipPath2)" fill="none" width="280" rx="4" ry="4" height="768.1507"/>
    </g>
    <g fill="rgb(255,247,228)" text-rendering="geometricPrecision" shape-rendering="geometricPrecision" transform="matrix(1,0,0,1,-622,751)" stroke="rgb(255,247,228)">
      <ellipse rx="76" ry="38.2712" clip-path="url(#clipPath2)" cx="1314.1191" cy="-340.6287" stroke="none"/>
    </g>
    <g stroke-linecap="butt" transform="matrix(1,0,0,1,-622,751)" fill="rgb(188,136,1)" text-rendering="geometricPrecision" shape-rendering="geometricPrecision" stroke="rgb(188,136,1)" stroke-miterlimit="1.45">
      <ellipse rx="76" fill="none" ry="38.2712" clip-path="url(#clipPath2)" cx="1314.1191" cy="-340.6287"/>
      <text x="1282.5228" y="-360.4888" clip-path="url(#clipPath2)" fill="black" font-family="'Noto Sans'" stroke="none" xml:space="preserve">Persona</text>
      <text x="1282.5228" y="-344.1447" clip-path="url(#clipPath2)" fill="black" font-family="'Noto Sans'" stroke="none" xml:space="preserve"> </text>
      <text x="1282.5228" y="-327.8006" clip-path="url(#clipPath2)" fill="black" font-family="'Noto Sans'" stroke="none" xml:space="preserve">description</text>
      <text x="1282.5228" y="-311.4565" clip-path="url(#clipPath2)" fill="black" font-family="'Noto Sans'" stroke="none" xml:space="preserve">notes</text>
    </g>
    <g fill="rgb(255,247,228)" text-rendering="geometricPrecision" shape-rendering="geometricPrecision" transform="matrix(1,0,0,1,-622,751)" stroke="rgb(255,247,228)">
      <rect x="1257.1191" width="114" height="108.2712" y="-218.9257" clip-path="url(#clipPath2)" stroke="none"/>
    </g>
    <g stroke-linecap="butt" transform="matrix(1,0,0,1,-622,751)" fill="rgb(99,123,131)" text-rendering="geometricPrecision" shape-rendering="geometricPrecision" stroke="rgb(99,123,131)" stroke-miterlimit="1.45">
      <rect fill="none" x="1257.1191" width="114" height="108.2712" y="-218.9257" clip-path="url(#clipPath2)"/>
      <text x="1274.6388" xml:space="preserve" y="-200.9944" clip-path="url(#clipPath2)" font-family="'Noto Sans'" stroke="none">HAD_ROLE_IN</text>
      <text x="1274.6388" xml:space="preserve" y="-184.6503" clip-path="url(#clipPath2)" font-family="'Noto Sans'" stroke="none">Role</text>
      <text x="1274.6388" xml:space="preserve" y="-168.3061" clip-path="url(#clipPath2)" font-family="'Noto Sans'" stroke="none"> </text>
      <text x="1274.6388" xml:space="preserve" y="-151.962" clip-path="url(#clipPath2)" font-family="'Noto Sans'" stroke="none">description</text>
      <text x="1274.6388" xml:space="preserve" y="-135.6179" clip-path="url(#clipPath2)" font-family="'Noto Sans'" stroke="none">certainty</text>
      <text x="1274.6388" xml:space="preserve" y="-119.2738" clip-path="url(#clipPath2)" font-family="'Noto Sans'" stroke="none">notes</text>
    </g>
    <g fill="rgb(255,247,228)" text-rendering="geometricPrecision" shape-rendering="geometricPrecision" transform="matrix(1,0,0,1,-622,751)" stroke="rgb(255,247,228)">
      <ellipse rx="101" ry="98.2712" clip-path="url(#clipPath2)" cx="1314.1191" cy="81.5061" stroke="none"/>
    </g>
    <g stroke-linecap="butt" transform="matrix(1,0,0,1,-622,751)" fill="rgb(188,136,1)" text-rendering="geometricPrecision" shape-rendering="geometricPrecision" stroke="rgb(188,136,1)" stroke-miterlimit="1.45">
      <ellipse rx="101" fill="none" ry="98.2712" clip-path="url(#clipPath2)" cx="1314.1191" cy="81.5061"/>
      <text x="1267.9427" y="37.1298" clip-path="url(#clipPath2)" fill="black" font-family="'Noto Sans'" stroke="none" xml:space="preserve">Event</text>
      <text x="1267.9427" y="53.4739" clip-path="url(#clipPath2)" fill="black" font-family="'Noto Sans'" stroke="none" xml:space="preserve"> </text>
      <text x="1267.9427" y="69.818" clip-path="url(#clipPath2)" fill="black" font-family="'Noto Sans'" stroke="none" xml:space="preserve">date happened</text>
      <text x="1267.9427" y="86.1621" clip-path="url(#clipPath2)" fill="black" font-family="'Noto Sans'" stroke="none" xml:space="preserve">certainty of date</text>
      <text x="1267.9427" y="102.5062" clip-path="url(#clipPath2)" fill="black" font-family="'Noto Sans'" stroke="none" xml:space="preserve">type</text>
      <text x="1267.9427" y="118.8504" clip-path="url(#clipPath2)" fill="black" font-family="'Noto Sans'" stroke="none" xml:space="preserve">description</text>
      <text x="1267.9427" y="135.1945" clip-path="url(#clipPath2)" fill="black" font-family="'Noto Sans'" stroke="none" xml:space="preserve">notes</text>
    </g>
    <g fill="rgb(255,247,228)" text-rendering="geometricPrecision" shape-rendering="geometricPrecision" transform="matrix(1,0,0,1,-622,751)" stroke="rgb(255,247,228)">
      <rect x="1257.1191" width="114" height="84" y="242.5028" clip-path="url(#clipPath2)" stroke="none"/>
    </g>
    <g stroke-linecap="butt" transform="matrix(1,0,0,1,-622,751)" fill="rgb(99,123,131)" text-rendering="geometricPrecision" shape-rendering="geometricPrecision" stroke="rgb(99,123,131)" stroke-miterlimit="1.45">
      <rect fill="none" x="1257.1191" width="114" height="84" y="242.5028" clip-path="url(#clipPath2)"/>
      <text x="1289.3629" xml:space="preserve" y="256.4706" clip-path="url(#clipPath2)" font-family="'Noto Sans'" stroke="none">WAS_AT</text>
      <text x="1289.3629" xml:space="preserve" y="272.8147" clip-path="url(#clipPath2)" font-family="'Noto Sans'" stroke="none">At</text>
      <text x="1289.3629" xml:space="preserve" y="289.1588" clip-path="url(#clipPath2)" font-family="'Noto Sans'" stroke="none"> </text>
      <text x="1289.3629" xml:space="preserve" y="305.5029" clip-path="url(#clipPath2)" font-family="'Noto Sans'" stroke="none">certainty</text>
      <text x="1289.3629" xml:space="preserve" y="321.847" clip-path="url(#clipPath2)" font-family="'Noto Sans'" stroke="none">notes</text>
      <path fill="none" d="M1076.2382 -340.6287 L1230.119 -340.6287" clip-path="url(#clipPath2)" stroke="black"/>
      <path fill="black" d="M1238.119 -340.6287 L1226.119 -345.6287 L1229.119 -340.6287 L1226.119 -335.6287 Z" clip-path="url(#clipPath2)" stroke="none"/>
      <text x="1088.3632" y="-348.1447" clip-path="url(#clipPath2)" fill="black" font-family="'Noto Sans'" stroke="none" xml:space="preserve">persona</text>
      <text x="1196.0995" y="-347.4588" clip-path="url(#clipPath2)" fill="black" font-family="sans-serif" stroke="none" xml:space="preserve">xrefs</text>
      <path fill="none" d="M1314.119 -378.8999 L1314.119 -481.7586" clip-path="url(#clipPath2)" stroke="black"/>
      <path fill="black" d="M1314.119 -489.7586 L1309.119 -477.7586 L1314.119 -480.7586 L1319.119 -477.7586 Z" clip-path="url(#clipPath2)" stroke="none"/>
      <text x="1281.8475" y="-393.8549" clip-path="url(#clipPath2)" fill="black" font-family="sans-serif" stroke="none" xml:space="preserve">cites</text>
      <path fill="none" d="M1314.119 -302.3575 L1314.119 -226.9257" clip-path="url(#clipPath2)" stroke="black"/>
      <path fill="black" d="M1314.119 -218.9257 L1319.119 -230.9257 L1314.119 -227.9257 L1309.119 -230.9257 Z" clip-path="url(#clipPath2)" stroke="none"/>
      <text x="1246.7706" y="-277.4044" clip-path="url(#clipPath2)" fill="black" font-family="'Noto Sans'" stroke="none" xml:space="preserve">hadRolesIn</text>
      <text x="1261.6327" y="-233.8808" clip-path="url(#clipPath2)" fill="black" font-family="sans-serif" stroke="none" xml:space="preserve">persona</text>
      <path fill="none" d="M1314.119 -110.6545 L1314.119 -24.7651" clip-path="url(#clipPath2)" stroke="black"/>
      <path fill="black" d="M1314.119 -16.7651 L1319.119 -28.7651 L1314.119 -25.7651 L1309.119 -28.7651 Z" clip-path="url(#clipPath2)" stroke="none"/>
      <text x="1278.7389" y="-85.7014" clip-path="url(#clipPath2)" fill="black" font-family="'Noto Sans'" stroke="none" xml:space="preserve">event</text>
      <text x="1266.1444" y="-31.7202" clip-path="url(#clipPath2)" fill="black" font-family="sans-serif" stroke="none" xml:space="preserve">players</text>
      <path fill="none" d="M1314.119 179.7773 L1314.119 234.5028" clip-path="url(#clipPath2)" stroke="black"/>
      <path fill="black" d="M1314.119 242.5028 L1319.119 230.5028 L1314.119 233.5028 L1309.119 230.5028 Z" clip-path="url(#clipPath2)" stroke="none"/>
      <text x="1280.3828" y="204.7304" clip-path="url(#clipPath2)" fill="black" font-family="'Noto Sans'" stroke="none" xml:space="preserve">place</text>
    </g>
    <g fill="rgb(245,245,245)" text-rendering="geometricPrecision" shape-rendering="geometricPrecision" transform="matrix(1,0,0,1,-622,751)" stroke="rgb(245,245,245)">
      <rect x="1484" y="-425.7877" clip-path="url(#clipPath2)" width="720.0763" rx="4" ry="4" height="643.5649" stroke="none"/>
      <rect x="1484" y="-425.7877" clip-path="url(#clipPath2)" fill="rgb(235,235,235)" width="720.0763" height="24.4301" stroke="none"/>
    </g>
    <g font-size="15px" stroke-linecap="butt" transform="matrix(1,0,0,1,-622,751)" text-rendering="geometricPrecision" font-family="'Noto Sans'" shape-rendering="geometricPrecision" stroke-miterlimit="1.45">
      <text x="2157.8711" xml:space="preserve" y="-407.7525" clip-path="url(#clipPath2)" stroke="none">Places</text>
    </g>
    <g stroke-linecap="butt" transform="matrix(1,0,0,1,-622,751)" fill="rgb(141,153,0)" text-rendering="geometricPrecision" shape-rendering="geometricPrecision" stroke-dasharray="6,2" stroke="rgb(141,153,0)" stroke-miterlimit="1.45">
      <rect x="1484" y="-425.7877" clip-path="url(#clipPath2)" fill="none" width="720.0763" rx="4" ry="4" height="643.5649"/>
    </g>
    <g fill="rgb(255,247,228)" text-rendering="geometricPrecision" shape-rendering="geometricPrecision" transform="matrix(1,0,0,1,-622,751)" stroke="rgb(255,247,228)">
      <ellipse rx="76" ry="58.6712" clip-path="url(#clipPath2)" cx="1638.4" cy="81.5061" stroke="none"/>
    </g>
    <g stroke-linecap="butt" transform="matrix(1,0,0,1,-622,751)" fill="rgb(141,153,0)" text-rendering="geometricPrecision" shape-rendering="geometricPrecision" stroke="rgb(141,153,0)" stroke-miterlimit="1.45">
      <ellipse rx="76" fill="none" ry="58.6712" clip-path="url(#clipPath2)" cx="1638.4" cy="81.5061"/>
      <text x="1584.6757" y="53.4739" clip-path="url(#clipPath2)" fill="black" font-family="'Noto Sans'" stroke="none" xml:space="preserve">Place</text>
      <text x="1584.6757" y="69.818" clip-path="url(#clipPath2)" fill="black" font-family="'Noto Sans'" stroke="none" xml:space="preserve"> </text>
      <text x="1584.6757" y="86.1621" clip-path="url(#clipPath2)" fill="black" font-family="'Noto Sans'" stroke="none" xml:space="preserve">name</text>
      <text x="1584.6757" y="102.5062" clip-path="url(#clipPath2)" fill="black" font-family="'Noto Sans'" stroke="none" xml:space="preserve">pluscode of vicinity</text>
      <text x="1584.6757" y="118.8504" clip-path="url(#clipPath2)" fill="black" font-family="'Noto Sans'" stroke="none" xml:space="preserve">notes</text>
    </g>
    <g fill="rgb(255,247,228)" text-rendering="geometricPrecision" shape-rendering="geometricPrecision" transform="matrix(1,0,0,1,-622,751)" stroke="rgb(255,247,228)">
      <ellipse rx="72.8" ry="58.6712" clip-path="url(#clipPath2)" cx="1638.4" cy="-327.6863" stroke="none"/>
    </g>
    <g stroke-linecap="butt" transform="matrix(1,0,0,1,-622,751)" fill="rgb(141,153,0)" text-rendering="geometricPrecision" shape-rendering="geometricPrecision" stroke="rgb(141,153,0)" stroke-miterlimit="1.45">
      <ellipse rx="72.8" fill="none" ry="58.6712" clip-path="url(#clipPath2)" cx="1638.4" cy="-327.6863"/>
      <text x="1614.7118" y="-323.0303" clip-path="url(#clipPath2)" fill="black" font-family="'Noto Sans'" stroke="none" xml:space="preserve">Transfer</text>
    </g>
    <g fill="rgb(255,247,228)" text-rendering="geometricPrecision" shape-rendering="geometricPrecision" transform="matrix(1,0,0,1,-622,751)" stroke="rgb(255,247,228)">
      <ellipse rx="72.8" ry="58.6712" clip-path="url(#clipPath2)" cx="2116.2763" cy="81.5061" stroke="none"/>
    </g>
    <g stroke-linecap="butt" transform="matrix(1,0,0,1,-622,751)" fill="rgb(141,153,0)" text-rendering="geometricPrecision" shape-rendering="geometricPrecision" stroke="rgb(141,153,0)" stroke-miterlimit="1.45">
      <ellipse rx="72.8" fill="none" ry="58.6712" clip-path="url(#clipPath2)" cx="2116.2763" cy="81.5061"/>
      <text x="2086.7319" y="86.1621" clip-path="url(#clipPath2)" fill="black" font-family="'Noto Sans'" stroke="none" xml:space="preserve">Transform</text>
    </g>
    <g fill="rgb(255,247,228)" text-rendering="geometricPrecision" shape-rendering="geometricPrecision" transform="matrix(1,0,0,1,-622,751)" stroke="rgb(255,247,228)">
      <rect x="1871.6191" width="70" height="30" y="22.8349" clip-path="url(#clipPath2)" stroke="none"/>
    </g>
    <g stroke-linecap="butt" transform="matrix(1,0,0,1,-622,751)" fill="rgb(99,123,131)" text-rendering="geometricPrecision" shape-rendering="geometricPrecision" stroke="rgb(99,123,131)" stroke-miterlimit="1.45">
      <rect fill="none" x="1871.6191" width="70" height="30" y="22.8349" clip-path="url(#clipPath2)"/>
      <text x="1889.6449" xml:space="preserve" y="42.491" clip-path="url(#clipPath2)" font-family="'Noto Sans'" stroke="none">FROM</text>
    </g>
    <g fill="rgb(255,247,228)" text-rendering="geometricPrecision" shape-rendering="geometricPrecision" transform="matrix(1,0,0,1,-622,751)" stroke="rgb(255,247,228)">
      <rect x="1687.4" width="70" height="30" y="-188.9438" clip-path="url(#clipPath2)" stroke="none"/>
    </g>
    <g stroke-linecap="butt" transform="matrix(1,0,0,1,-622,751)" fill="rgb(99,123,131)" text-rendering="geometricPrecision" shape-rendering="geometricPrecision" stroke="rgb(99,123,131)" stroke-miterlimit="1.45">
      <rect fill="none" x="1687.4" width="70" height="30" y="-188.9438" clip-path="url(#clipPath2)"/>
      <text x="1705.4259" xml:space="preserve" y="-169.2878" clip-path="url(#clipPath2)" font-family="'Noto Sans'" stroke="none">FROM</text>
    </g>
    <g fill="rgb(255,247,228)" text-rendering="geometricPrecision" shape-rendering="geometricPrecision" transform="matrix(1,0,0,1,-622,751)" stroke="rgb(255,247,228)">
      <rect x="1871.6191" width="70" height="30" y="110.1773" clip-path="url(#clipPath2)" stroke="none"/>
    </g>
    <g stroke-linecap="butt" transform="matrix(1,0,0,1,-622,751)" fill="rgb(99,123,131)" text-rendering="geometricPrecision" shape-rendering="geometricPrecision" stroke="rgb(99,123,131)" stroke-miterlimit="1.45">
      <rect fill="none" x="1871.6191" width="70" height="30" y="110.1773" clip-path="url(#clipPath2)"/>
      <text x="1898.597" xml:space="preserve" y="129.8333" clip-path="url(#clipPath2)" font-family="'Noto Sans'" stroke="none">TO</text>
    </g>
    <g fill="rgb(255,247,228)" text-rendering="geometricPrecision" shape-rendering="geometricPrecision" transform="matrix(1,0,0,1,-622,751)" stroke="rgb(255,247,228)">
      <rect x="1768.2" width="70" height="30" y="-188.9438" clip-path="url(#clipPath2)" stroke="none"/>
    </g>
    <g stroke-linecap="butt" transform="matrix(1,0,0,1,-622,751)" fill="rgb(99,123,131)" text-rendering="geometricPrecision" shape-rendering="geometricPrecision" stroke="rgb(99,123,131)" stroke-miterlimit="1.45">
      <rect fill="none" x="1768.2" width="70" height="30" y="-188.9438" clip-path="url(#clipPath2)"/>
      <text x="1795.178" xml:space="preserve" y="-169.2878" clip-path="url(#clipPath2)" font-family="'Noto Sans'" stroke="none">TO</text>
    </g>
    <g fill="rgb(255,247,228)" text-rendering="geometricPrecision" shape-rendering="geometricPrecision" transform="matrix(1,0,0,1,-622,751)" stroke="rgb(255,247,228)">
      <rect x="1499" width="70" height="30" y="-188.9438" clip-path="url(#clipPath2)" stroke="none"/>
    </g>
    <g stroke-linecap="butt" transform="matrix(1,0,0,1,-622,751)" fill="rgb(99,123,131)" text-rendering="geometricPrecision" shape-rendering="geometricPrecision" stroke="rgb(99,123,131)" stroke-miterlimit="1.45">
      <rect fill="none" x="1499" width="70" height="30" y="-188.9438" clip-path="url(#clipPath2)"/>
      <text x="1526.2" xml:space="preserve" y="-169.2878" clip-path="url(#clipPath2)" font-family="'Noto Sans'" stroke="none">OF</text>
    </g>
    <g fill="rgb(255,247,228)" text-rendering="geometricPrecision" shape-rendering="geometricPrecision" transform="matrix(1,0,0,1,-622,751)" stroke="rgb(255,247,228)">
      <ellipse rx="72.8" ry="58.6712" clip-path="url(#clipPath2)" cx="2116.2763" cy="-327.6863" stroke="none"/>
    </g>
    <g stroke-linecap="butt" transform="matrix(1,0,0,1,-622,751)" fill="rgb(141,153,0)" text-rendering="geometricPrecision" shape-rendering="geometricPrecision" stroke="rgb(141,153,0)" stroke-miterlimit="1.45">
      <ellipse rx="72.8" fill="none" ry="58.6712" clip-path="url(#clipPath2)" cx="2116.2763" cy="-327.6863"/>
      <text x="2073.49" y="-347.5465" clip-path="url(#clipPath2)" fill="black" font-family="'Noto Sans'" stroke="none" xml:space="preserve">PlaceChange</text>
      <text x="2073.49" y="-331.2024" clip-path="url(#clipPath2)" fill="black" font-family="'Noto Sans'" stroke="none" xml:space="preserve"> </text>
      <text x="2073.49" y="-314.8582" clip-path="url(#clipPath2)" fill="black" font-family="'Noto Sans'" stroke="none" xml:space="preserve">date happened</text>
      <text x="2073.49" y="-298.5141" clip-path="url(#clipPath2)" fill="black" font-family="'Noto Sans'" stroke="none" xml:space="preserve">notes</text>
    </g>
    <g fill="rgb(255,247,228)" text-rendering="geometricPrecision" shape-rendering="geometricPrecision" transform="matrix(1,0,0,1,-622,751)" stroke="rgb(255,247,228)">
      <rect x="2081.2763" width="70" height="30" y="-188.9438" clip-path="url(#clipPath2)" stroke="none"/>
    </g>
    <g stroke-linecap="butt" transform="matrix(1,0,0,1,-622,751)" fill="rgb(99,123,131)" text-rendering="geometricPrecision" shape-rendering="geometricPrecision" stroke="rgb(99,123,131)" stroke-miterlimit="1.45">
      <rect fill="none" x="2081.2763" width="70" height="30" y="-188.9438" clip-path="url(#clipPath2)"/>
      <text x="2092.8162" xml:space="preserve" y="-169.2878" clip-path="url(#clipPath2)" font-family="'Noto Sans'" stroke="none">DURING</text>
    </g>
    <g fill="rgb(255,247,228)" text-rendering="geometricPrecision" shape-rendering="geometricPrecision" transform="matrix(1,0,0,1,-622,751)" stroke="rgb(255,247,228)">
      <rect x="1871.6191" width="70" height="30" y="-342.6863" clip-path="url(#clipPath2)" stroke="none"/>
    </g>
    <g stroke-linecap="butt" transform="matrix(1,0,0,1,-622,751)" fill="rgb(99,123,131)" text-rendering="geometricPrecision" shape-rendering="geometricPrecision" stroke="rgb(99,123,131)" stroke-miterlimit="1.45">
      <rect fill="none" x="1871.6191" width="70" height="30" y="-342.6863" clip-path="url(#clipPath2)"/>
      <text x="1883.1589" xml:space="preserve" y="-323.0303" clip-path="url(#clipPath2)" font-family="'Noto Sans'" stroke="none">DURING</text>
    </g>
    <g fill="rgb(255,247,228)" text-rendering="geometricPrecision" shape-rendering="geometricPrecision" transform="matrix(1,0,0,1,-622,751)" stroke="rgb(255,247,228)">
      <path d="M1531.8 -657.9483 L1553.12 -672.9483 L1723.6801 -672.9483 L1745 -657.9483 L1723.6801 -642.9483 L1553.12 -642.9483 Z" fill-rule="evenodd" clip-path="url(#clipPath2)" stroke="none"/>
    </g>
    <g stroke-linecap="butt" transform="matrix(1,0,0,1,-622,751)" fill="rgb(99,123,131)" text-rendering="geometricPrecision" shape-rendering="geometricPrecision" stroke="rgb(99,123,131)" stroke-miterlimit="1.45">
      <path fill="none" d="M1531.8 -657.9483 L1553.12 -672.9483 L1723.6801 -672.9483 L1745 -657.9483 L1723.6801 -642.9483 L1553.12 -642.9483 Z" fill-rule="evenodd" clip-path="url(#clipPath2)"/>
      <text x="1562.9015" xml:space="preserve" y="-653.2922" clip-path="url(#clipPath2)" font-family="'Noto Sans'" stroke="none">source information system</text>
    </g>
    <g fill="rgb(255,247,228)" text-rendering="geometricPrecision" shape-rendering="geometricPrecision" transform="matrix(1,0,0,1,-622,751)" stroke="rgb(255,247,228)">
      <path d="M1531.8 327.3631 L1553.12 312.3631 L1723.6801 312.3631 L1745 327.3631 L1723.6801 342.3631 L1553.12 342.3631 Z" fill-rule="evenodd" clip-path="url(#clipPath2)" stroke="none"/>
    </g>
    <g stroke-linecap="butt" transform="matrix(1,0,0,1,-622,751)" fill="rgb(99,123,131)" text-rendering="geometricPrecision" shape-rendering="geometricPrecision" stroke="rgb(99,123,131)" stroke-miterlimit="1.45">
      <path fill="none" d="M1531.8 327.3631 L1553.12 312.3631 L1723.6801 312.3631 L1745 327.3631 L1723.6801 342.3631 L1553.12 342.3631 Z" fill-rule="evenodd" clip-path="url(#clipPath2)"/>
      <text x="1549.7914" xml:space="preserve" y="332.0191" clip-path="url(#clipPath2)" font-family="'Noto Sans'" stroke="none">geographic information system</text>
      <path fill="none" d="M1371.119 284.5028 L1478 284.5028 L1482.7471 284.0006 L1486.9883 282.494 L1490.7236 279.9831 L1493.9531 276.4678 L1595.9043 138.8631" clip-path="url(#clipPath2)" stroke="black"/>
      <path fill="black" d="M1600.6667 132.4352 L1589.5056 139.1006 L1595.309 139.6667 L1597.5405 145.0537 Z" clip-path="url(#clipPath2)" stroke="none"/>
      <path fill="none" d="M2056.1748 48.3978 L2045.7589 42.66 L2036.6897 39.0412 L2027 37.8349 L1949.619 37.8349" clip-path="url(#clipPath2)" stroke="black"/>
      <path fill="black" d="M1941.619 37.8349 L1953.619 42.8349 L1950.619 37.8349 L1953.619 32.8349 Z" clip-path="url(#clipPath2)" stroke="none"/>
      <text x="2003.7871" y="54.663" clip-path="url(#clipPath2)" fill="black" font-family="'Noto Sans'" stroke="none" xml:space="preserve">from</text>
      <path fill="none" d="M1871.619 37.8349 L1746 37.8349 L1736.218 38.856 L1726.8721 41.9192 L1711.4559 48.8172" clip-path="url(#clipPath2)" stroke="black"/>
      <path fill="black" d="M1704.1536 52.0846 L1717.1492 51.7474 L1712.3687 48.4088 L1713.0649 42.6195 Z" clip-path="url(#clipPath2)" stroke="none"/>
      <text x="1767.0148" y="54.663" clip-path="url(#clipPath2)" fill="black" font-family="'Noto Sans'" stroke="none" xml:space="preserve">destruction</text>
      <path fill="none" d="M1680.0106 -279.5437 L1715.8608 -238.0657 L1720.7653 -229.8914 L1722.4 -220.5 L1722.4 -196.9438" clip-path="url(#clipPath2)" stroke="black"/>
      <path fill="black" d="M1722.4 -188.9438 L1727.4 -200.9438 L1722.4 -197.9438 L1717.4 -200.9438 Z" clip-path="url(#clipPath2)" stroke="none"/>
      <text x="1640.1354" y="-204.5849" clip-path="url(#clipPath2)" fill="black" font-family="'Noto Sans'" stroke="none" xml:space="preserve">from superior</text>
      <path fill="none" d="M1722.4 -158.9438 L1722.4 -63.5 L1721.0793 -53.8773 L1717.1172 -45.0093 L1675.5321 21.8269" clip-path="url(#clipPath2)" stroke="black"/>
      <path fill="black" d="M1671.3058 28.6194 L1681.8906 21.0721 L1676.0604 20.9778 L1673.3999 15.7892 Z" clip-path="url(#clipPath2)" stroke="none"/>
      <text x="1642.8363" y="7.1939" clip-path="url(#clipPath2)" fill="black" font-family="'Noto Sans'" stroke="none" xml:space="preserve">losses</text>
      <path fill="none" d="M2055.7043 114.0525 L2043.809 120.4441 L2034.7023 123.994 L2025 125.1773 L1949.619 125.1773" clip-path="url(#clipPath2)" stroke="black"/>
      <path fill="black" d="M1941.619 125.1773 L1953.619 130.1773 L1950.619 125.1773 L1953.619 120.1773 Z" clip-path="url(#clipPath2)" stroke="none"/>
      <text x="2019.7592" y="117.6613" clip-path="url(#clipPath2)" fill="black" font-family="'Noto Sans'" stroke="none" xml:space="preserve">to</text>
      <path fill="none" d="M1871.619 125.1773 L1751 125.1773 L1741.1997 124.1982 L1731.7988 121.2609 L1712.3151 112.9677" clip-path="url(#clipPath2)" stroke="black"/>
      <path fill="black" d="M1704.9541 109.8345 L1714.0374 119.1348 L1713.2351 113.3593 L1717.9537 109.9337 Z" clip-path="url(#clipPath2)" stroke="none"/>
      <text x="1766.3707" y="117.6613" clip-path="url(#clipPath2)" fill="black" font-family="'Noto Sans'" stroke="none" xml:space="preserve">construction</text>
      <path fill="none" d="M1699.2589 -295.4893 L1794.3607 -245.1763 L1798.2279 -242.5054 L1800.9901 -239.1691 L1802.6475 -235.1673 L1803.2 -230.5 L1803.2 -196.9438" clip-path="url(#clipPath2)" stroke="black"/>
      <path fill="black" d="M1803.2 -188.9438 L1808.2 -200.9438 L1803.2 -197.9438 L1798.2 -200.9438 Z" clip-path="url(#clipPath2)" stroke="none"/>
      <text x="1807.2" y="-204.5849" clip-path="url(#clipPath2)" fill="black" font-family="'Noto Sans'" stroke="none" xml:space="preserve">to superior</text>
      <path fill="none" d="M1803.2 -158.9438 L1803.2 -65.5 L1802.7194 -60.7254 L1801.2776 -56.4018 L1798.8745 -52.529 L1795.5103 -49.1072 L1696.2668 33.3986" clip-path="url(#clipPath2)" stroke="black"/>
      <path fill="black" d="M1690.1151 38.5129 L1702.5392 34.6863 L1697.0359 32.7593 L1696.1464 26.9966 Z" clip-path="url(#clipPath2)" stroke="none"/>
      <text x="1714.967" y="-16.239" clip-path="url(#clipPath2)" fill="black" font-family="'Noto Sans'" stroke="none" xml:space="preserve">gains</text>
      <path fill="none" d="M1582.4967 -290.1035 L1542.299 -263.0792 L1538.6682 -260.0133 L1536.0747 -256.3948 L1534.5187 -252.2237 L1534 -247.5 L1534 -196.9438" clip-path="url(#clipPath2)" stroke="black"/>
      <path fill="black" d="M1534 -188.9438 L1539 -200.9438 L1534 -197.9438 L1529 -200.9438 Z" clip-path="url(#clipPath2)" stroke="none"/>
      <text x="1538" y="-223.1284" clip-path="url(#clipPath2)" fill="black" font-family="'Noto Sans'" stroke="none" xml:space="preserve">of inferior</text>
      <path fill="none" d="M1534 -158.9438 L1534 -35.5 L1535.7458 -26.2106 L1540.9834 -18.3423 L1587.0896 28.9148" clip-path="url(#clipPath2)" stroke="black"/>
      <path fill="black" d="M1592.6763 34.641 L1587.8751 22.56 L1586.3912 28.199 L1580.7174 29.5434 Z" clip-path="url(#clipPath2)" stroke="none"/>
      <text x="1494.1023" y="7.1939" clip-path="url(#clipPath2)" fill="black" font-family="'Noto Sans'" stroke="none" xml:space="preserve">superiors</text>
      <path fill="none" d="M2116.2764 22.8349 L2116.2764 -150.9438" clip-path="url(#clipPath2)" stroke="black"/>
      <path fill="black" d="M2116.2764 -158.9438 L2111.2764 -146.9438 L2116.2764 -149.9438 L2121.2764 -146.9438 Z" clip-path="url(#clipPath2)" stroke="none"/>
      <text x="2073.5635" y="7.8798" clip-path="url(#clipPath2)" fill="black" font-family="sans-serif" stroke="none" xml:space="preserve">during</text>
      <path fill="none" d="M2116.2764 -188.9438 L2116.2764 -261.0151" clip-path="url(#clipPath2)" stroke="black"/>
      <path fill="black" d="M2116.2764 -269.0151 L2111.2764 -257.0151 L2116.2764 -260.0151 L2121.2764 -257.0151 Z" clip-path="url(#clipPath2)" stroke="none"/>
      <text x="2046.9852" y="-245.7515" clip-path="url(#clipPath2)" fill="black" font-family="sans-serif" stroke="none" xml:space="preserve">transforms</text>
      <path fill="none" d="M1711.2 -327.6863 L1863.619 -327.6863" clip-path="url(#clipPath2)" stroke="black"/>
      <path fill="black" d="M1871.619 -327.6863 L1859.619 -332.6863 L1862.619 -327.6863 L1859.619 -322.6863 Z" clip-path="url(#clipPath2)" stroke="none"/>
      <text x="1723.325" y="-334.5164" clip-path="url(#clipPath2)" fill="black" font-family="sans-serif" stroke="none" xml:space="preserve">during</text>
      <path fill="none" d="M1941.619 -327.6863 L2035.4763 -327.6863" clip-path="url(#clipPath2)" stroke="black"/>
      <path fill="black" d="M2043.4763 -327.6863 L2031.4763 -332.6863 L2034.4763 -327.6863 L2031.4763 -322.6863 Z" clip-path="url(#clipPath2)" stroke="none"/>
      <text x="1977.7087" y="-334.5164" clip-path="url(#clipPath2)" fill="black" font-family="sans-serif" stroke="none" xml:space="preserve">transfers</text>
      <path fill="none" d="M1095.2382 -657.9483 L1523.8164 -657.9483" clip-path="url(#clipPath2)" stroke="black"/>
      <path fill="black" d="M1531.8164 -657.9483 L1519.8164 -662.9483 L1522.8164 -657.9483 L1519.8164 -652.9483 Z" clip-path="url(#clipPath2)" stroke="none"/>
      <text x="1107.3632" y="-665.4643" clip-path="url(#clipPath2)" fill="black" font-family="'Noto Sans'" stroke="none" xml:space="preserve">uri of reference note</text>
      <path fill="none" d="M1638.4 140.1773 L1638.4 304.3279" clip-path="url(#clipPath2)" stroke="black"/>
      <path fill="black" d="M1638.4 312.3279 L1643.4 300.3279 L1638.4 303.3279 L1633.4 300.3279 Z" clip-path="url(#clipPath2)" stroke="none"/>
      <text x="1642.4" y="165.1304" clip-path="url(#clipPath2)" fill="black" font-family="'Noto Sans'" stroke="none" xml:space="preserve">uri of region</text>
    </g>
  </g>
</svg>
