<?xml version="1.0" encoding="UTF-8"?><svg xmlns="http://www.w3.org/2000/svg" xmlns:xlink="http://www.w3.org/1999/xlink" fill-opacity="1" color-rendering="auto" color-interpolation="auto" text-rendering="auto" stroke="black" stroke-linecap="square" width="1578" stroke-miterlimit="10" shape-rendering="auto" stroke-opacity="1" fill="black" stroke-dasharray="none" font-weight="normal" stroke-width="1" height="1116" font-family="'Dialog'" font-style="normal" stroke-linejoin="miter" font-size="12px" stroke-dashoffset="0" image-rendering="auto">
  <!--Generated by ySVG 2.5-->
  <defs id="genericDefs"/>
  <g>
    <defs id="defs1">
      <clipPath clipPathUnits="userSpaceOnUse" id="clipPath1">
        <path d="M0 0 L1578 0 L1578 1116 L0 1116 L0 0 Z"/>
      </clipPath>
      <clipPath clipPathUnits="userSpaceOnUse" id="clipPath2">
        <path d="M632 -741 L2210 -741 L2210 375 L632 375 L632 -741 Z"/>
      </clipPath>
    </defs>
    <g fill="white" text-rendering="geometricPrecision" shape-rendering="geometricPrecision" transform="translate(-632,741)" stroke="white">
      <rect x="632" width="1578" height="1116" y="-741" clip-path="url(#clipPath2)" stroke="none"/>
    </g>
    <g fill="rgb(245,245,245)" text-rendering="geometricPrecision" shape-rendering="geometricPrecision" transform="matrix(1,0,0,1,-632,741)" stroke="rgb(245,245,245)">
      <rect x="637.2381" y="-735.6496" clip-path="url(#clipPath2)" width="814.8809" rx="4" ry="4" height="279.862" stroke="none"/>
      <rect x="637.2381" y="-735.6496" clip-path="url(#clipPath2)" fill="rgb(235,235,235)" width="814.8809" height="24.4301" stroke="none"/>
    </g>
    <g font-size="15px" stroke-linecap="butt" transform="matrix(1,0,0,1,-632,741)" text-rendering="geometricPrecision" font-family="'Noto Sans'" shape-rendering="geometricPrecision" stroke-miterlimit="1.45">
      <text x="1394.4987" xml:space="preserve" y="-717.6145" clip-path="url(#clipPath2)" stroke="none">Sources</text>
    </g>
    <g stroke-linecap="butt" transform="matrix(1,0,0,1,-632,741)" fill="rgb(0,141,210)" text-rendering="geometricPrecision" shape-rendering="geometricPrecision" stroke-dasharray="6,2" stroke="rgb(0,141,210)" stroke-miterlimit="1.45">
      <rect x="637.2381" y="-735.6496" clip-path="url(#clipPath2)" fill="none" width="814.8809" rx="4" ry="4" height="279.862"/>
    </g>
    <g fill="rgb(255,247,228)" text-rendering="geometricPrecision" shape-rendering="geometricPrecision" transform="matrix(1,0,0,1,-632,741)" stroke="rgb(255,247,228)">
      <ellipse rx="76" ry="38.2712" clip-path="url(#clipPath2)" cx="1019.2381" cy="-657.9483" stroke="none"/>
    </g>
    <g stroke-linecap="butt" transform="matrix(1,0,0,1,-632,741)" fill="rgb(0,141,210)" text-rendering="geometricPrecision" shape-rendering="geometricPrecision" stroke="rgb(0,141,210)" stroke-miterlimit="1.45">
      <ellipse rx="76" fill="none" ry="38.2712" clip-path="url(#clipPath2)" cx="1019.2381" cy="-657.9483"/>
      <text x="987.6419" y="-669.6364" clip-path="url(#clipPath2)" fill="black" font-family="'Noto Sans'" stroke="none" xml:space="preserve">Citation</text>
      <text x="987.6419" y="-653.2922" clip-path="url(#clipPath2)" fill="black" font-family="'Noto Sans'" stroke="none" xml:space="preserve"> </text>
      <text x="987.6419" y="-636.9481" clip-path="url(#clipPath2)" fill="black" font-family="'Noto Sans'" stroke="none" xml:space="preserve">description</text>
    </g>
    <g fill="rgb(255,247,228)" text-rendering="geometricPrecision" shape-rendering="geometricPrecision" transform="matrix(1,0,0,1,-632,741)" stroke="rgb(255,247,228)">
      <rect x="1260.1191" width="70" height="30" y="-519.7877" clip-path="url(#clipPath2)" stroke="none"/>
    </g>
    <g stroke-linecap="butt" transform="matrix(1,0,0,1,-632,741)" fill="rgb(99,123,131)" text-rendering="geometricPrecision" shape-rendering="geometricPrecision" stroke="rgb(99,123,131)" stroke-miterlimit="1.45">
      <rect fill="none" x="1260.1191" width="70" height="30" y="-519.7877" clip-path="url(#clipPath2)"/>
      <text x="1279.3269" xml:space="preserve" y="-500.1316" clip-path="url(#clipPath2)" font-family="'Noto Sans'" stroke="none">CITES</text>
    </g>
    <g fill="rgb(255,247,228)" text-rendering="geometricPrecision" shape-rendering="geometricPrecision" transform="matrix(1,0,0,1,-632,741)" stroke="rgb(255,247,228)">
      <rect x="693.2381" width="70" height="30" y="-519.7877" clip-path="url(#clipPath2)" stroke="none"/>
    </g>
    <g stroke-linecap="butt" transform="matrix(1,0,0,1,-632,741)" fill="rgb(99,123,131)" text-rendering="geometricPrecision" shape-rendering="geometricPrecision" stroke="rgb(99,123,131)" stroke-miterlimit="1.45">
      <rect fill="none" x="693.2381" width="70" height="30" y="-519.7877" clip-path="url(#clipPath2)"/>
      <text x="712.446" xml:space="preserve" y="-500.1316" clip-path="url(#clipPath2)" font-family="'Noto Sans'" stroke="none">CITES</text>
      <path fill="none" d="M1268.1003 -519.7877 L1077.2928 -625.7181" clip-path="url(#clipPath2)" stroke="black"/>
      <path fill="black" d="M1070.2985 -629.6011 L1078.3632 -619.405 L1078.1671 -625.2327 L1083.217 -628.148 Z" clip-path="url(#clipPath2)" stroke="none"/>
      <text x="1049.136" y="-594.8614" clip-path="url(#clipPath2)" fill="black" font-family="'Noto Sans'" stroke="none" xml:space="preserve">personae</text>
      <path fill="none" d="M756.7376 -519.7877 L959.619 -626.5692" clip-path="url(#clipPath2)" stroke="black"/>
      <path fill="black" d="M966.6983 -630.2952 L953.7505 -629.1308 L958.7341 -626.1035 L958.4081 -620.2816 Z" clip-path="url(#clipPath2)" stroke="none"/>
      <text x="830.4597" y="-597.3168" clip-path="url(#clipPath2)" fill="black" font-family="'Noto Sans'" stroke="none" xml:space="preserve">matchings</text>
    </g>
    <g fill="rgb(245,245,245)" text-rendering="geometricPrecision" shape-rendering="geometricPrecision" transform="matrix(1,0,0,1,-632,741)" stroke="rgb(245,245,245)">
      <rect x="637.2381" y="-425.7877" clip-path="url(#clipPath2)" width="507" rx="4" ry="4" height="143.0192" stroke="none"/>
      <rect x="637.2381" y="-425.7877" clip-path="url(#clipPath2)" fill="rgb(235,235,235)" width="507" height="24.4301" stroke="none"/>
    </g>
    <g font-size="15px" stroke-linecap="butt" transform="matrix(1,0,0,1,-632,741)" text-rendering="geometricPrecision" font-family="'Noto Sans'" shape-rendering="geometricPrecision" stroke-miterlimit="1.45">
      <text x="1057.4875" xml:space="preserve" y="-407.7525" clip-path="url(#clipPath2)" stroke="none">Conclusions</text>
    </g>
    <g stroke-linecap="butt" transform="matrix(1,0,0,1,-632,741)" fill="rgb(212,57,130)" text-rendering="geometricPrecision" shape-rendering="geometricPrecision" stroke-dasharray="6,2" stroke="rgb(212,57,130)" stroke-miterlimit="1.45">
      <rect x="637.2381" y="-425.7877" clip-path="url(#clipPath2)" fill="none" width="507" rx="4" ry="4" height="143.0192"/>
    </g>
    <g fill="rgb(255,247,228)" text-rendering="geometricPrecision" shape-rendering="geometricPrecision" transform="matrix(1,0,0,1,-632,741)" stroke="rgb(255,247,228)">
      <rect x="962.2381" width="114" height="84" y="-382.6287" clip-path="url(#clipPath2)" stroke="none"/>
    </g>
    <g stroke-linecap="butt" transform="matrix(1,0,0,1,-632,741)" fill="rgb(99,123,131)" text-rendering="geometricPrecision" shape-rendering="geometricPrecision" stroke="rgb(99,123,131)" stroke-miterlimit="1.45">
      <rect fill="none" x="962.2381" width="114" height="84" y="-382.6287" clip-path="url(#clipPath2)"/>
      <text x="994.4819" xml:space="preserve" y="-368.6609" clip-path="url(#clipPath2)" font-family="'Noto Sans'" stroke="none">IS</text>
      <text x="994.4819" xml:space="preserve" y="-352.3168" clip-path="url(#clipPath2)" font-family="'Noto Sans'" stroke="none">Is</text>
      <text x="994.4819" xml:space="preserve" y="-335.9727" clip-path="url(#clipPath2)" font-family="'Noto Sans'" stroke="none"> </text>
      <text x="994.4819" xml:space="preserve" y="-319.6285" clip-path="url(#clipPath2)" font-family="'Noto Sans'" stroke="none">certainty</text>
      <text x="994.4819" xml:space="preserve" y="-303.2844" clip-path="url(#clipPath2)" font-family="'Noto Sans'" stroke="none">notes</text>
    </g>
    <g fill="rgb(255,247,228)" text-rendering="geometricPrecision" shape-rendering="geometricPrecision" transform="matrix(1,0,0,1,-632,741)" stroke="rgb(255,247,228)">
      <ellipse rx="76" ry="38.2712" clip-path="url(#clipPath2)" cx="728.2381" cy="-340.6287" stroke="none"/>
    </g>
    <g stroke-linecap="butt" transform="matrix(1,0,0,1,-632,741)" fill="rgb(212,57,130)" text-rendering="geometricPrecision" shape-rendering="geometricPrecision" stroke="rgb(212,57,130)" stroke-miterlimit="1.45">
      <ellipse rx="76" fill="none" ry="38.2712" clip-path="url(#clipPath2)" cx="728.2381" cy="-340.6287"/>
      <text x="699.744" y="-360.4888" clip-path="url(#clipPath2)" fill="black" font-family="'Noto Sans'" stroke="none" xml:space="preserve">Sameness</text>
      <text x="699.744" y="-344.1447" clip-path="url(#clipPath2)" fill="black" font-family="'Noto Sans'" stroke="none" xml:space="preserve"> </text>
      <text x="699.744" y="-327.8006" clip-path="url(#clipPath2)" fill="black" font-family="'Noto Sans'" stroke="none" xml:space="preserve">rationale</text>
      <text x="699.744" y="-311.4565" clip-path="url(#clipPath2)" fill="black" font-family="'Noto Sans'" stroke="none" xml:space="preserve">notes</text>
      <path fill="none" d="M728.2382 -378.8999 L728.2382 -481.7796" clip-path="url(#clipPath2)" stroke="black"/>
      <path fill="black" d="M728.2382 -489.7796 L723.2382 -477.7796 L728.2382 -480.7796 L733.2382 -477.7796 Z" clip-path="url(#clipPath2)" stroke="none"/>
      <text x="698.5339" y="-394.5409" clip-path="url(#clipPath2)" fill="black" font-family="'Noto Sans'" stroke="none" xml:space="preserve">cites</text>
      <path fill="none" d="M804.2382 -340.6287 L954.2382 -340.6287" clip-path="url(#clipPath2)" stroke="black"/>
      <path fill="black" d="M962.2382 -340.6287 L950.2382 -345.6287 L953.2382 -340.6287 L950.2382 -335.6287 Z" clip-path="url(#clipPath2)" stroke="none"/>
      <text x="816.3632" y="-348.1447" clip-path="url(#clipPath2)" fill="black" font-family="'Noto Sans'" stroke="none" xml:space="preserve">are</text>
      <text x="889.9432" y="-347.4588" clip-path="url(#clipPath2)" fill="black" font-family="sans-serif" stroke="none" xml:space="preserve">sameness</text>
    </g>
    <g fill="rgb(245,245,245)" text-rendering="geometricPrecision" shape-rendering="geometricPrecision" transform="matrix(1,0,0,1,-632,741)" stroke="rgb(245,245,245)">
      <rect x="1172.1191" y="-425.7877" clip-path="url(#clipPath2)" width="280" rx="4" ry="4" height="643.5649" stroke="none"/>
      <rect x="1172.1191" y="-425.7877" clip-path="url(#clipPath2)" fill="rgb(235,235,235)" width="280" height="24.4301" stroke="none"/>
    </g>
    <g font-size="15px" stroke-linecap="butt" transform="matrix(1,0,0,1,-632,741)" text-rendering="geometricPrecision" font-family="'Noto Sans'" shape-rendering="geometricPrecision" stroke-miterlimit="1.45">
      <text x="1371.8036" xml:space="preserve" y="-407.7525" clip-path="url(#clipPath2)" stroke="none">Extractions</text>
    </g>
    <g stroke-linecap="butt" transform="matrix(1,0,0,1,-632,741)" fill="rgb(188,136,1)" text-rendering="geometricPrecision" shape-rendering="geometricPrecision" stroke-dasharray="6,2" stroke="rgb(188,136,1)" stroke-miterlimit="1.45">
      <rect x="1172.1191" y="-425.7877" clip-path="url(#clipPath2)" fill="none" width="280" rx="4" ry="4" height="643.5649"/>
    </g>
    <g fill="rgb(255,247,228)" text-rendering="geometricPrecision" shape-rendering="geometricPrecision" transform="matrix(1,0,0,1,-632,741)" stroke="rgb(255,247,228)">
      <ellipse rx="76" ry="38.2712" clip-path="url(#clipPath2)" cx="1295.1191" cy="-340.6287" stroke="none"/>
    </g>
    <g stroke-linecap="butt" transform="matrix(1,0,0,1,-632,741)" fill="rgb(188,136,1)" text-rendering="geometricPrecision" shape-rendering="geometricPrecision" stroke="rgb(188,136,1)" stroke-miterlimit="1.45">
      <ellipse rx="76" fill="none" ry="38.2712" clip-path="url(#clipPath2)" cx="1295.1191" cy="-340.6287"/>
      <text x="1263.5228" y="-360.4888" clip-path="url(#clipPath2)" fill="black" font-family="'Noto Sans'" stroke="none" xml:space="preserve">Persona</text>
      <text x="1263.5228" y="-344.1447" clip-path="url(#clipPath2)" fill="black" font-family="'Noto Sans'" stroke="none" xml:space="preserve"> </text>
      <text x="1263.5228" y="-327.8006" clip-path="url(#clipPath2)" fill="black" font-family="'Noto Sans'" stroke="none" xml:space="preserve">description</text>
      <text x="1263.5228" y="-311.4565" clip-path="url(#clipPath2)" fill="black" font-family="'Noto Sans'" stroke="none" xml:space="preserve">notes</text>
    </g>
    <g fill="rgb(255,247,228)" text-rendering="geometricPrecision" shape-rendering="geometricPrecision" transform="matrix(1,0,0,1,-632,741)" stroke="rgb(255,247,228)">
      <rect x="1238.1191" width="114" height="108.2712" y="-218.9257" clip-path="url(#clipPath2)" stroke="none"/>
    </g>
    <g stroke-linecap="butt" transform="matrix(1,0,0,1,-632,741)" fill="rgb(99,123,131)" text-rendering="geometricPrecision" shape-rendering="geometricPrecision" stroke="rgb(99,123,131)" stroke-miterlimit="1.45">
      <rect fill="none" x="1238.1191" width="114" height="108.2712" y="-218.9257" clip-path="url(#clipPath2)"/>
      <text x="1255.6388" xml:space="preserve" y="-200.9944" clip-path="url(#clipPath2)" font-family="'Noto Sans'" stroke="none">HAD_ROLE_IN</text>
      <text x="1255.6388" xml:space="preserve" y="-184.6503" clip-path="url(#clipPath2)" font-family="'Noto Sans'" stroke="none">Role</text>
      <text x="1255.6388" xml:space="preserve" y="-168.3061" clip-path="url(#clipPath2)" font-family="'Noto Sans'" stroke="none"> </text>
      <text x="1255.6388" xml:space="preserve" y="-151.962" clip-path="url(#clipPath2)" font-family="'Noto Sans'" stroke="none">description</text>
      <text x="1255.6388" xml:space="preserve" y="-135.6179" clip-path="url(#clipPath2)" font-family="'Noto Sans'" stroke="none">certainty</text>
      <text x="1255.6388" xml:space="preserve" y="-119.2738" clip-path="url(#clipPath2)" font-family="'Noto Sans'" stroke="none">notes</text>
    </g>
    <g fill="rgb(255,247,228)" text-rendering="geometricPrecision" shape-rendering="geometricPrecision" transform="matrix(1,0,0,1,-632,741)" stroke="rgb(255,247,228)">
      <ellipse rx="101" ry="98.2712" clip-path="url(#clipPath2)" cx="1295.1191" cy="81.5061" stroke="none"/>
    </g>
    <g stroke-linecap="butt" transform="matrix(1,0,0,1,-632,741)" fill="rgb(188,136,1)" text-rendering="geometricPrecision" shape-rendering="geometricPrecision" stroke="rgb(188,136,1)" stroke-miterlimit="1.45">
      <ellipse rx="101" fill="none" ry="98.2712" clip-path="url(#clipPath2)" cx="1295.1191" cy="81.5061"/>
      <text x="1246.6807" y="28.9577" clip-path="url(#clipPath2)" fill="black" font-family="'Noto Sans'" stroke="none" xml:space="preserve">Event</text>
      <text x="1246.6807" y="45.3019" clip-path="url(#clipPath2)" fill="black" font-family="'Noto Sans'" stroke="none" xml:space="preserve"> </text>
      <text x="1246.6807" y="61.646" clip-path="url(#clipPath2)" fill="black" font-family="'Noto Sans'" stroke="none" xml:space="preserve">date happened</text>
      <text x="1246.6807" y="77.9901" clip-path="url(#clipPath2)" fill="black" font-family="'Noto Sans'" stroke="none" xml:space="preserve">certainty of date</text>
      <text x="1246.6807" y="94.3342" clip-path="url(#clipPath2)" fill="black" font-family="'Noto Sans'" stroke="none" xml:space="preserve">certainty of place</text>
      <text x="1246.6807" y="110.6783" clip-path="url(#clipPath2)" fill="black" font-family="'Noto Sans'" stroke="none" xml:space="preserve">type</text>
      <text x="1246.6807" y="127.0224" clip-path="url(#clipPath2)" fill="black" font-family="'Noto Sans'" stroke="none" xml:space="preserve">description</text>
      <text x="1246.6807" y="143.3665" clip-path="url(#clipPath2)" fill="black" font-family="'Noto Sans'" stroke="none" xml:space="preserve">notes</text>
      <path fill="none" d="M1076.2382 -340.6287 L1211.119 -340.6287" clip-path="url(#clipPath2)" stroke="black"/>
      <path fill="black" d="M1219.119 -340.6287 L1207.119 -345.6287 L1210.119 -340.6287 L1207.119 -335.6287 Z" clip-path="url(#clipPath2)" stroke="none"/>
      <text x="1088.3632" y="-348.1447" clip-path="url(#clipPath2)" fill="black" font-family="'Noto Sans'" stroke="none" xml:space="preserve">persona</text>
      <text x="1177.0995" y="-347.4588" clip-path="url(#clipPath2)" fill="black" font-family="sans-serif" stroke="none" xml:space="preserve">xrefs</text>
      <path fill="none" d="M1295.119 -378.8999 L1295.119 -481.7586" clip-path="url(#clipPath2)" stroke="black"/>
      <path fill="black" d="M1295.119 -489.7586 L1290.119 -477.7586 L1295.119 -480.7586 L1300.119 -477.7586 Z" clip-path="url(#clipPath2)" stroke="none"/>
      <text x="1262.8475" y="-393.8549" clip-path="url(#clipPath2)" fill="black" font-family="sans-serif" stroke="none" xml:space="preserve">cites</text>
      <path fill="none" d="M1295.119 -302.3575 L1295.119 -226.9257" clip-path="url(#clipPath2)" stroke="black"/>
      <path fill="black" d="M1295.119 -218.9257 L1300.119 -230.9257 L1295.119 -227.9257 L1290.119 -230.9257 Z" clip-path="url(#clipPath2)" stroke="none"/>
      <text x="1227.7706" y="-277.4044" clip-path="url(#clipPath2)" fill="black" font-family="'Noto Sans'" stroke="none" xml:space="preserve">hadRolesIn</text>
      <text x="1242.6327" y="-233.8808" clip-path="url(#clipPath2)" fill="black" font-family="sans-serif" stroke="none" xml:space="preserve">persona</text>
      <path fill="none" d="M1295.119 -110.6545 L1295.119 -24.7651" clip-path="url(#clipPath2)" stroke="black"/>
      <path fill="black" d="M1295.119 -16.7651 L1300.119 -28.7651 L1295.119 -25.7651 L1290.119 -28.7651 Z" clip-path="url(#clipPath2)" stroke="none"/>
      <text x="1259.7389" y="-85.7014" clip-path="url(#clipPath2)" fill="black" font-family="'Noto Sans'" stroke="none" xml:space="preserve">event</text>
      <text x="1247.1444" y="-31.7202" clip-path="url(#clipPath2)" fill="black" font-family="sans-serif" stroke="none" xml:space="preserve">players</text>
    </g>
    <g fill="rgb(245,245,245)" text-rendering="geometricPrecision" shape-rendering="geometricPrecision" transform="matrix(1,0,0,1,-632,741)" stroke="rgb(245,245,245)">
      <rect x="1484" y="-425.7877" clip-path="url(#clipPath2)" width="720.0763" rx="4" ry="4" height="643.5649" stroke="none"/>
      <rect x="1484" y="-425.7877" clip-path="url(#clipPath2)" fill="rgb(235,235,235)" width="720.0763" height="24.4301" stroke="none"/>
    </g>
    <g font-size="15px" stroke-linecap="butt" transform="matrix(1,0,0,1,-632,741)" text-rendering="geometricPrecision" font-family="'Noto Sans'" shape-rendering="geometricPrecision" stroke-miterlimit="1.45">
      <text x="2157.8711" xml:space="preserve" y="-407.7525" clip-path="url(#clipPath2)" stroke="none">Places</text>
    </g>
    <g stroke-linecap="butt" transform="matrix(1,0,0,1,-632,741)" fill="rgb(141,153,0)" text-rendering="geometricPrecision" shape-rendering="geometricPrecision" stroke-dasharray="6,2" stroke="rgb(141,153,0)" stroke-miterlimit="1.45">
      <rect x="1484" y="-425.7877" clip-path="url(#clipPath2)" fill="none" width="720.0763" rx="4" ry="4" height="643.5649"/>
    </g>
    <g fill="rgb(255,247,228)" text-rendering="geometricPrecision" shape-rendering="geometricPrecision" transform="matrix(1,0,0,1,-632,741)" stroke="rgb(255,247,228)">
      <ellipse rx="76" ry="58.6712" clip-path="url(#clipPath2)" cx="1638.4" cy="81.5061" stroke="none"/>
    </g>
    <g stroke-linecap="butt" transform="matrix(1,0,0,1,-632,741)" fill="rgb(141,153,0)" text-rendering="geometricPrecision" shape-rendering="geometricPrecision" stroke="rgb(141,153,0)" stroke-miterlimit="1.45">
      <ellipse rx="76" fill="none" ry="58.6712" clip-path="url(#clipPath2)" cx="1638.4" cy="81.5061"/>
      <text x="1584.6757" y="53.4739" clip-path="url(#clipPath2)" fill="black" font-family="'Noto Sans'" stroke="none" xml:space="preserve">Place</text>
      <text x="1584.6757" y="69.818" clip-path="url(#clipPath2)" fill="black" font-family="'Noto Sans'" stroke="none" xml:space="preserve"> </text>
      <text x="1584.6757" y="86.1621" clip-path="url(#clipPath2)" fill="black" font-family="'Noto Sans'" stroke="none" xml:space="preserve">name</text>
      <text x="1584.6757" y="102.5062" clip-path="url(#clipPath2)" fill="black" font-family="'Noto Sans'" stroke="none" xml:space="preserve">pluscode of vicinity</text>
      <text x="1584.6757" y="118.8504" clip-path="url(#clipPath2)" fill="black" font-family="'Noto Sans'" stroke="none" xml:space="preserve">notes</text>
    </g>
    <g fill="rgb(255,247,228)" text-rendering="geometricPrecision" shape-rendering="geometricPrecision" transform="matrix(1,0,0,1,-632,741)" stroke="rgb(255,247,228)">
      <ellipse rx="72.8" ry="58.6712" clip-path="url(#clipPath2)" cx="1638.4" cy="-327.6863" stroke="none"/>
    </g>
    <g stroke-linecap="butt" transform="matrix(1,0,0,1,-632,741)" fill="rgb(141,153,0)" text-rendering="geometricPrecision" shape-rendering="geometricPrecision" stroke="rgb(141,153,0)" stroke-miterlimit="1.45">
      <ellipse rx="72.8" fill="none" ry="58.6712" clip-path="url(#clipPath2)" cx="1638.4" cy="-327.6863"/>
      <text x="1614.7118" y="-323.0303" clip-path="url(#clipPath2)" fill="black" font-family="'Noto Sans'" stroke="none" xml:space="preserve">Transfer</text>
    </g>
    <g fill="rgb(255,247,228)" text-rendering="geometricPrecision" shape-rendering="geometricPrecision" transform="matrix(1,0,0,1,-632,741)" stroke="rgb(255,247,228)">
      <ellipse rx="72.8" ry="58.6712" clip-path="url(#clipPath2)" cx="2116.2763" cy="81.5061" stroke="none"/>
    </g>
    <g stroke-linecap="butt" transform="matrix(1,0,0,1,-632,741)" fill="rgb(141,153,0)" text-rendering="geometricPrecision" shape-rendering="geometricPrecision" stroke="rgb(141,153,0)" stroke-miterlimit="1.45">
      <ellipse rx="72.8" fill="none" ry="58.6712" clip-path="url(#clipPath2)" cx="2116.2763" cy="81.5061"/>
      <text x="2086.7319" y="86.1621" clip-path="url(#clipPath2)" fill="black" font-family="'Noto Sans'" stroke="none" xml:space="preserve">Transform</text>
    </g>
    <g fill="rgb(255,247,228)" text-rendering="geometricPrecision" shape-rendering="geometricPrecision" transform="matrix(1,0,0,1,-632,741)" stroke="rgb(255,247,228)">
      <rect x="1871.6191" width="70" height="30" y="22.8349" clip-path="url(#clipPath2)" stroke="none"/>
    </g>
    <g stroke-linecap="butt" transform="matrix(1,0,0,1,-632,741)" fill="rgb(99,123,131)" text-rendering="geometricPrecision" shape-rendering="geometricPrecision" stroke="rgb(99,123,131)" stroke-miterlimit="1.45">
      <rect fill="none" x="1871.6191" width="70" height="30" y="22.8349" clip-path="url(#clipPath2)"/>
      <text x="1889.6449" xml:space="preserve" y="42.491" clip-path="url(#clipPath2)" font-family="'Noto Sans'" stroke="none">FROM</text>
    </g>
    <g fill="rgb(255,247,228)" text-rendering="geometricPrecision" shape-rendering="geometricPrecision" transform="matrix(1,0,0,1,-632,741)" stroke="rgb(255,247,228)">
      <rect x="1687.4" width="70" height="30" y="-188.9438" clip-path="url(#clipPath2)" stroke="none"/>
    </g>
    <g stroke-linecap="butt" transform="matrix(1,0,0,1,-632,741)" fill="rgb(99,123,131)" text-rendering="geometricPrecision" shape-rendering="geometricPrecision" stroke="rgb(99,123,131)" stroke-miterlimit="1.45">
      <rect fill="none" x="1687.4" width="70" height="30" y="-188.9438" clip-path="url(#clipPath2)"/>
      <text x="1705.4259" xml:space="preserve" y="-169.2878" clip-path="url(#clipPath2)" font-family="'Noto Sans'" stroke="none">FROM</text>
    </g>
    <g fill="rgb(255,247,228)" text-rendering="geometricPrecision" shape-rendering="geometricPrecision" transform="matrix(1,0,0,1,-632,741)" stroke="rgb(255,247,228)">
      <rect x="1871.6191" width="70" height="30" y="110.1773" clip-path="url(#clipPath2)" stroke="none"/>
    </g>
    <g stroke-linecap="butt" transform="matrix(1,0,0,1,-632,741)" fill="rgb(99,123,131)" text-rendering="geometricPrecision" shape-rendering="geometricPrecision" stroke="rgb(99,123,131)" stroke-miterlimit="1.45">
      <rect fill="none" x="1871.6191" width="70" height="30" y="110.1773" clip-path="url(#clipPath2)"/>
      <text x="1898.597" xml:space="preserve" y="129.8333" clip-path="url(#clipPath2)" font-family="'Noto Sans'" stroke="none">TO</text>
    </g>
    <g fill="rgb(255,247,228)" text-rendering="geometricPrecision" shape-rendering="geometricPrecision" transform="matrix(1,0,0,1,-632,741)" stroke="rgb(255,247,228)">
      <rect x="1768.2" width="70" height="30" y="-188.9438" clip-path="url(#clipPath2)" stroke="none"/>
    </g>
    <g stroke-linecap="butt" transform="matrix(1,0,0,1,-632,741)" fill="rgb(99,123,131)" text-rendering="geometricPrecision" shape-rendering="geometricPrecision" stroke="rgb(99,123,131)" stroke-miterlimit="1.45">
      <rect fill="none" x="1768.2" width="70" height="30" y="-188.9438" clip-path="url(#clipPath2)"/>
      <text x="1795.178" xml:space="preserve" y="-169.2878" clip-path="url(#clipPath2)" font-family="'Noto Sans'" stroke="none">TO</text>
    </g>
    <g fill="rgb(255,247,228)" text-rendering="geometricPrecision" shape-rendering="geometricPrecision" transform="matrix(1,0,0,1,-632,741)" stroke="rgb(255,247,228)">
      <rect x="1499" width="70" height="30" y="-188.9438" clip-path="url(#clipPath2)" stroke="none"/>
    </g>
    <g stroke-linecap="butt" transform="matrix(1,0,0,1,-632,741)" fill="rgb(99,123,131)" text-rendering="geometricPrecision" shape-rendering="geometricPrecision" stroke="rgb(99,123,131)" stroke-miterlimit="1.45">
      <rect fill="none" x="1499" width="70" height="30" y="-188.9438" clip-path="url(#clipPath2)"/>
      <text x="1526.2" xml:space="preserve" y="-169.2878" clip-path="url(#clipPath2)" font-family="'Noto Sans'" stroke="none">OF</text>
    </g>
    <g fill="rgb(255,247,228)" text-rendering="geometricPrecision" shape-rendering="geometricPrecision" transform="matrix(1,0,0,1,-632,741)" stroke="rgb(255,247,228)">
      <ellipse rx="72.8" ry="58.6712" clip-path="url(#clipPath2)" cx="2116.2763" cy="-327.6863" stroke="none"/>
    </g>
    <g stroke-linecap="butt" transform="matrix(1,0,0,1,-632,741)" fill="rgb(141,153,0)" text-rendering="geometricPrecision" shape-rendering="geometricPrecision" stroke="rgb(141,153,0)" stroke-miterlimit="1.45">
      <ellipse rx="72.8" fill="none" ry="58.6712" clip-path="url(#clipPath2)" cx="2116.2763" cy="-327.6863"/>
      <text x="2073.49" y="-347.5465" clip-path="url(#clipPath2)" fill="black" font-family="'Noto Sans'" stroke="none" xml:space="preserve">PlaceChange</text>
      <text x="2073.49" y="-331.2024" clip-path="url(#clipPath2)" fill="black" font-family="'Noto Sans'" stroke="none" xml:space="preserve"> </text>
      <text x="2073.49" y="-314.8582" clip-path="url(#clipPath2)" fill="black" font-family="'Noto Sans'" stroke="none" xml:space="preserve">date happened</text>
      <text x="2073.49" y="-298.5141" clip-path="url(#clipPath2)" fill="black" font-family="'Noto Sans'" stroke="none" xml:space="preserve">notes</text>
    </g>
    <g fill="rgb(255,247,228)" text-rendering="geometricPrecision" shape-rendering="geometricPrecision" transform="matrix(1,0,0,1,-632,741)" stroke="rgb(255,247,228)">
      <rect x="2081.2763" width="70" height="30" y="-188.9438" clip-path="url(#clipPath2)" stroke="none"/>
    </g>
    <g stroke-linecap="butt" transform="matrix(1,0,0,1,-632,741)" fill="rgb(99,123,131)" text-rendering="geometricPrecision" shape-rendering="geometricPrecision" stroke="rgb(99,123,131)" stroke-miterlimit="1.45">
      <rect fill="none" x="2081.2763" width="70" height="30" y="-188.9438" clip-path="url(#clipPath2)"/>
      <text x="2092.8162" xml:space="preserve" y="-169.2878" clip-path="url(#clipPath2)" font-family="'Noto Sans'" stroke="none">DURING</text>
    </g>
    <g fill="rgb(255,247,228)" text-rendering="geometricPrecision" shape-rendering="geometricPrecision" transform="matrix(1,0,0,1,-632,741)" stroke="rgb(255,247,228)">
      <rect x="1871.6191" width="70" height="30" y="-342.6863" clip-path="url(#clipPath2)" stroke="none"/>
    </g>
    <g stroke-linecap="butt" transform="matrix(1,0,0,1,-632,741)" fill="rgb(99,123,131)" text-rendering="geometricPrecision" shape-rendering="geometricPrecision" stroke="rgb(99,123,131)" stroke-miterlimit="1.45">
      <rect fill="none" x="1871.6191" width="70" height="30" y="-342.6863" clip-path="url(#clipPath2)"/>
      <text x="1883.1589" xml:space="preserve" y="-323.0303" clip-path="url(#clipPath2)" font-family="'Noto Sans'" stroke="none">DURING</text>
    </g>
    <g fill="rgb(255,247,228)" text-rendering="geometricPrecision" shape-rendering="geometricPrecision" transform="matrix(1,0,0,1,-632,741)" stroke="rgb(255,247,228)">
      <path d="M1531.8 -657.9482 L1553.12 -672.9482 L1723.6801 -672.9482 L1745 -657.9482 L1723.6801 -642.9482 L1553.12 -642.9482 Z" fill-rule="evenodd" clip-path="url(#clipPath2)" stroke="none"/>
    </g>
    <g stroke-linecap="butt" transform="matrix(1,0,0,1,-632,741)" fill="rgb(99,123,131)" text-rendering="geometricPrecision" shape-rendering="geometricPrecision" stroke="rgb(99,123,131)" stroke-miterlimit="1.45">
      <path fill="none" d="M1531.8 -657.9482 L1553.12 -672.9482 L1723.6801 -672.9482 L1745 -657.9482 L1723.6801 -642.9482 L1553.12 -642.9482 Z" fill-rule="evenodd" clip-path="url(#clipPath2)"/>
      <text x="1562.9015" xml:space="preserve" y="-653.2922" clip-path="url(#clipPath2)" font-family="'Noto Sans'" stroke="none">source information system</text>
    </g>
    <g fill="rgb(255,247,228)" text-rendering="geometricPrecision" shape-rendering="geometricPrecision" transform="matrix(1,0,0,1,-632,741)" stroke="rgb(255,247,228)">
      <path d="M1531.8 354.3311 L1553.12 339.3311 L1723.6801 339.3311 L1745 354.3311 L1723.6801 369.3311 L1553.12 369.3311 Z" fill-rule="evenodd" clip-path="url(#clipPath2)" stroke="none"/>
    </g>
    <g stroke-linecap="butt" transform="matrix(1,0,0,1,-632,741)" fill="rgb(99,123,131)" text-rendering="geometricPrecision" shape-rendering="geometricPrecision" stroke="rgb(99,123,131)" stroke-miterlimit="1.45">
      <path fill="none" d="M1531.8 354.3311 L1553.12 339.3311 L1723.6801 339.3311 L1745 354.3311 L1723.6801 369.3311 L1553.12 369.3311 Z" fill-rule="evenodd" clip-path="url(#clipPath2)"/>
      <text x="1549.7914" xml:space="preserve" y="358.9872" clip-path="url(#clipPath2)" font-family="'Noto Sans'" stroke="none">geographic information system</text>
      <path fill="none" d="M1396.119 81.5061 L1554.4 81.5061" clip-path="url(#clipPath2)" stroke="black"/>
      <path fill="black" d="M1562.4 81.5061 L1550.4 76.5061 L1553.4 81.5061 L1550.4 86.5061 Z" clip-path="url(#clipPath2)" stroke="none"/>
      <text x="1408.244" y="73.9901" clip-path="url(#clipPath2)" fill="black" font-family="'Noto Sans'" stroke="none" xml:space="preserve">place</text>
      <path fill="none" d="M2045.7924 66.8245 L1949.4509 46.7567" clip-path="url(#clipPath2)" stroke="black"/>
      <path fill="black" d="M1941.619 45.1254 L1952.3473 52.4673 L1950.4299 46.9606 L1954.3865 42.6775 Z" clip-path="url(#clipPath2)" stroke="none"/>
      <text x="2003.7871" y="50.1422" clip-path="url(#clipPath2)" fill="black" font-family="'Noto Sans'" stroke="none" xml:space="preserve">from</text>
      <path fill="none" d="M1871.619 43.5336 L1720.66 68.1126" clip-path="url(#clipPath2)" stroke="black"/>
      <path fill="black" d="M1712.764 69.3982 L1725.4116 72.4048 L1721.6471 67.9519 L1723.8046 62.5348 Z" clip-path="url(#clipPath2)" stroke="none"/>
      <text x="1726.525" y="84.3114" clip-path="url(#clipPath2)" fill="black" font-family="'Noto Sans'" stroke="none" xml:space="preserve">destruction</text>
      <path fill="none" d="M1667.7378 -273.9903 L1710.3688 -195.9643" clip-path="url(#clipPath2)" stroke="black"/>
      <path fill="black" d="M1714.2045 -188.9438 L1712.8387 -201.8719 L1709.8893 -196.8419 L1704.0631 -197.0772 Z" clip-path="url(#clipPath2)" stroke="none"/>
      <text x="1593.7235" y="-244.062" clip-path="url(#clipPath2)" fill="black" font-family="'Noto Sans'" stroke="none" xml:space="preserve">from superior</text>
      <path fill="none" d="M1717.4675 -158.9438 L1659.5989 17.039" clip-path="url(#clipPath2)" stroke="black"/>
      <path fill="black" d="M1657.0999 24.6386 L1665.5981 14.801 L1659.9113 16.089 L1656.0986 11.6773 Z" clip-path="url(#clipPath2)" stroke="none"/>
      <text x="1622.6541" y="7.1939" clip-path="url(#clipPath2)" fill="black" font-family="'Noto Sans'" stroke="none" xml:space="preserve">losses</text>
      <path fill="none" d="M2045.7924 96.1878 L1949.4509 116.2555" clip-path="url(#clipPath2)" stroke="black"/>
      <path fill="black" d="M1941.619 117.8869 L1954.3865 120.3347 L1950.4299 116.0516 L1952.3473 110.5449 Z" clip-path="url(#clipPath2)" stroke="none"/>
      <text x="2019.7592" y="91.2632" clip-path="url(#clipPath2)" fill="black" font-family="'Noto Sans'" stroke="none" xml:space="preserve">to</text>
      <path fill="none" d="M1871.619 119.4786 L1720.66 94.8996" clip-path="url(#clipPath2)" stroke="black"/>
      <path fill="black" d="M1712.764 93.614 L1723.8046 100.4774 L1721.6471 95.0603 L1725.4116 90.6074 Z" clip-path="url(#clipPath2)" stroke="none"/>
      <text x="1726.525" y="124.5281" clip-path="url(#clipPath2)" fill="black" font-family="'Noto Sans'" stroke="none" xml:space="preserve">construction</text>
      <path fill="none" d="M1685.9915 -283.2881 L1781.2715 -194.401" clip-path="url(#clipPath2)" stroke="black"/>
      <path fill="black" d="M1787.1212 -188.9438 L1781.7573 -200.7857 L1780.5403 -195.0832 L1774.9359 -193.4736 Z" clip-path="url(#clipPath2)" stroke="none"/>
      <text x="1737.9514" y="-244.062" clip-path="url(#clipPath2)" fill="black" font-family="'Noto Sans'" stroke="none" xml:space="preserve">to superior</text>
      <path fill="none" d="M1793.5229 -158.9438 L1676.6183 22.2654" clip-path="url(#clipPath2)" stroke="black"/>
      <path fill="black" d="M1672.2814 28.9878 L1682.9883 21.6148 L1677.1604 21.4251 L1674.5852 16.1936 Z" clip-path="url(#clipPath2)" stroke="none"/>
      <text x="1699.9076" y="7.1939" clip-path="url(#clipPath2)" fill="black" font-family="'Noto Sans'" stroke="none" xml:space="preserve">gains</text>
      <path fill="none" d="M1603.4503 -276.2184 L1548.6801 -195.5621" clip-path="url(#clipPath2)" stroke="black"/>
      <path fill="black" d="M1544.1859 -188.9438 L1555.0636 -196.0625 L1549.2418 -196.3894 L1546.7906 -201.6802 Z" clip-path="url(#clipPath2)" stroke="none"/>
      <text x="1517.6842" y="-244.062" clip-path="url(#clipPath2)" fill="black" font-family="'Noto Sans'" stroke="none" xml:space="preserve">of inferior</text>
      <path fill="none" d="M1540.1304 -158.9438 L1612.5062 18.1483" clip-path="url(#clipPath2)" stroke="black"/>
      <path fill="black" d="M1615.5328 25.5537 L1615.6213 12.554 L1612.1279 17.2226 L1606.3646 16.3372 Z" clip-path="url(#clipPath2)" stroke="none"/>
      <text x="1544.6407" y="7.1939" clip-path="url(#clipPath2)" fill="black" font-family="'Noto Sans'" stroke="none" xml:space="preserve">superiors</text>
      <path fill="none" d="M2116.2764 22.8349 L2116.2764 -150.9438" clip-path="url(#clipPath2)" stroke="black"/>
      <path fill="black" d="M2116.2764 -158.9438 L2111.2764 -146.9438 L2116.2764 -149.9438 L2121.2764 -146.9438 Z" clip-path="url(#clipPath2)" stroke="none"/>
      <text x="2073.5635" y="7.8798" clip-path="url(#clipPath2)" fill="black" font-family="sans-serif" stroke="none" xml:space="preserve">during</text>
      <path fill="none" d="M2116.2764 -188.9438 L2116.2764 -261.0151" clip-path="url(#clipPath2)" stroke="black"/>
      <path fill="black" d="M2116.2764 -269.0151 L2111.2764 -257.0151 L2116.2764 -260.0151 L2121.2764 -257.0151 Z" clip-path="url(#clipPath2)" stroke="none"/>
      <text x="2046.9852" y="-245.7515" clip-path="url(#clipPath2)" fill="black" font-family="sans-serif" stroke="none" xml:space="preserve">transforms</text>
      <path fill="none" d="M1711.2 -327.6863 L1863.619 -327.6863" clip-path="url(#clipPath2)" stroke="black"/>
      <path fill="black" d="M1871.619 -327.6863 L1859.619 -332.6863 L1862.619 -327.6863 L1859.619 -322.6863 Z" clip-path="url(#clipPath2)" stroke="none"/>
      <text x="1723.325" y="-334.5164" clip-path="url(#clipPath2)" fill="black" font-family="sans-serif" stroke="none" xml:space="preserve">during</text>
      <path fill="none" d="M1941.619 -327.6863 L2035.4763 -327.6863" clip-path="url(#clipPath2)" stroke="black"/>
      <path fill="black" d="M2043.4763 -327.6863 L2031.4763 -332.6863 L2034.4763 -327.6863 L2031.4763 -322.6863 Z" clip-path="url(#clipPath2)" stroke="none"/>
      <text x="1977.7087" y="-334.5164" clip-path="url(#clipPath2)" fill="black" font-family="sans-serif" stroke="none" xml:space="preserve">transfers</text>
      <path fill="none" d="M1095.2382 -657.9483 L1523.8164 -657.9483" clip-path="url(#clipPath2)" stroke="black"/>
      <path fill="black" d="M1531.8164 -657.9483 L1519.8164 -662.9483 L1522.8164 -657.9483 L1519.8164 -652.9483 Z" clip-path="url(#clipPath2)" stroke="none"/>
      <text x="1107.3632" y="-665.4643" clip-path="url(#clipPath2)" fill="black" font-family="'Noto Sans'" stroke="none" xml:space="preserve">uri of reference note</text>
      <path fill="none" d="M1638.4 140.1773 L1638.4 331.3519" clip-path="url(#clipPath2)" stroke="black"/>
      <path fill="black" d="M1638.4 339.3519 L1643.4 327.3519 L1638.4 330.3519 L1633.4 327.3519 Z" clip-path="url(#clipPath2)" stroke="none"/>
      <text x="1564.4275" y="165.1304" clip-path="url(#clipPath2)" fill="black" font-family="'Noto Sans'" stroke="none" xml:space="preserve">uri of region</text>
    </g>
  </g>
</svg>
