<?xml version="1.0"?>
<svg xmlns="http://www.w3.org/2000/svg" width="830.169921875" height="354.019287109375" viewBox="-199.6034698486328 -258.5543212890625 830.169921875 354.019287109375">
  <title>Neo4j Graph Visualization</title>
  <desc>Created using Neo4j (http://www.neo4j.com/)</desc>
  <g class="layer relationships">
    <g class="relationship" transform="translate(586.5664407357078 -77.39967465924829) rotate(487.56887705945854)">
      <path class="outline" fill="#A5ABB6" stroke="none" d="M 34.39101615137755,-20.433012701892217 L 34.89101615137755,-19.566987298107776 A 89.05251157271674 89.05251157271674 0 0 1 69.3690239272476,-30.929048122997287 L 69.25618883890442,-31.922661852189165 A 90.05251157271674 90.05251157271674 0 0 0 34.39101615137755,-20.433012701892217 Z M 85.8571843190428,-32.26719815317914 L 85.78567146205705,-31.2697584751606 A 89.05251157271674 89.05251157271674 0 0 1 120.70540316581128,-21.347975161699974 L 119.31448906921015,-18.68990105139449 L 127.13939510595759,-18.54552128801494 L 122.55995529461278,-24.89207397544062 L 121.16904119801166,-22.233999865135136 A 90.05251157271674 90.05251157271674 0 0 0 85.8571843190428,-32.26719815317914"/>
      <text text-anchor="middle" pointer-events="none" font-size="8px" fill="#000000" x="77.55910334626822" y="-28.978481480949014" transform="rotate(180 77.55910334626822 -31.978481480949014)" font-family="sans-serif">TO</text>
    </g>
    <g class="relationship" transform="translate(-153.6211720629302 56.40424879827803) rotate(360.0493464215303)">
      <path class="outline" fill="#A5ABB6" stroke="none" d="M 32.5 0.5 L 90.58110117256552 0.5 L 90.58110117256552 -0.5 L 32.5 -0.5 Z M 103.68499826729209 0.5 L 161.7660994398576 0.5 L 161.7660994398576 3.5 L 168.7660994398576 0 L 161.7660994398576 -3.5 L 161.7660994398576 -0.5 L 103.68499826729209 -0.5 Z"/>
      <text text-anchor="middle" pointer-events="none" font-size="8px" fill="#000000" x="97.1330497199288" y="3" font-family="sans-serif">IS</text>
    </g>
    <g class="relationship" transform="translate(-155.60346502954326 -131.60193996035193) rotate(449.39590918281175)">
      <path class="outline" fill="#A5ABB6" stroke="none" d="M 40 0.5 L 75.17853886300726 0.5 L 75.17853886300726 -0.5 L 40 -0.5 Z M 113.33810002023382 0.5 L 148.5166388832411 0.5 L 148.5166388832411 3.5 L 155.5166388832411 0 L 148.5166388832411 -3.5 L 148.5166388832411 -0.5 L 113.33810002023382 -0.5 Z"/>
      <text text-anchor="middle" pointer-events="none" font-size="8px" fill="#000000" x="94.25831944162054" y="3" font-family="sans-serif">ASSERTS</text>
    </g>
    <g class="relationship" transform="translate(40.75714956192735 -134.93496810628366) rotate(180.18318865781532)">
      <path class="outline" fill="#A5ABB6" stroke="none" d="M 6.953439040707552 24.018736134675446 L 17.306200844808384 62.65576918623819 A 17.916697508022974 17.916697508022974 0 1 1 -17.306200844808384 62.65576918623819 L -8.765172356425198 30.780216918698923 L -4.901469051268926 31.815493099109005 L -6.4704761275630185 24.148145657226706 L -11.662949835292403 30.00375978339136 L -7.79924653013613 31.039035963801442 L -16.340275018519314 62.91458823134071 A 16.916697508022974 16.916697508022974 0 1 0 16.340275018519314 62.91458823134071 L 5.987513214418485 24.277555179777966 Z"/>
      <text text-anchor="middle" pointer-events="none" font-size="8px" fill="#000000" x="0" y="94.20964923467838" transform="rotate(180 0 91.20964923467838)" font-family="sans-serif">CITES</text>
    </g>
    <g class="relationship" transform="translate(586.5664407357078 -77.39967465924829) rotate(487.56887705945854)">
      <path class="outline" fill="#A5ABB6" stroke="none" d="M 40 0.5 L 69.59025570859609 0.5 L 69.59025570859609 -0.5 L 40 -0.5 Z M 85.99012753476796 0.5 L 115.58038324336405 0.5 L 115.58038324336405 3.5 L 122.58038324336405 0 L 115.58038324336405 -3.5 L 115.58038324336405 -0.5 L 85.99012753476796 -0.5 Z"/>
      <text text-anchor="middle" pointer-events="none" font-size="8px" fill="#000000" x="77.79019162168203" y="3" transform="rotate(180 77.79019162168203 0)" font-family="sans-serif">OF</text>
    </g>
    <g class="relationship" transform="translate(383.85328194025647 -79.62619164356265) rotate(411.68493775990567)">
      <path class="outline" fill="#A5ABB6" stroke="none" d="M 38.50762352901147,-10.835724717245364 L 38.766442574113995,-9.869798890956295 A 165.94500298841842 165.94500298841842 0 0 1 71.74967710628684,-15.224678526929551 L 71.68961809576321,-16.22287335523461 A 166.94500298841842 166.94500298841842 0 0 0 38.50762352901147,-10.835724717245364 Z M 88.26742972706303,-16.395645871970373 L 88.22818770230829,-15.396416136877804 A 165.94500298841842 165.94500298841842 0 0 1 121.3158620416302,-10.730121789640428 L 120.5999677716964,-7.816791153705683 L 128.23294923713357,-9.54525693245068 L 122.27038773487526,-14.614562637553423 L 121.55449346494146,-11.701232001618678 A 166.94500298841842 166.94500298841842 0 0 0 88.26742972706303,-16.395645871970373"/>
      <text text-anchor="middle" pointer-events="none" font-size="8px" fill="#000000" x="79.98158858391245" y="-13.01519916715327" font-family="sans-serif">TO</text>
    </g>
    <g class="relationship" transform="translate(-155.60346502954326 -131.60193996035193) rotate(539.3959091828117)">
      <path class="outline" fill="#A5ABB6" stroke="none" d="M 10.835724717245366 38.50762352901147 L 21.188486521346196 77.14465658057419 A 21.935935394489817 21.935935394489817 0 1 1 -21.188486521346196 77.14465658057419 L -12.647458032963009 45.26910431303495 L -8.783754727806736 46.30438049344503 L -10.352761804100831 38.63703305156273 L -15.545235511830214 44.49264717772739 L -11.68153220667394 45.52792335813747 L -20.22256069505713 77.40347562567672 A 20.935935394489817 20.935935394489817 0 1 0 20.22256069505713 77.40347562567672 L 9.869798890956297 38.76644257411399 Z"/>
      <text text-anchor="middle" pointer-events="none" font-size="8px" fill="#000000" x="0" y="113.75802982729645" transform="rotate(180 0 110.75802982729645)" font-family="sans-serif">INCLUDES</text>
    </g>
    <g class="relationship" transform="translate(177.10233496563148 53.37965235550638) rotate(359.64650202515486)">
      <path class="outline" fill="#A5ABB6" stroke="none" d="M 25 0.5 L 126.58338200090884 0.5 L 126.58338200090884 -0.5 L 25 -0.5 Z M 161.7589801454401 0.5 L 263.34236214634893 0.5 L 263.34236214634893 3.5 L 270.34236214634893 0 L 263.34236214634893 -3.5 L 263.34236214634893 -0.5 L 161.7589801454401 -0.5 Z"/>
      <text text-anchor="middle" pointer-events="none" font-size="8px" fill="#000000" x="144.17118107317447" y="3" font-family="sans-serif">WAS_AT</text>
    </g>
    <g class="relationship" transform="translate(40.14485551252172 56.571131289805585) rotate(358.66509527964297)">
      <path class="outline" fill="#A5ABB6" stroke="none" d="M 25 0.5 L 35.67767334949083 0.5 L 35.67767334949083 -0.5 L 25 -0.5 Z M 94.31698609363146 0.5 L 104.99465944312229 0.5 L 104.99465944312229 3.5 L 111.99465944312229 0 L 104.99465944312229 -3.5 L 104.99465944312229 -0.5 L 94.31698609363146 -0.5 Z"/>
      <text text-anchor="middle" pointer-events="none" font-size="8px" fill="#000000" x="64.99732972156114" y="3" font-family="sans-serif">HAD_ROLE_IN</text>
    </g>
    <g class="relationship" transform="translate(40.75714956192735 -134.93496810628366) rotate(450.1831886578153)">
      <path class="outline" fill="#A5ABB6" stroke="none" d="M 25 0.5 L 68.42181303780016 0.5 L 68.42181303780016 -0.5 L 25 -0.5 Z M 116.08526518623766 0.5 L 159.50707822403783 0.5 L 159.50707822403783 3.5 L 166.50707822403783 0 L 159.50707822403783 -3.5 L 159.50707822403783 -0.5 L 116.08526518623766 -0.5 Z"/>
      <text text-anchor="middle" pointer-events="none" font-size="8px" fill="#000000" x="92.25353911201891" y="3" transform="rotate(180 92.25353911201891 0)" font-family="sans-serif">MENTIONS</text>
    </g>
    <g class="relationship" transform="translate(383.85328194025647 -79.62619164356265) rotate(306.6919591364243)">
      <path class="outline" fill="#A5ABB6" stroke="none" d="M 40 0.5 L 61.9947220861435 0.5 L 61.9947220861435 -0.5 L 40 -0.5 Z M 99.27432413692475 0.5 L 121.26904622306824 0.5 L 121.26904622306824 3.5 L 128.26904622306824 0 L 121.26904622306824 -3.5 L 121.26904622306824 -0.5 L 99.27432413692475 -0.5 Z"/>
      <text text-anchor="middle" pointer-events="none" font-size="8px" fill="#000000" x="80.63452311153412" y="3" font-family="sans-serif">DURING</text>
    </g>
    <g class="relationship" transform="translate(383.85328194025647 -79.62619164356265) rotate(411.68493775990567)">
      <path class="outline" fill="#A5ABB6" stroke="none" d="M 38.50762352901147,10.835724717245364 L 38.766442574113995,9.869798890956295 A 165.94500298841842 165.94500298841842 0 0 0 65.73870495355834,14.753278225042493 L 65.64242326657877,15.748632351347482 A 166.94500298841842 166.94500298841842 0 0 1 38.50762352901147,10.835724717245364 Z M 94.32319497508779,16.047540869565125 L 94.24767893709742,15.05039628225282 A 165.94500298841842 165.94500298841842 0 0 0 121.3158620416302,10.730121789640428 L 120.5999677716964,7.816791153705683 L 128.23294923713357,9.54525693245068 L 122.27038773487526,14.614562637553423 L 121.55449346494146,11.701232001618678 A 166.94500298841842 166.94500298841842 0 0 1 94.32319497508779,16.047540869565125"/>
      <text text-anchor="middle" pointer-events="none" font-size="8px" fill="#000000" x="79.9815885839125" y="19.01519916715327" font-family="sans-serif">FROM</text>
    </g>
    <g class="relationship" transform="translate(586.5664407357078 -77.39967465924829) rotate(233.31655842144937)">
      <path class="outline" fill="#A5ABB6" stroke="none" d="M 40 0.5 L 63.37359636187756 0.5 L 63.37359636187756 -0.5 L 40 -0.5 Z M 100.65319841265881 0.5 L 124.02679477453637 0.5 L 124.02679477453637 3.5 L 131.02679477453637 0 L 124.02679477453637 -3.5 L 124.02679477453637 -0.5 L 100.65319841265881 -0.5 Z"/>
      <text text-anchor="middle" pointer-events="none" font-size="8px" fill="#000000" x="82.01339738726818" y="3" transform="rotate(180 82.01339738726818 0)" font-family="sans-serif">DURING</text>
    </g>
    <g class="relationship" transform="translate(586.5664407357078 -77.39967465924829) rotate(487.56887705945854)">
      <path class="outline" fill="#A5ABB6" stroke="none" d="M 34.39101615137755,20.433012701892217 L 34.89101615137755,19.566987298107776 A 89.05251157271674 89.05251157271674 0 0 0 63.42071932287229,30.049246043457657 L 63.24108876184312,31.032980185156703 A 90.05251157271674 90.05251157271674 0 0 1 34.39101615137755,20.433012701892217 Z M 91.90401782550876,31.627849304116978 L 91.76535710778198,30.637509359774896 A 89.05251157271674 89.05251157271674 0 0 0 120.70540316581128,21.347975161699974 L 119.31448906921015,18.68990105139449 L 127.13939510595759,18.54552128801494 L 122.55995529461278,24.89207397544062 L 121.16904119801166,22.233999865135136 A 90.05251157271674 90.05251157271674 0 0 1 91.90401782550876,31.627849304116978"/>
      <text text-anchor="middle" pointer-events="none" font-size="8px" fill="#000000" x="77.55910334626823" y="34.978481480949014" transform="rotate(180 77.55910334626823 31.978481480949014)" font-family="sans-serif">FROM</text>
    </g>
  </g>
  <g class="layer nodes">
    <g class="node" transform="translate(40.75714956192735,-134.93496810628366)">
      <circle class="outline" cx="0" cy="0" r="25" fill="#FFC454" stroke="#d7a013" stroke-width="2px"/>
      <text text-anchor="middle" pointer-events="none" font-family="sans-serif" dy="1.5625" font-size="25" fill="#2A2C34"/>
      <text text-anchor="middle" pointer-events="none" x="0" y="5" font-size="10px" fill="#2A2C34" font-family="sans-serif"> Citation</text>
    </g>
    <g class="node" transform="translate(177.10233496563148,53.37965235550638)">
      <circle class="outline" cx="0" cy="0" r="25" fill="#4C8EDA" stroke="#2870c2" stroke-width="2px"/>
      <text text-anchor="middle" pointer-events="none" font-family="sans-serif" dy="1.5625" font-size="25" fill="#FFFFFF"/>
      <text text-anchor="middle" pointer-events="none" x="0" y="5" font-size="10px" fill="#FFFFFF" font-family="sans-serif"> Event</text>
    </g>
    <g class="node" transform="translate(-155.60346502954326,-131.60193996035193)">
      <circle class="outline" cx="0" cy="0" r="40" fill="#8DCC93" stroke="#5db665" stroke-width="2px"/>
      <text text-anchor="middle" pointer-events="none" font-family="sans-serif" dy="2.5" font-size="40" fill="#2A2C34"/>
      <text text-anchor="middle" pointer-events="none" x="0" y="5" font-size="10px" fill="#2A2C34" font-family="sans-serif"> Investigation</text>
    </g>
    <g class="node" transform="translate(40.14485551252172,56.571131289805585)">
      <circle class="outline" cx="0" cy="0" r="25" fill="#F16667" stroke="#eb2728" stroke-width="2px"/>
      <text text-anchor="middle" pointer-events="none" font-family="sans-serif" dy="1.5625" font-size="25" fill="#FFFFFF"/>
      <text text-anchor="middle" pointer-events="none" x="0" y="5" font-size="10px" fill="#FFFFFF" font-family="sans-serif"> Persona</text>
    </g>
    <g class="node" transform="translate(487.4387905021547,51.464944126256526)">
      <circle class="outline" cx="0" cy="0" r="40" fill="#D9C8AE" stroke="#c0a378" stroke-width="2px"/>
      <text text-anchor="middle" pointer-events="none" font-family="sans-serif" dy="2.5" font-size="40" fill="#2A2C34"/>
      <text text-anchor="middle" pointer-events="none" x="0" y="5" font-size="10px" fill="#2A2C34" font-family="sans-serif"> Place</text>
    </g>
    <g class="node" transform="translate(484.39616065804637,-214.55432605577803)">
      <circle class="outline" cx="0" cy="0" r="40" fill="#DA7194" stroke="#cc3c6c" stroke-width="2px"/>
      <text text-anchor="middle" pointer-events="none" font-family="sans-serif" dy="2.5" font-size="40" fill="#FFFFFF"/>
      <text text-anchor="middle" pointer-events="none" x="0" y="5" font-size="10px" fill="#FFFFFF" font-family="sans-serif"> PlaceChange</text>
    </g>
    <g class="node" transform="translate(-153.6211720629302,56.40424879827803)">
      <circle class="outline" cx="0" cy="0" r="32.5" fill="#ECB5C9" stroke="#da7298" stroke-width="2px"/>
      <text text-anchor="middle" pointer-events="none" font-family="sans-serif" dy="2.03125" font-size="32.5" fill="#2A2C34"/>
      <text text-anchor="middle" pointer-events="none" x="0" y="5" font-size="10px" fill="#2A2C34" font-family="sans-serif"> Sameness</text>
    </g>
    <g class="node" transform="translate(586.5664407357078,-77.39967465924829)">
      <circle class="outline" cx="0" cy="0" r="40" fill="#A5ABB6" stroke="#9AA1AC" stroke-width="2px"/>
      <text text-anchor="middle" pointer-events="none" font-family="sans-serif" dy="2.5" font-size="40" fill="#FFFFFF"/>
      <text text-anchor="middle" pointer-events="none" x="0" y="5" font-size="10px" fill="#FFFFFF" font-family="sans-serif"> Transfer</text>
    </g>
    <g class="node" transform="translate(383.85328194025647,-79.62619164356265)">
      <circle class="outline" cx="0" cy="0" r="40" fill="#569480" stroke="#447666" stroke-width="2px"/>
      <text text-anchor="middle" pointer-events="none" font-family="sans-serif" dy="2.5" font-size="40" fill="#FFFFFF"/>
      <text text-anchor="middle" pointer-events="none" x="0" y="5" font-size="10px" fill="#FFFFFF" font-family="sans-serif"> Transform</text>
    </g>
  </g>
</svg>
