<?xml version="1.0" encoding="UTF-8"?><svg xmlns="http://www.w3.org/2000/svg" xmlns:xlink="http://www.w3.org/1999/xlink" fill-opacity="1" color-rendering="auto" color-interpolation="auto" text-rendering="auto" stroke="black" stroke-linecap="square" width="1327" stroke-miterlimit="10" shape-rendering="auto" stroke-opacity="1" fill="black" stroke-dasharray="none" font-weight="normal" stroke-width="1" height="1109" font-family="'Dialog'" font-style="normal" stroke-linejoin="miter" font-size="12px" stroke-dashoffset="0" image-rendering="auto">
  <!--Generated by ySVG 2.5-->
  <defs id="genericDefs"/>
  <g>
    <defs id="defs1">
      <clipPath clipPathUnits="userSpaceOnUse" id="clipPath1">
        <path d="M0 0 L1327 0 L1327 1109 L0 1109 L0 0 Z"/>
      </clipPath>
      <clipPath clipPathUnits="userSpaceOnUse" id="clipPath2">
        <path d="M885 -751 L2212 -751 L2212 358 L885 358 L885 -751 Z"/>
      </clipPath>
    </defs>
    <g fill="white" text-rendering="geometricPrecision" shape-rendering="geometricPrecision" transform="translate(-885,751)" stroke="white">
      <rect x="885" width="1327" height="1109" y="-751" clip-path="url(#clipPath2)" stroke="none"/>
    </g>
    <g fill="rgb(245,245,245)" text-rendering="geometricPrecision" shape-rendering="geometricPrecision" transform="matrix(1,0,0,1,-885,751)" stroke="rgb(245,245,245)">
      <rect x="900.2381" y="-735.6496" clip-path="url(#clipPath2)" width="551.8809" rx="4" ry="4" height="287.4494" stroke="none"/>
      <rect x="900.2381" y="-735.6496" clip-path="url(#clipPath2)" fill="rgb(235,235,235)" width="551.8809" height="24.4301" stroke="none"/>
    </g>
    <g font-size="15px" stroke-linecap="butt" transform="matrix(1,0,0,1,-885,751)" text-rendering="geometricPrecision" font-family="'Noto Sans'" shape-rendering="geometricPrecision" stroke-miterlimit="1.45">
      <text x="1394.4987" xml:space="preserve" y="-717.6145" clip-path="url(#clipPath2)" stroke="none">Sources</text>
    </g>
    <g stroke-linecap="butt" transform="matrix(1,0,0,1,-885,751)" fill="rgb(0,141,210)" text-rendering="geometricPrecision" shape-rendering="geometricPrecision" stroke-dasharray="6,2" stroke="rgb(0,141,210)" stroke-miterlimit="1.45">
      <rect x="900.2381" y="-735.6496" clip-path="url(#clipPath2)" fill="none" width="551.8809" rx="4" ry="4" height="287.4494"/>
    </g>
    <g fill="rgb(255,247,228)" text-rendering="geometricPrecision" shape-rendering="geometricPrecision" transform="matrix(1,0,0,1,-885,751)" stroke="rgb(255,247,228)">
      <ellipse rx="76" ry="38.2712" clip-path="url(#clipPath2)" cx="1314.1191" cy="-650.9483" stroke="none"/>
    </g>
    <g stroke-linecap="butt" transform="matrix(1,0,0,1,-885,751)" fill="rgb(0,141,210)" text-rendering="geometricPrecision" shape-rendering="geometricPrecision" stroke="rgb(0,141,210)" stroke-miterlimit="1.45">
      <ellipse rx="76" fill="none" ry="38.2712" clip-path="url(#clipPath2)" cx="1314.1191" cy="-650.9483"/>
      <text x="1282.5228" y="-662.6364" clip-path="url(#clipPath2)" fill="black" font-family="'Noto Sans'" stroke="none" xml:space="preserve">Citation</text>
      <text x="1282.5228" y="-646.2922" clip-path="url(#clipPath2)" fill="black" font-family="'Noto Sans'" stroke="none" xml:space="preserve"> </text>
      <text x="1282.5228" y="-629.9481" clip-path="url(#clipPath2)" fill="black" font-family="'Noto Sans'" stroke="none" xml:space="preserve">description</text>
    </g>
    <g fill="rgb(255,247,228)" text-rendering="geometricPrecision" shape-rendering="geometricPrecision" transform="matrix(1,0,0,1,-885,751)" stroke="rgb(255,247,228)">
      <rect x="1279.1191" width="70" height="30" y="-519.7877" clip-path="url(#clipPath2)" stroke="none"/>
    </g>
    <g stroke-linecap="butt" transform="matrix(1,0,0,1,-885,751)" fill="rgb(99,123,131)" text-rendering="geometricPrecision" shape-rendering="geometricPrecision" stroke="rgb(99,123,131)" stroke-miterlimit="1.45">
      <rect fill="none" x="1279.1191" width="70" height="30" y="-519.7877" clip-path="url(#clipPath2)"/>
      <text x="1298.3269" xml:space="preserve" y="-500.1316" clip-path="url(#clipPath2)" font-family="'Noto Sans'" stroke="none">CITES</text>
    </g>
    <g fill="rgb(255,247,228)" text-rendering="geometricPrecision" shape-rendering="geometricPrecision" transform="matrix(1,0,0,1,-885,751)" stroke="rgb(255,247,228)">
      <ellipse rx="76" ry="38.2712" clip-path="url(#clipPath2)" cx="1026.2786" cy="-650.9483" stroke="none"/>
    </g>
    <g stroke-linecap="butt" transform="matrix(1,0,0,1,-885,751)" fill="rgb(0,141,210)" text-rendering="geometricPrecision" shape-rendering="geometricPrecision" stroke="rgb(0,141,210)" stroke-miterlimit="1.45">
      <ellipse rx="76" fill="none" ry="38.2712" clip-path="url(#clipPath2)" cx="1026.2786" cy="-650.9483"/>
      <text x="1010.5165" y="-662.6364" clip-path="url(#clipPath2)" fill="black" font-family="'Noto Sans'" stroke="none" xml:space="preserve">Cross</text>
      <text x="1010.5165" y="-646.2922" clip-path="url(#clipPath2)" fill="black" font-family="'Noto Sans'" stroke="none" xml:space="preserve"> </text>
      <text x="1010.5165" y="-629.9481" clip-path="url(#clipPath2)" fill="black" font-family="'Noto Sans'" stroke="none" xml:space="preserve">notes</text>
    </g>
    <g fill="rgb(255,247,228)" text-rendering="geometricPrecision" shape-rendering="geometricPrecision" transform="matrix(1,0,0,1,-885,751)" stroke="rgb(255,247,228)">
      <rect x="1132.2786" width="70" height="30" y="-694.4923" clip-path="url(#clipPath2)" stroke="none"/>
    </g>
    <g stroke-linecap="butt" transform="matrix(1,0,0,1,-885,751)" fill="rgb(99,123,131)" text-rendering="geometricPrecision" shape-rendering="geometricPrecision" stroke="rgb(99,123,131)" stroke-miterlimit="1.45">
      <rect fill="none" x="1132.2786" width="70" height="30" y="-694.4923" clip-path="url(#clipPath2)"/>
      <text x="1151.0485" xml:space="preserve" y="-674.8363" clip-path="url(#clipPath2)" font-family="'Noto Sans'" stroke="none">CITER</text>
    </g>
    <g fill="rgb(255,247,228)" text-rendering="geometricPrecision" shape-rendering="geometricPrecision" transform="matrix(1,0,0,1,-885,751)" stroke="rgb(255,247,228)">
      <rect x="1132.2786" width="70" height="30" y="-634.4923" clip-path="url(#clipPath2)" stroke="none"/>
    </g>
    <g stroke-linecap="butt" transform="matrix(1,0,0,1,-885,751)" fill="rgb(99,123,131)" text-rendering="geometricPrecision" shape-rendering="geometricPrecision" stroke="rgb(99,123,131)" stroke-miterlimit="1.45">
      <rect fill="none" x="1132.2786" width="70" height="30" y="-634.4923" clip-path="url(#clipPath2)"/>
      <text x="1151.4445" xml:space="preserve" y="-614.8363" clip-path="url(#clipPath2)" font-family="'Noto Sans'" stroke="none">CITEE</text>
      <path fill="none" d="M1314.119 -519.7877 L1314.119 -604.6771" clip-path="url(#clipPath2)" stroke="black"/>
      <path fill="black" d="M1314.119 -612.6771 L1309.119 -600.6771 L1314.119 -603.6771 L1319.119 -600.6771 Z" clip-path="url(#clipPath2)" stroke="none"/>
      <text x="1318.119" y="-587.724" clip-path="url(#clipPath2)" fill="black" font-family="'Noto Sans'" stroke="none" xml:space="preserve">personae</text>
      <path fill="none" d="M1096.7938 -665.2234 L1124.4376 -670.8196" clip-path="url(#clipPath2)" stroke="black"/>
      <path fill="black" d="M1132.2786 -672.4069 L1119.525 -674.9265 L1123.4575 -670.6212 L1121.5093 -665.1253 Z" clip-path="url(#clipPath2)" stroke="none"/>
      <path fill="none" d="M1202.2786 -672.6887 L1235.3652 -666.2571" clip-path="url(#clipPath2)" stroke="black"/>
      <path fill="black" d="M1243.2183 -664.7305 L1232.3928 -671.9285 L1234.3837 -666.4479 L1230.4846 -662.1122 Z" clip-path="url(#clipPath2)" stroke="none"/>
      <path fill="none" d="M1095.7649 -635.4465 L1124.4706 -629.0424" clip-path="url(#clipPath2)" stroke="black"/>
      <path fill="black" d="M1132.2787 -627.3005 L1121.6553 -634.7934 L1123.4946 -629.2602 L1119.4779 -625.0333 Z" clip-path="url(#clipPath2)" stroke="none"/>
      <path fill="none" d="M1202.2786 -626.99 L1236.3615 -634.2911" clip-path="url(#clipPath2)" stroke="black"/>
      <path fill="black" d="M1244.184 -635.9669 L1231.4028 -638.3423 L1235.3837 -634.0817 L1233.4976 -628.5642 Z" clip-path="url(#clipPath2)" stroke="none"/>
    </g>
    <g fill="rgb(245,245,245)" text-rendering="geometricPrecision" shape-rendering="geometricPrecision" transform="matrix(1,0,0,1,-885,751)" stroke="rgb(245,245,245)">
      <rect x="900.2381" y="-425.7877" clip-path="url(#clipPath2)" width="248" rx="4" ry="4" height="468.9329" stroke="none"/>
      <rect x="900.2381" y="-425.7877" clip-path="url(#clipPath2)" fill="rgb(235,235,235)" width="248" height="24.4301" stroke="none"/>
    </g>
    <g font-size="15px" stroke-linecap="butt" transform="matrix(1,0,0,1,-885,751)" text-rendering="geometricPrecision" font-family="'Noto Sans'" shape-rendering="geometricPrecision" stroke-miterlimit="1.45">
      <text x="1061.4875" xml:space="preserve" y="-407.7525" clip-path="url(#clipPath2)" stroke="none">Conclusions</text>
    </g>
    <g stroke-linecap="butt" transform="matrix(1,0,0,1,-885,751)" fill="rgb(212,57,130)" text-rendering="geometricPrecision" shape-rendering="geometricPrecision" stroke-dasharray="6,2" stroke="rgb(212,57,130)" stroke-miterlimit="1.45">
      <rect x="900.2381" y="-425.7877" clip-path="url(#clipPath2)" fill="none" width="248" rx="4" ry="4" height="468.9329"/>
    </g>
    <g fill="rgb(255,247,228)" text-rendering="geometricPrecision" shape-rendering="geometricPrecision" transform="matrix(1,0,0,1,-885,751)" stroke="rgb(255,247,228)">
      <rect x="966.2381" width="114" height="84" y="-77.6562" clip-path="url(#clipPath2)" stroke="none"/>
    </g>
    <g stroke-linecap="butt" transform="matrix(1,0,0,1,-885,751)" fill="rgb(99,123,131)" text-rendering="geometricPrecision" shape-rendering="geometricPrecision" stroke="rgb(99,123,131)" stroke-miterlimit="1.45">
      <rect fill="none" x="966.2381" width="114" height="84" y="-77.6562" clip-path="url(#clipPath2)"/>
      <text x="998.4819" xml:space="preserve" y="-63.6884" clip-path="url(#clipPath2)" font-family="'Noto Sans'" stroke="none">IS</text>
      <text x="998.4819" xml:space="preserve" y="-47.3443" clip-path="url(#clipPath2)" font-family="'Noto Sans'" stroke="none">Is</text>
      <text x="998.4819" xml:space="preserve" y="-31.0001" clip-path="url(#clipPath2)" font-family="'Noto Sans'" stroke="none"> </text>
      <text x="998.4819" xml:space="preserve" y="-14.656" clip-path="url(#clipPath2)" font-family="'Noto Sans'" stroke="none">certainty</text>
      <text x="998.4819" xml:space="preserve" y="1.6881" clip-path="url(#clipPath2)" font-family="'Noto Sans'" stroke="none">notes</text>
    </g>
    <g fill="rgb(255,247,228)" text-rendering="geometricPrecision" shape-rendering="geometricPrecision" transform="matrix(1,0,0,1,-885,751)" stroke="rgb(255,247,228)">
      <ellipse rx="76" ry="38.2712" clip-path="url(#clipPath2)" cx="1023.2381" cy="-194.6562" stroke="none"/>
    </g>
    <g stroke-linecap="butt" transform="matrix(1,0,0,1,-885,751)" fill="rgb(212,57,130)" text-rendering="geometricPrecision" shape-rendering="geometricPrecision" stroke="rgb(212,57,130)" stroke-miterlimit="1.45">
      <ellipse rx="76" fill="none" ry="38.2712" clip-path="url(#clipPath2)" cx="1023.2381" cy="-194.6562"/>
      <text x="994.744" y="-214.5163" clip-path="url(#clipPath2)" fill="black" font-family="'Noto Sans'" stroke="none" xml:space="preserve">Sameness</text>
      <text x="994.744" y="-198.1722" clip-path="url(#clipPath2)" fill="black" font-family="'Noto Sans'" stroke="none" xml:space="preserve"> </text>
      <text x="994.744" y="-181.8281" clip-path="url(#clipPath2)" fill="black" font-family="'Noto Sans'" stroke="none" xml:space="preserve">rationale</text>
      <text x="994.744" y="-165.484" clip-path="url(#clipPath2)" fill="black" font-family="'Noto Sans'" stroke="none" xml:space="preserve">notes</text>
    </g>
    <g fill="rgb(255,247,228)" text-rendering="geometricPrecision" shape-rendering="geometricPrecision" transform="matrix(1,0,0,1,-885,751)" stroke="rgb(255,247,228)">
      <ellipse rx="76" ry="38.2712" clip-path="url(#clipPath2)" cx="1023.2381" cy="-348.0863" stroke="none"/>
    </g>
    <g stroke-linecap="butt" transform="matrix(1,0,0,1,-885,751)" fill="rgb(212,57,130)" text-rendering="geometricPrecision" shape-rendering="geometricPrecision" stroke="rgb(212,57,130)" stroke-miterlimit="1.45">
      <ellipse rx="76" fill="none" ry="38.2712" clip-path="url(#clipPath2)" cx="1023.2381" cy="-348.0863"/>
      <text x="986.3679" y="-367.9465" clip-path="url(#clipPath2)" fill="black" font-family="'Noto Sans'" stroke="none" xml:space="preserve">Investigation</text>
      <text x="986.3679" y="-351.6024" clip-path="url(#clipPath2)" fill="black" font-family="'Noto Sans'" stroke="none" xml:space="preserve"> </text>
      <text x="986.3679" y="-335.2582" clip-path="url(#clipPath2)" fill="black" font-family="'Noto Sans'" stroke="none" xml:space="preserve">description</text>
      <text x="986.3679" y="-318.9141" clip-path="url(#clipPath2)" fill="black" font-family="'Noto Sans'" stroke="none" xml:space="preserve">notes</text>
      <path fill="none" d="M1023.2382 -156.385 L1023.2382 -85.6562" clip-path="url(#clipPath2)" stroke="black"/>
      <path fill="black" d="M1023.2382 -77.6562 L1028.2382 -89.6562 L1023.2382 -86.6562 L1018.2382 -89.6562 Z" clip-path="url(#clipPath2)" stroke="none"/>
      <text x="1000.782" y="-131.4319" clip-path="url(#clipPath2)" fill="black" font-family="'Noto Sans'" stroke="none" xml:space="preserve">are</text>
      <text x="959.0682" y="-92.6113" clip-path="url(#clipPath2)" fill="black" font-family="sans-serif" stroke="none" xml:space="preserve">sameness</text>
      <path fill="none" d="M1025.8944 -612.6776 L1023.7026 -394.3566" clip-path="url(#clipPath2)" stroke="black"/>
      <path fill="black" d="M1023.6223 -386.357 L1028.7426 -398.3062 L1023.7126 -395.3566 L1018.743 -398.4066 Z" clip-path="url(#clipPath2)" stroke="none"/>
      <path fill="none" d="M1023.2382 -232.9274 L1023.2382 -301.8151" clip-path="url(#clipPath2)" stroke="black"/>
      <path fill="black" d="M1023.2382 -309.8151 L1018.2382 -297.8151 L1023.2382 -300.8151 L1028.2382 -297.8151 Z" clip-path="url(#clipPath2)" stroke="none"/>
    </g>
    <g fill="rgb(245,245,245)" text-rendering="geometricPrecision" shape-rendering="geometricPrecision" transform="matrix(1,0,0,1,-885,751)" stroke="rgb(245,245,245)">
      <rect x="1172.1191" y="-425.7877" clip-path="url(#clipPath2)" width="280" rx="4" ry="4" height="768.1507" stroke="none"/>
      <rect x="1172.1191" y="-425.7877" clip-path="url(#clipPath2)" fill="rgb(235,235,235)" width="280" height="24.4301" stroke="none"/>
    </g>
    <g font-size="15px" stroke-linecap="butt" transform="matrix(1,0,0,1,-885,751)" text-rendering="geometricPrecision" font-family="'Noto Sans'" shape-rendering="geometricPrecision" stroke-miterlimit="1.45">
      <text x="1371.8036" xml:space="preserve" y="-407.7525" clip-path="url(#clipPath2)" stroke="none">Extractions</text>
    </g>
    <g stroke-linecap="butt" transform="matrix(1,0,0,1,-885,751)" fill="rgb(188,136,1)" text-rendering="geometricPrecision" shape-rendering="geometricPrecision" stroke-dasharray="6,2" stroke="rgb(188,136,1)" stroke-miterlimit="1.45">
      <rect x="1172.1191" y="-425.7877" clip-path="url(#clipPath2)" fill="none" width="280" rx="4" ry="4" height="768.1507"/>
    </g>
    <g fill="rgb(255,247,228)" text-rendering="geometricPrecision" shape-rendering="geometricPrecision" transform="matrix(1,0,0,1,-885,751)" stroke="rgb(255,247,228)">
      <ellipse rx="76" ry="38.2712" clip-path="url(#clipPath2)" cx="1314.1191" cy="-340.6287" stroke="none"/>
    </g>
    <g stroke-linecap="butt" transform="matrix(1,0,0,1,-885,751)" fill="rgb(188,136,1)" text-rendering="geometricPrecision" shape-rendering="geometricPrecision" stroke="rgb(188,136,1)" stroke-miterlimit="1.45">
      <ellipse rx="76" fill="none" ry="38.2712" clip-path="url(#clipPath2)" cx="1314.1191" cy="-340.6287"/>
      <text x="1282.5228" y="-360.4888" clip-path="url(#clipPath2)" fill="black" font-family="'Noto Sans'" stroke="none" xml:space="preserve">Persona</text>
      <text x="1282.5228" y="-344.1447" clip-path="url(#clipPath2)" fill="black" font-family="'Noto Sans'" stroke="none" xml:space="preserve"> </text>
      <text x="1282.5228" y="-327.8006" clip-path="url(#clipPath2)" fill="black" font-family="'Noto Sans'" stroke="none" xml:space="preserve">description</text>
      <text x="1282.5228" y="-311.4565" clip-path="url(#clipPath2)" fill="black" font-family="'Noto Sans'" stroke="none" xml:space="preserve">notes</text>
    </g>
    <g fill="rgb(255,247,228)" text-rendering="geometricPrecision" shape-rendering="geometricPrecision" transform="matrix(1,0,0,1,-885,751)" stroke="rgb(255,247,228)">
      <rect x="1257.1191" width="114" height="108.2712" y="-218.9257" clip-path="url(#clipPath2)" stroke="none"/>
    </g>
    <g stroke-linecap="butt" transform="matrix(1,0,0,1,-885,751)" fill="rgb(99,123,131)" text-rendering="geometricPrecision" shape-rendering="geometricPrecision" stroke="rgb(99,123,131)" stroke-miterlimit="1.45">
      <rect fill="none" x="1257.1191" width="114" height="108.2712" y="-218.9257" clip-path="url(#clipPath2)"/>
      <text x="1274.6388" xml:space="preserve" y="-200.9944" clip-path="url(#clipPath2)" font-family="'Noto Sans'" stroke="none">HAD_ROLE_IN</text>
      <text x="1274.6388" xml:space="preserve" y="-184.6503" clip-path="url(#clipPath2)" font-family="'Noto Sans'" stroke="none">Role</text>
      <text x="1274.6388" xml:space="preserve" y="-168.3061" clip-path="url(#clipPath2)" font-family="'Noto Sans'" stroke="none"> </text>
      <text x="1274.6388" xml:space="preserve" y="-151.962" clip-path="url(#clipPath2)" font-family="'Noto Sans'" stroke="none">description</text>
      <text x="1274.6388" xml:space="preserve" y="-135.6179" clip-path="url(#clipPath2)" font-family="'Noto Sans'" stroke="none">certainty</text>
      <text x="1274.6388" xml:space="preserve" y="-119.2738" clip-path="url(#clipPath2)" font-family="'Noto Sans'" stroke="none">notes</text>
    </g>
    <g fill="rgb(255,247,228)" text-rendering="geometricPrecision" shape-rendering="geometricPrecision" transform="matrix(1,0,0,1,-885,751)" stroke="rgb(255,247,228)">
      <ellipse rx="101" ry="98.2712" clip-path="url(#clipPath2)" cx="1314.1191" cy="81.5061" stroke="none"/>
    </g>
    <g stroke-linecap="butt" transform="matrix(1,0,0,1,-885,751)" fill="rgb(188,136,1)" text-rendering="geometricPrecision" shape-rendering="geometricPrecision" stroke="rgb(188,136,1)" stroke-miterlimit="1.45">
      <ellipse rx="101" fill="none" ry="98.2712" clip-path="url(#clipPath2)" cx="1314.1191" cy="81.5061"/>
      <text x="1267.9427" y="37.1298" clip-path="url(#clipPath2)" fill="black" font-family="'Noto Sans'" stroke="none" xml:space="preserve">Event</text>
      <text x="1267.9427" y="53.4739" clip-path="url(#clipPath2)" fill="black" font-family="'Noto Sans'" stroke="none" xml:space="preserve"> </text>
      <text x="1267.9427" y="69.818" clip-path="url(#clipPath2)" fill="black" font-family="'Noto Sans'" stroke="none" xml:space="preserve">date happened</text>
      <text x="1267.9427" y="86.1621" clip-path="url(#clipPath2)" fill="black" font-family="'Noto Sans'" stroke="none" xml:space="preserve">certainty of date</text>
      <text x="1267.9427" y="102.5062" clip-path="url(#clipPath2)" fill="black" font-family="'Noto Sans'" stroke="none" xml:space="preserve">type</text>
      <text x="1267.9427" y="118.8504" clip-path="url(#clipPath2)" fill="black" font-family="'Noto Sans'" stroke="none" xml:space="preserve">description</text>
      <text x="1267.9427" y="135.1945" clip-path="url(#clipPath2)" fill="black" font-family="'Noto Sans'" stroke="none" xml:space="preserve">notes</text>
    </g>
    <g fill="rgb(255,247,228)" text-rendering="geometricPrecision" shape-rendering="geometricPrecision" transform="matrix(1,0,0,1,-885,751)" stroke="rgb(255,247,228)">
      <rect x="1257.1191" width="114" height="84" y="242.5028" clip-path="url(#clipPath2)" stroke="none"/>
    </g>
    <g stroke-linecap="butt" transform="matrix(1,0,0,1,-885,751)" fill="rgb(99,123,131)" text-rendering="geometricPrecision" shape-rendering="geometricPrecision" stroke="rgb(99,123,131)" stroke-miterlimit="1.45">
      <rect fill="none" x="1257.1191" width="114" height="84" y="242.5028" clip-path="url(#clipPath2)"/>
      <text x="1289.3629" xml:space="preserve" y="256.4706" clip-path="url(#clipPath2)" font-family="'Noto Sans'" stroke="none">WAS_AT</text>
      <text x="1289.3629" xml:space="preserve" y="272.8147" clip-path="url(#clipPath2)" font-family="'Noto Sans'" stroke="none">At</text>
      <text x="1289.3629" xml:space="preserve" y="289.1588" clip-path="url(#clipPath2)" font-family="'Noto Sans'" stroke="none"> </text>
      <text x="1289.3629" xml:space="preserve" y="305.5029" clip-path="url(#clipPath2)" font-family="'Noto Sans'" stroke="none">certainty</text>
      <text x="1289.3629" xml:space="preserve" y="321.847" clip-path="url(#clipPath2)" font-family="'Noto Sans'" stroke="none">notes</text>
      <path fill="none" d="M1063.2975 -77.6562 L1275.6932 -300.3414" clip-path="url(#clipPath2)" stroke="black"/>
      <path fill="black" d="M1281.2148 -306.1303 L1269.3143 -300.8979 L1275.0031 -299.6177 L1276.5505 -293.9959 Z" clip-path="url(#clipPath2)" stroke="none"/>
      <text x="1022.6943" y="-93.2972" clip-path="url(#clipPath2)" fill="black" font-family="'Noto Sans'" stroke="none" xml:space="preserve">persona</text>
      <text x="1216.926" y="-279.0938" clip-path="url(#clipPath2)" fill="black" font-family="sans-serif" stroke="none" xml:space="preserve">xrefs</text>
      <path fill="none" d="M1314.119 -378.8999 L1314.119 -481.7586" clip-path="url(#clipPath2)" stroke="black"/>
      <path fill="black" d="M1314.119 -489.7586 L1309.119 -477.7586 L1314.119 -480.7586 L1319.119 -477.7586 Z" clip-path="url(#clipPath2)" stroke="none"/>
      <text x="1281.8475" y="-393.8549" clip-path="url(#clipPath2)" fill="black" font-family="sans-serif" stroke="none" xml:space="preserve">cites</text>
      <path fill="none" d="M1314.119 -302.3575 L1314.119 -226.9257" clip-path="url(#clipPath2)" stroke="black"/>
      <path fill="black" d="M1314.119 -218.9257 L1319.119 -230.9257 L1314.119 -227.9257 L1309.119 -230.9257 Z" clip-path="url(#clipPath2)" stroke="none"/>
      <text x="1246.7706" y="-277.4044" clip-path="url(#clipPath2)" fill="black" font-family="'Noto Sans'" stroke="none" xml:space="preserve">hadRolesIn</text>
      <text x="1261.6327" y="-233.8808" clip-path="url(#clipPath2)" fill="black" font-family="sans-serif" stroke="none" xml:space="preserve">persona</text>
      <path fill="none" d="M1314.119 -110.6545 L1314.119 -24.7651" clip-path="url(#clipPath2)" stroke="black"/>
      <path fill="black" d="M1314.119 -16.7651 L1319.119 -28.7651 L1314.119 -25.7651 L1309.119 -28.7651 Z" clip-path="url(#clipPath2)" stroke="none"/>
      <text x="1278.7389" y="-85.7014" clip-path="url(#clipPath2)" fill="black" font-family="'Noto Sans'" stroke="none" xml:space="preserve">event</text>
      <text x="1266.1444" y="-31.7202" clip-path="url(#clipPath2)" fill="black" font-family="sans-serif" stroke="none" xml:space="preserve">players</text>
      <path fill="none" d="M1314.119 179.7773 L1314.119 234.5028" clip-path="url(#clipPath2)" stroke="black"/>
      <path fill="black" d="M1314.119 242.5028 L1319.119 230.5028 L1314.119 233.5028 L1309.119 230.5028 Z" clip-path="url(#clipPath2)" stroke="none"/>
      <text x="1280.3828" y="204.7304" clip-path="url(#clipPath2)" fill="black" font-family="'Noto Sans'" stroke="none" xml:space="preserve">place</text>
    </g>
    <g fill="rgb(245,245,245)" text-rendering="geometricPrecision" shape-rendering="geometricPrecision" transform="matrix(1,0,0,1,-885,751)" stroke="rgb(245,245,245)">
      <rect x="1476" y="-425.7877" clip-path="url(#clipPath2)" width="720.0763" rx="4" ry="4" height="643.5649" stroke="none"/>
      <rect x="1476" y="-425.7877" clip-path="url(#clipPath2)" fill="rgb(235,235,235)" width="720.0763" height="24.4301" stroke="none"/>
    </g>
    <g font-size="15px" stroke-linecap="butt" transform="matrix(1,0,0,1,-885,751)" text-rendering="geometricPrecision" font-family="'Noto Sans'" shape-rendering="geometricPrecision" stroke-miterlimit="1.45">
      <text x="2149.8711" xml:space="preserve" y="-407.7525" clip-path="url(#clipPath2)" stroke="none">Places</text>
    </g>
    <g stroke-linecap="butt" transform="matrix(1,0,0,1,-885,751)" fill="rgb(141,153,0)" text-rendering="geometricPrecision" shape-rendering="geometricPrecision" stroke-dasharray="6,2" stroke="rgb(141,153,0)" stroke-miterlimit="1.45">
      <rect x="1476" y="-425.7877" clip-path="url(#clipPath2)" fill="none" width="720.0763" rx="4" ry="4" height="643.5649"/>
    </g>
    <g fill="rgb(255,247,228)" text-rendering="geometricPrecision" shape-rendering="geometricPrecision" transform="matrix(1,0,0,1,-885,751)" stroke="rgb(255,247,228)">
      <ellipse rx="76" ry="58.6712" clip-path="url(#clipPath2)" cx="1630.4" cy="81.5061" stroke="none"/>
    </g>
    <g stroke-linecap="butt" transform="matrix(1,0,0,1,-885,751)" fill="rgb(141,153,0)" text-rendering="geometricPrecision" shape-rendering="geometricPrecision" stroke="rgb(141,153,0)" stroke-miterlimit="1.45">
      <ellipse rx="76" fill="none" ry="58.6712" clip-path="url(#clipPath2)" cx="1630.4" cy="81.5061"/>
      <text x="1576.6757" y="53.4739" clip-path="url(#clipPath2)" fill="black" font-family="'Noto Sans'" stroke="none" xml:space="preserve">Place</text>
      <text x="1576.6757" y="69.818" clip-path="url(#clipPath2)" fill="black" font-family="'Noto Sans'" stroke="none" xml:space="preserve"> </text>
      <text x="1576.6757" y="86.1621" clip-path="url(#clipPath2)" fill="black" font-family="'Noto Sans'" stroke="none" xml:space="preserve">name</text>
      <text x="1576.6757" y="102.5062" clip-path="url(#clipPath2)" fill="black" font-family="'Noto Sans'" stroke="none" xml:space="preserve">pluscode of vicinity</text>
      <text x="1576.6757" y="118.8504" clip-path="url(#clipPath2)" fill="black" font-family="'Noto Sans'" stroke="none" xml:space="preserve">notes</text>
    </g>
    <g fill="rgb(255,247,228)" text-rendering="geometricPrecision" shape-rendering="geometricPrecision" transform="matrix(1,0,0,1,-885,751)" stroke="rgb(255,247,228)">
      <ellipse rx="72.8" ry="58.6712" clip-path="url(#clipPath2)" cx="1630.4" cy="-327.6863" stroke="none"/>
    </g>
    <g stroke-linecap="butt" transform="matrix(1,0,0,1,-885,751)" fill="rgb(141,153,0)" text-rendering="geometricPrecision" shape-rendering="geometricPrecision" stroke="rgb(141,153,0)" stroke-miterlimit="1.45">
      <ellipse rx="72.8" fill="none" ry="58.6712" clip-path="url(#clipPath2)" cx="1630.4" cy="-327.6863"/>
      <text x="1606.7118" y="-323.0303" clip-path="url(#clipPath2)" fill="black" font-family="'Noto Sans'" stroke="none" xml:space="preserve">Transfer</text>
    </g>
    <g fill="rgb(255,247,228)" text-rendering="geometricPrecision" shape-rendering="geometricPrecision" transform="matrix(1,0,0,1,-885,751)" stroke="rgb(255,247,228)">
      <ellipse rx="72.8" ry="58.6712" clip-path="url(#clipPath2)" cx="2108.2763" cy="81.5061" stroke="none"/>
    </g>
    <g stroke-linecap="butt" transform="matrix(1,0,0,1,-885,751)" fill="rgb(141,153,0)" text-rendering="geometricPrecision" shape-rendering="geometricPrecision" stroke="rgb(141,153,0)" stroke-miterlimit="1.45">
      <ellipse rx="72.8" fill="none" ry="58.6712" clip-path="url(#clipPath2)" cx="2108.2763" cy="81.5061"/>
      <text x="2078.7319" y="86.1621" clip-path="url(#clipPath2)" fill="black" font-family="'Noto Sans'" stroke="none" xml:space="preserve">Transform</text>
    </g>
    <g fill="rgb(255,247,228)" text-rendering="geometricPrecision" shape-rendering="geometricPrecision" transform="matrix(1,0,0,1,-885,751)" stroke="rgb(255,247,228)">
      <rect x="1863.6191" width="70" height="30" y="22.8349" clip-path="url(#clipPath2)" stroke="none"/>
    </g>
    <g stroke-linecap="butt" transform="matrix(1,0,0,1,-885,751)" fill="rgb(99,123,131)" text-rendering="geometricPrecision" shape-rendering="geometricPrecision" stroke="rgb(99,123,131)" stroke-miterlimit="1.45">
      <rect fill="none" x="1863.6191" width="70" height="30" y="22.8349" clip-path="url(#clipPath2)"/>
      <text x="1881.6449" xml:space="preserve" y="42.491" clip-path="url(#clipPath2)" font-family="'Noto Sans'" stroke="none">FROM</text>
    </g>
    <g fill="rgb(255,247,228)" text-rendering="geometricPrecision" shape-rendering="geometricPrecision" transform="matrix(1,0,0,1,-885,751)" stroke="rgb(255,247,228)">
      <rect x="1679.4" width="70" height="30" y="-188.9438" clip-path="url(#clipPath2)" stroke="none"/>
    </g>
    <g stroke-linecap="butt" transform="matrix(1,0,0,1,-885,751)" fill="rgb(99,123,131)" text-rendering="geometricPrecision" shape-rendering="geometricPrecision" stroke="rgb(99,123,131)" stroke-miterlimit="1.45">
      <rect fill="none" x="1679.4" width="70" height="30" y="-188.9438" clip-path="url(#clipPath2)"/>
      <text x="1697.4259" xml:space="preserve" y="-169.2878" clip-path="url(#clipPath2)" font-family="'Noto Sans'" stroke="none">FROM</text>
    </g>
    <g fill="rgb(255,247,228)" text-rendering="geometricPrecision" shape-rendering="geometricPrecision" transform="matrix(1,0,0,1,-885,751)" stroke="rgb(255,247,228)">
      <rect x="1863.6191" width="70" height="30" y="110.1773" clip-path="url(#clipPath2)" stroke="none"/>
    </g>
    <g stroke-linecap="butt" transform="matrix(1,0,0,1,-885,751)" fill="rgb(99,123,131)" text-rendering="geometricPrecision" shape-rendering="geometricPrecision" stroke="rgb(99,123,131)" stroke-miterlimit="1.45">
      <rect fill="none" x="1863.6191" width="70" height="30" y="110.1773" clip-path="url(#clipPath2)"/>
      <text x="1890.597" xml:space="preserve" y="129.8333" clip-path="url(#clipPath2)" font-family="'Noto Sans'" stroke="none">TO</text>
    </g>
    <g fill="rgb(255,247,228)" text-rendering="geometricPrecision" shape-rendering="geometricPrecision" transform="matrix(1,0,0,1,-885,751)" stroke="rgb(255,247,228)">
      <rect x="1760.2" width="70" height="30" y="-188.9438" clip-path="url(#clipPath2)" stroke="none"/>
    </g>
    <g stroke-linecap="butt" transform="matrix(1,0,0,1,-885,751)" fill="rgb(99,123,131)" text-rendering="geometricPrecision" shape-rendering="geometricPrecision" stroke="rgb(99,123,131)" stroke-miterlimit="1.45">
      <rect fill="none" x="1760.2" width="70" height="30" y="-188.9438" clip-path="url(#clipPath2)"/>
      <text x="1787.178" xml:space="preserve" y="-169.2878" clip-path="url(#clipPath2)" font-family="'Noto Sans'" stroke="none">TO</text>
    </g>
    <g fill="rgb(255,247,228)" text-rendering="geometricPrecision" shape-rendering="geometricPrecision" transform="matrix(1,0,0,1,-885,751)" stroke="rgb(255,247,228)">
      <rect x="1491" width="70" height="30" y="-188.9438" clip-path="url(#clipPath2)" stroke="none"/>
    </g>
    <g stroke-linecap="butt" transform="matrix(1,0,0,1,-885,751)" fill="rgb(99,123,131)" text-rendering="geometricPrecision" shape-rendering="geometricPrecision" stroke="rgb(99,123,131)" stroke-miterlimit="1.45">
      <rect fill="none" x="1491" width="70" height="30" y="-188.9438" clip-path="url(#clipPath2)"/>
      <text x="1518.2" xml:space="preserve" y="-169.2878" clip-path="url(#clipPath2)" font-family="'Noto Sans'" stroke="none">OF</text>
    </g>
    <g fill="rgb(255,247,228)" text-rendering="geometricPrecision" shape-rendering="geometricPrecision" transform="matrix(1,0,0,1,-885,751)" stroke="rgb(255,247,228)">
      <ellipse rx="72.8" ry="58.6712" clip-path="url(#clipPath2)" cx="2108.2763" cy="-327.6863" stroke="none"/>
    </g>
    <g stroke-linecap="butt" transform="matrix(1,0,0,1,-885,751)" fill="rgb(141,153,0)" text-rendering="geometricPrecision" shape-rendering="geometricPrecision" stroke="rgb(141,153,0)" stroke-miterlimit="1.45">
      <ellipse rx="72.8" fill="none" ry="58.6712" clip-path="url(#clipPath2)" cx="2108.2763" cy="-327.6863"/>
      <text x="2065.49" y="-347.5465" clip-path="url(#clipPath2)" fill="black" font-family="'Noto Sans'" stroke="none" xml:space="preserve">PlaceChange</text>
      <text x="2065.49" y="-331.2024" clip-path="url(#clipPath2)" fill="black" font-family="'Noto Sans'" stroke="none" xml:space="preserve"> </text>
      <text x="2065.49" y="-314.8582" clip-path="url(#clipPath2)" fill="black" font-family="'Noto Sans'" stroke="none" xml:space="preserve">date happened</text>
      <text x="2065.49" y="-298.5141" clip-path="url(#clipPath2)" fill="black" font-family="'Noto Sans'" stroke="none" xml:space="preserve">notes</text>
    </g>
    <g fill="rgb(255,247,228)" text-rendering="geometricPrecision" shape-rendering="geometricPrecision" transform="matrix(1,0,0,1,-885,751)" stroke="rgb(255,247,228)">
      <rect x="2073.2763" width="70" height="30" y="-188.9438" clip-path="url(#clipPath2)" stroke="none"/>
    </g>
    <g stroke-linecap="butt" transform="matrix(1,0,0,1,-885,751)" fill="rgb(99,123,131)" text-rendering="geometricPrecision" shape-rendering="geometricPrecision" stroke="rgb(99,123,131)" stroke-miterlimit="1.45">
      <rect fill="none" x="2073.2763" width="70" height="30" y="-188.9438" clip-path="url(#clipPath2)"/>
      <text x="2084.8162" xml:space="preserve" y="-169.2878" clip-path="url(#clipPath2)" font-family="'Noto Sans'" stroke="none">DURING</text>
    </g>
    <g fill="rgb(255,247,228)" text-rendering="geometricPrecision" shape-rendering="geometricPrecision" transform="matrix(1,0,0,1,-885,751)" stroke="rgb(255,247,228)">
      <rect x="1863.6191" width="70" height="30" y="-342.6863" clip-path="url(#clipPath2)" stroke="none"/>
    </g>
    <g stroke-linecap="butt" transform="matrix(1,0,0,1,-885,751)" fill="rgb(99,123,131)" text-rendering="geometricPrecision" shape-rendering="geometricPrecision" stroke="rgb(99,123,131)" stroke-miterlimit="1.45">
      <rect fill="none" x="1863.6191" width="70" height="30" y="-342.6863" clip-path="url(#clipPath2)"/>
      <text x="1875.1589" xml:space="preserve" y="-323.0303" clip-path="url(#clipPath2)" font-family="'Noto Sans'" stroke="none">DURING</text>
    </g>
    <g fill="rgb(255,247,228)" text-rendering="geometricPrecision" shape-rendering="geometricPrecision" transform="matrix(1,0,0,1,-885,751)" stroke="rgb(255,247,228)">
      <path d="M1531.8 -657.9483 L1553.12 -672.9483 L1723.6801 -672.9483 L1745 -657.9483 L1723.6801 -642.9483 L1553.12 -642.9483 Z" fill-rule="evenodd" clip-path="url(#clipPath2)" stroke="none"/>
    </g>
    <g stroke-linecap="butt" transform="matrix(1,0,0,1,-885,751)" fill="rgb(99,123,131)" text-rendering="geometricPrecision" shape-rendering="geometricPrecision" stroke="rgb(99,123,131)" stroke-miterlimit="1.45">
      <path fill="none" d="M1531.8 -657.9483 L1553.12 -672.9483 L1723.6801 -672.9483 L1745 -657.9483 L1723.6801 -642.9483 L1553.12 -642.9483 Z" fill-rule="evenodd" clip-path="url(#clipPath2)"/>
      <text x="1562.9015" xml:space="preserve" y="-653.2922" clip-path="url(#clipPath2)" font-family="'Noto Sans'" stroke="none">source information system</text>
    </g>
    <g fill="rgb(255,247,228)" text-rendering="geometricPrecision" shape-rendering="geometricPrecision" transform="matrix(1,0,0,1,-885,751)" stroke="rgb(255,247,228)">
      <path d="M1523.8 327.3631 L1545.12 312.3631 L1715.6801 312.3631 L1737 327.3631 L1715.6801 342.3631 L1545.12 342.3631 Z" fill-rule="evenodd" clip-path="url(#clipPath2)" stroke="none"/>
    </g>
    <g stroke-linecap="butt" transform="matrix(1,0,0,1,-885,751)" fill="rgb(99,123,131)" text-rendering="geometricPrecision" shape-rendering="geometricPrecision" stroke="rgb(99,123,131)" stroke-miterlimit="1.45">
      <path fill="none" d="M1523.8 327.3631 L1545.12 312.3631 L1715.6801 312.3631 L1737 327.3631 L1715.6801 342.3631 L1545.12 342.3631 Z" fill-rule="evenodd" clip-path="url(#clipPath2)"/>
      <text x="1541.7914" xml:space="preserve" y="332.0191" clip-path="url(#clipPath2)" font-family="'Noto Sans'" stroke="none">geographic information system</text>
      <path fill="none" d="M1371.119 284.5028 L1478 284.5028 L1482.7339 283.9911 L1486.9357 282.4561 L1490.6053 279.8978 L1493.7428 276.3162 L1589.6146 139.6472" clip-path="url(#clipPath2)" stroke="black"/>
      <path fill="black" d="M1594.2089 133.0979 L1583.2242 140.0504 L1589.0403 140.4658 L1591.4108 145.7932 Z" clip-path="url(#clipPath2)" stroke="none"/>
      <path fill="none" d="M2048.1748 48.3978 L2037.7589 42.66 L2028.6897 39.0412 L2019 37.8349 L1941.619 37.8349" clip-path="url(#clipPath2)" stroke="black"/>
      <path fill="black" d="M1933.619 37.8349 L1945.619 42.8349 L1942.619 37.8349 L1945.619 32.8349 Z" clip-path="url(#clipPath2)" stroke="none"/>
      <text x="1995.7871" y="54.663" clip-path="url(#clipPath2)" fill="black" font-family="'Noto Sans'" stroke="none" xml:space="preserve">from</text>
      <path fill="none" d="M1863.619 37.8349 L1738 37.8349 L1728.218 38.856 L1718.8721 41.9192 L1703.4559 48.8172" clip-path="url(#clipPath2)" stroke="black"/>
      <path fill="black" d="M1696.1536 52.0846 L1709.1492 51.7474 L1704.3687 48.4088 L1705.0649 42.6195 Z" clip-path="url(#clipPath2)" stroke="none"/>
      <text x="1759.0148" y="54.663" clip-path="url(#clipPath2)" fill="black" font-family="'Noto Sans'" stroke="none" xml:space="preserve">destruction</text>
      <path fill="none" d="M1672.0106 -279.5437 L1707.8608 -238.0657 L1712.7653 -229.8914 L1714.4 -220.5 L1714.4 -196.9438" clip-path="url(#clipPath2)" stroke="black"/>
      <path fill="black" d="M1714.4 -188.9438 L1719.4 -200.9438 L1714.4 -197.9438 L1709.4 -200.9438 Z" clip-path="url(#clipPath2)" stroke="none"/>
      <text x="1632.1354" y="-204.5849" clip-path="url(#clipPath2)" fill="black" font-family="'Noto Sans'" stroke="none" xml:space="preserve">from superior</text>
      <path fill="none" d="M1714.4 -158.9438 L1714.4 -63.5 L1713.0793 -53.8773 L1709.1172 -45.0093 L1667.5321 21.8269" clip-path="url(#clipPath2)" stroke="black"/>
      <path fill="black" d="M1663.3058 28.6194 L1673.8906 21.0721 L1668.0604 20.9778 L1665.3999 15.7892 Z" clip-path="url(#clipPath2)" stroke="none"/>
      <text x="1634.8363" y="7.1939" clip-path="url(#clipPath2)" fill="black" font-family="'Noto Sans'" stroke="none" xml:space="preserve">losses</text>
      <path fill="none" d="M2047.7042 114.0525 L2035.809 120.4441 L2026.7023 123.994 L2017 125.1773 L1941.619 125.1773" clip-path="url(#clipPath2)" stroke="black"/>
      <path fill="black" d="M1933.619 125.1773 L1945.619 130.1773 L1942.619 125.1773 L1945.619 120.1773 Z" clip-path="url(#clipPath2)" stroke="none"/>
      <text x="2011.7592" y="117.6613" clip-path="url(#clipPath2)" fill="black" font-family="'Noto Sans'" stroke="none" xml:space="preserve">to</text>
      <path fill="none" d="M1863.619 125.1773 L1743 125.1773 L1733.1997 124.1982 L1723.7988 121.2609 L1704.3151 112.9677" clip-path="url(#clipPath2)" stroke="black"/>
      <path fill="black" d="M1696.9541 109.8345 L1706.0374 119.1348 L1705.2351 113.3593 L1709.9537 109.9337 Z" clip-path="url(#clipPath2)" stroke="none"/>
      <text x="1758.3707" y="117.6613" clip-path="url(#clipPath2)" fill="black" font-family="'Noto Sans'" stroke="none" xml:space="preserve">construction</text>
      <path fill="none" d="M1691.2589 -295.4893 L1786.3607 -245.1763 L1790.2279 -242.5054 L1792.9901 -239.1691 L1794.6475 -235.1673 L1795.2 -230.5 L1795.2 -196.9438" clip-path="url(#clipPath2)" stroke="black"/>
      <path fill="black" d="M1795.2 -188.9438 L1800.2 -200.9438 L1795.2 -197.9438 L1790.2 -200.9438 Z" clip-path="url(#clipPath2)" stroke="none"/>
      <text x="1799.2" y="-204.5849" clip-path="url(#clipPath2)" fill="black" font-family="'Noto Sans'" stroke="none" xml:space="preserve">to superior</text>
      <path fill="none" d="M1795.2 -158.9438 L1795.2 -65.5 L1794.7194 -60.7254 L1793.2776 -56.4018 L1790.8745 -52.529 L1787.5103 -49.1072 L1688.2668 33.3986" clip-path="url(#clipPath2)" stroke="black"/>
      <path fill="black" d="M1682.1151 38.5129 L1694.5392 34.6863 L1689.0359 32.7593 L1688.1464 26.9966 Z" clip-path="url(#clipPath2)" stroke="none"/>
      <text x="1706.967" y="-16.239" clip-path="url(#clipPath2)" fill="black" font-family="'Noto Sans'" stroke="none" xml:space="preserve">gains</text>
      <path fill="none" d="M1574.4967 -290.1035 L1534.299 -263.0792 L1530.6682 -260.0133 L1528.0747 -256.3948 L1526.5187 -252.2237 L1526 -247.5 L1526 -196.9438" clip-path="url(#clipPath2)" stroke="black"/>
      <path fill="black" d="M1526 -188.9438 L1531 -200.9438 L1526 -197.9438 L1521 -200.9438 Z" clip-path="url(#clipPath2)" stroke="none"/>
      <text x="1530" y="-223.1284" clip-path="url(#clipPath2)" fill="black" font-family="'Noto Sans'" stroke="none" xml:space="preserve">of inferior</text>
      <path fill="none" d="M1526 -158.9438 L1526 -35.5 L1527.7458 -26.2106 L1532.9834 -18.3423 L1579.0896 28.9148" clip-path="url(#clipPath2)" stroke="black"/>
      <path fill="black" d="M1584.6763 34.641 L1579.8751 22.56 L1578.3912 28.199 L1572.7174 29.5434 Z" clip-path="url(#clipPath2)" stroke="none"/>
      <text x="1486.1023" y="7.1939" clip-path="url(#clipPath2)" fill="black" font-family="'Noto Sans'" stroke="none" xml:space="preserve">superiors</text>
      <path fill="none" d="M2108.2764 22.8349 L2108.2764 -150.9438" clip-path="url(#clipPath2)" stroke="black"/>
      <path fill="black" d="M2108.2764 -158.9438 L2103.2764 -146.9438 L2108.2764 -149.9438 L2113.2764 -146.9438 Z" clip-path="url(#clipPath2)" stroke="none"/>
      <text x="2065.5635" y="7.8798" clip-path="url(#clipPath2)" fill="black" font-family="sans-serif" stroke="none" xml:space="preserve">during</text>
      <path fill="none" d="M2108.2764 -188.9438 L2108.2764 -261.0151" clip-path="url(#clipPath2)" stroke="black"/>
      <path fill="black" d="M2108.2764 -269.0151 L2103.2764 -257.0151 L2108.2764 -260.0151 L2113.2764 -257.0151 Z" clip-path="url(#clipPath2)" stroke="none"/>
      <text x="2038.9852" y="-245.7515" clip-path="url(#clipPath2)" fill="black" font-family="sans-serif" stroke="none" xml:space="preserve">transforms</text>
      <path fill="none" d="M1703.2 -327.6863 L1855.619 -327.6863" clip-path="url(#clipPath2)" stroke="black"/>
      <path fill="black" d="M1863.619 -327.6863 L1851.619 -332.6863 L1854.619 -327.6863 L1851.619 -322.6863 Z" clip-path="url(#clipPath2)" stroke="none"/>
      <text x="1715.325" y="-334.5164" clip-path="url(#clipPath2)" fill="black" font-family="sans-serif" stroke="none" xml:space="preserve">during</text>
      <path fill="none" d="M1933.619 -327.6863 L2027.4763 -327.6863" clip-path="url(#clipPath2)" stroke="black"/>
      <path fill="black" d="M2035.4763 -327.6863 L2023.4763 -332.6863 L2026.4763 -327.6863 L2023.4763 -322.6863 Z" clip-path="url(#clipPath2)" stroke="none"/>
      <text x="1969.7087" y="-334.5164" clip-path="url(#clipPath2)" fill="black" font-family="sans-serif" stroke="none" xml:space="preserve">transfers</text>
      <path fill="none" d="M1390.0493 -652.5873 L1526.9932 -655.5434" clip-path="url(#clipPath2)" stroke="black"/>
      <path fill="black" d="M1534.9913 -655.7161 L1522.8862 -660.4559 L1525.9934 -655.5218 L1523.1021 -650.4583 Z" clip-path="url(#clipPath2)" stroke="none"/>
      <text x="1402.244" y="-662.9198" clip-path="url(#clipPath2)" fill="black" font-family="'Noto Sans'" stroke="none" xml:space="preserve">uri of reference note</text>
      <path fill="none" d="M1630.4 140.1773 L1630.4 304.3279" clip-path="url(#clipPath2)" stroke="black"/>
      <path fill="black" d="M1630.4 312.3279 L1635.4 300.3279 L1630.4 303.3279 L1625.4 300.3279 Z" clip-path="url(#clipPath2)" stroke="none"/>
      <text x="1634.4" y="165.1304" clip-path="url(#clipPath2)" fill="black" font-family="'Noto Sans'" stroke="none" xml:space="preserve">uri of region</text>
    </g>
  </g>
</svg>
