<svg xmlns="http://www.w3.org/2000/svg" width="674.2088623046875" height="268.91485595703125" viewBox="-440.85821533203125 -222.27178955078125 674.2088623046875 268.91485595703125"><title>Neo4j Graph Visualization</title><desc>Created using Neo4j (http://www.neo4j.com/)</desc><g class="layer relationships"><g class="relationship" transform="translate(27.551928616369466 -162.86585238337608) rotate(448.6531289527838)"><path class="outline" fill="#A5ABB6" stroke="none" d="M 34.39101615137755,-20.433012701892217 L 34.89101615137755,-19.566987298107776 A 89.85579223734852 89.85579223734852 0 0 1 69.7618962045374,-31.040796545404746 L 69.64997224487824,-32.034513319568404 A 90.85579223734852 90.85579223734852 0 0 0 34.39101615137755,-20.433012701892217 Z M 86.25059902214029,-32.37744512512086 L 86.17980896469093,-31.37995388818375 A 89.85579223734852 89.85579223734852 0 0 1 121.494784137888,-21.356027370012704 L 120.10335891653715,-18.698220783108997 L 127.92823704422179,-18.55233628467801 L 123.3500177663558,-24.899769485884317 L 121.95859254500495,-22.24196289898061 A 90.85579223734852 90.85579223734852 0 0 0 86.25059902214029,-32.37744512512086"/><text text-anchor="middle" pointer-events="none" font-size="8px" fill="#000000" x="77.95276191319665" y="-29.08610759124811" font-family="sans-serif">TO</text></g><g class="relationship" transform="translate(-397.1909933855418 7.513678892403476) rotate(359.1284903583294)"><path class="outline" fill="#A5ABB6" stroke="none" d="M 32.5 0.5 L 75.01592904658818 0.5 L 75.01592904658818 -0.5 L 32.5 -0.5 Z M 88.11982614131475 0.5 L 130.63575518790293 0.5 L 130.63575518790293 3.5 L 137.63575518790293 0 L 130.63575518790293 -3.5 L 130.63575518790293 -0.5 L 88.11982614131475 -0.5 Z"/><text text-anchor="middle" pointer-events="none" font-size="8px" fill="#000000" x="81.56787759395147" y="3" font-family="sans-serif">IS</text></g><g class="relationship" transform="translate(-396.85821891618195 -144.60963392061146) rotate(450.1253360964766)"><path class="outline" fill="#A5ABB6" stroke="none" d="M 40 0.5 L 57.2320578162971 0.5 L 57.2320578162971 -0.5 L 40 -0.5 Z M 95.39161897352366 0.5 L 112.62367678982076 0.5 L 112.62367678982076 3.5 L 119.62367678982076 0 L 112.62367678982076 -3.5 L 112.62367678982076 -0.5 L 95.39161897352366 -0.5 Z"/><text text-anchor="middle" pointer-events="none" font-size="8px" fill="#000000" x="76.31183839491038" y="3" transform="rotate(180 76.31183839491038 0)" font-family="sans-serif">ASSERTS</text></g><g class="relationship" transform="translate(-232.18313695112494 -126.26497687764481) rotate(181.04317628235037)"><path class="outline" fill="#A5ABB6" stroke="none" d="M 6.953439040707552 24.018736134675446 L 17.306200844808384 62.65576918623819 A 17.916697508022974 17.916697508022974 0 1 1 -17.306200844808384 62.65576918623819 L -8.765172356425198 30.780216918698923 L -4.901469051268926 31.815493099109005 L -6.4704761275630185 24.148145657226706 L -11.662949835292403 30.00375978339136 L -7.79924653013613 31.039035963801442 L -16.340275018519314 62.91458823134071 A 16.916697508022974 16.916697508022974 0 1 0 16.340275018519314 62.91458823134071 L 5.987513214418485 24.277555179777966 Z"/><text text-anchor="middle" pointer-events="none" font-size="8px" fill="#000000" x="0" y="94.20964923467838" transform="rotate(180 0 91.20964923467838)" font-family="sans-serif">CITES</text></g><g class="relationship" transform="translate(27.551928616369466 -162.86585238337608) rotate(448.6531289527838)"><path class="outline" fill="#A5ABB6" stroke="none" d="M 40 0.5 L 69.98289318838303 0.5 L 69.98289318838303 -0.5 L 40 -0.5 Z M 86.3827650145549 0.5 L 116.36565820293794 0.5 L 116.36565820293794 3.5 L 123.36565820293794 0 L 116.36565820293794 -3.5 L 116.36565820293794 -0.5 L 86.3827650145549 -0.5 Z"/><text text-anchor="middle" pointer-events="none" font-size="8px" fill="#000000" x="78.18282910146897" y="3" font-family="sans-serif">OF</text></g><g class="relationship" transform="translate(189.3506593440395 2.6430693478534693) rotate(180.79373867129488)"><path class="outline" fill="#A5ABB6" stroke="none" d="M 38.50762352901147,-10.835724717245364 L 38.766442574113995,-9.869798890956295 A 147.9527921051022 147.9527921051022 0 0 1 67.19957869764244,-14.582262097589279 L 67.13293673631763,-15.580039051116842 A 148.9527921051022 148.9527921051022 0 0 0 38.50762352901147,-10.835724717245364 Z M 83.71491009372272,-15.762404879134408 L 83.67022837240248,-14.763403605972115 A 147.9527921051022 147.9527921051022 0 0 1 112.20012847738802,-10.677410545220038 L 111.4875900041955,-7.763257336443862 L 119.1185757100645,-9.500512975900198 L 113.15017977497804,-14.562948156921605 L 112.43764130178552,-11.64879494814543 A 148.9527921051022 148.9527921051022 0 0 0 83.71491009372272,-15.762404879134408"/><text text-anchor="middle" pointer-events="none" font-size="8px" fill="#000000" x="75.42688217370697" y="-12.402190983560786" transform="rotate(180 75.42688217370697 -15.402190983560786)" font-family="sans-serif">TO</text></g><g class="relationship" transform="translate(-102.00363727324458 3.1219572361639507) rotate(358.85450474126355)"><path class="outline" fill="#A5ABB6" stroke="none" d="M 25 0.5 L 38.12328459634311 0.5 L 38.12328459634311 -0.5 L 25 -0.5 Z M 73.29888274087436 0.5 L 86.42216733721747 0.5 L 86.42216733721747 3.5 L 93.42216733721747 0 L 86.42216733721747 -3.5 L 86.42216733721747 -0.5 L 73.29888274087436 -0.5 Z"/><text text-anchor="middle" pointer-events="none" font-size="8px" fill="#000000" x="55.71108366860874" y="3" font-family="sans-serif">WAS_AT</text></g><g class="relationship" transform="translate(-234.57405200916605 5.039968535091724) rotate(359.1711100396709)"><path class="outline" fill="#A5ABB6" stroke="none" d="M 25 0.5 L 33.472488016607144 0.5 L 33.472488016607144 -0.5 L 25 -0.5 Z M 92.11180076074777 0.5 L 100.58428877735491 0.5 L 100.58428877735491 3.5 L 107.58428877735491 0 L 100.58428877735491 -3.5 L 100.58428877735491 -0.5 L 92.11180076074777 -0.5 Z"/><text text-anchor="middle" pointer-events="none" font-size="8px" fill="#000000" x="62.79214438867746" y="3" font-family="sans-serif">HAD_ROLE_IN</text></g><g class="relationship" transform="translate(-232.18313695112494 -126.26497687764481) rotate(451.0431762823504)"><path class="outline" fill="#A5ABB6" stroke="none" d="M 25 0.5 L 38.331629697201606 0.5 L 38.331629697201606 -0.5 L 25 -0.5 Z M 85.9950818456391 0.5 L 99.32671154284071 0.5 L 99.32671154284071 3.5 L 106.32671154284071 0 L 99.32671154284071 -3.5 L 99.32671154284071 -0.5 L 85.9950818456391 -0.5 Z"/><text text-anchor="middle" pointer-events="none" font-size="8px" fill="#000000" x="62.163355771420356" y="3" transform="rotate(180 62.163355771420356 0)" font-family="sans-serif">MENTIONS</text></g><g class="relationship" transform="translate(189.3506593440395 2.6430693478534693) rotate(268.77295246055667)"><path class="outline" fill="#A5ABB6" stroke="none" d="M 40 0.5 L 61.301048613728625 0.5 L 61.301048613728625 -0.5 L 40 -0.5 Z M 98.58065066450988 0.5 L 119.8816992782385 0.5 L 119.8816992782385 3.5 L 126.8816992782385 0 L 119.8816992782385 -3.5 L 119.8816992782385 -0.5 L 98.58065066450988 -0.5 Z"/><text text-anchor="middle" pointer-events="none" font-size="8px" fill="#000000" x="79.94084963911925" y="3" transform="rotate(180 79.94084963911925 0)" font-family="sans-serif">DURING</text></g><g class="relationship" transform="translate(189.3506593440395 2.6430693478534693) rotate(180.79373867129488)"><path class="outline" fill="#A5ABB6" stroke="none" d="M 38.50762352901147,10.835724717245364 L 38.766442574113995,9.869798890956295 A 147.9527921051022 147.9527921051022 0 0 0 61.195264962574086,14.058194240970892 L 61.08804036911616,15.052429065626399 A 148.9527921051022 148.9527921051022 0 0 1 38.50762352901147,10.835724717245364 Z M 89.76994808126217,15.367867990554629 L 89.68461564167093,14.371515455177018 A 147.9527921051022 147.9527921051022 0 0 0 112.20012847738802,10.677410545220038 L 111.4875900041955,7.763257336443862 L 119.1185757100645,9.500512975900198 L 113.15017977497804,14.562948156921605 L 112.43764130178552,11.64879494814543 A 148.9527921051022 148.9527921051022 0 0 1 89.76994808126217,15.367867990554629"/><text text-anchor="middle" pointer-events="none" font-size="8px" fill="#000000" x="75.42688217370701" y="18.402190983560786" transform="rotate(180 75.42688217370701 15.402190983560786)" font-family="sans-serif">FROM</text></g><g class="relationship" transform="translate(27.551928616369466 -162.86585238337608) rotate(359.51676471982637)"><path class="outline" fill="#A5ABB6" stroke="none" d="M 40 0.5 L 56.97554390324575 0.5 L 56.97554390324575 -0.5 L 40 -0.5 Z M 94.255145954027 0.5 L 111.23068985727275 0.5 L 111.23068985727275 3.5 L 118.23068985727275 0 L 111.23068985727275 -3.5 L 111.23068985727275 -0.5 L 94.255145954027 -0.5 Z"/><text text-anchor="middle" pointer-events="none" font-size="8px" fill="#000000" x="75.61534492863638" y="3" font-family="sans-serif">DURING</text></g><g class="relationship" transform="translate(27.551928616369466 -162.86585238337608) rotate(448.6531289527838)"><path class="outline" fill="#A5ABB6" stroke="none" d="M 34.39101615137755,20.433012701892217 L 34.89101615137755,19.566987298107776 A 89.85579223734852 89.85579223734852 0 0 0 63.81220818517504,30.16818852631367 L 63.63407048602042,31.152194095474698 A 90.85579223734852 90.85579223734852 0 0 1 34.39101615137755,20.433012701892217 Z M 92.29780641376132,31.744322745041288 L 92.1604580528433,30.753799939774723 A 89.85579223734852 89.85579223734852 0 0 0 121.494784137888,21.356027370012704 L 120.10335891653715,18.698220783108997 L 127.92823704422179,18.55233628467801 L 123.3500177663558,24.899769485884317 L 121.95859254500495,22.24196289898061 A 90.85579223734852 90.85579223734852 0 0 1 92.29780641376132,31.744322745041288"/><text text-anchor="middle" pointer-events="none" font-size="8px" fill="#000000" x="77.95276191319665" y="35.08610759124811" font-family="sans-serif">FROM</text></g></g><g class="layer nodes"><g class="node" transform="translate(-232.18313695112494,-126.26497687764481)"><circle class="outline" cx="0" cy="0" r="25" fill="#FFC454" stroke="#d7a013" stroke-width="2px"/><text text-anchor="middle" pointer-events="none" font-family="sans-serif" dy="1.5625" font-size="25" fill="#2A2C34"/><text text-anchor="middle" pointer-events="none" x="0" y="5" font-size="10px" fill="#2A2C34" font-family="sans-serif"> Citation</text></g><g class="node" transform="translate(-102.00363727324458,3.1219572361639507)"><circle class="outline" cx="0" cy="0" r="25" fill="#4C8EDA" stroke="#2870c2" stroke-width="2px"/><text text-anchor="middle" pointer-events="none" font-family="sans-serif" dy="1.5625" font-size="25" fill="#FFFFFF"/><text text-anchor="middle" pointer-events="none" x="0" y="5" font-size="10px" fill="#FFFFFF" font-family="sans-serif"> Event</text></g><g class="node" transform="translate(-396.85821891618195,-144.60963392061146)"><circle class="outline" cx="0" cy="0" r="40" fill="#8DCC93" stroke="#5db665" stroke-width="2px"/><text text-anchor="middle" pointer-events="none" font-family="sans-serif" dy="2.5" font-size="40" fill="#2A2C34"/><text text-anchor="middle" pointer-events="none" x="0" y="5" font-size="10px" fill="#2A2C34" font-family="sans-serif"> Investigation</text></g><g class="node" transform="translate(-234.57405200916605,5.039968535091724)"><circle class="outline" cx="0" cy="0" r="25" fill="#F16667" stroke="#eb2728" stroke-width="2px"/><text text-anchor="middle" pointer-events="none" font-family="sans-serif" dy="1.5625" font-size="25" fill="#FFFFFF"/><text text-anchor="middle" pointer-events="none" x="0" y="5" font-size="10px" fill="#FFFFFF" font-family="sans-serif"> Persona</text></g><g class="node" transform="translate(31.39186609123154,0.45467039397817643)"><circle class="outline" cx="0" cy="0" r="40" fill="#D9C8AE" stroke="#c0a378" stroke-width="2px"/><text text-anchor="middle" pointer-events="none" font-family="sans-serif" dy="2.5" font-size="40" fill="#2A2C34"/><text text-anchor="middle" pointer-events="none" x="0" y="5" font-size="10px" fill="#2A2C34" font-family="sans-serif"> Place</text></g><g class="node" transform="translate(185.77699078379817,-164.20036158969938)"><circle class="outline" cx="0" cy="0" r="40" fill="#DA7194" stroke="#cc3c6c" stroke-width="2px"/><text text-anchor="middle" pointer-events="none" font-family="sans-serif" dy="2.5" font-size="40" fill="#FFFFFF"/><text text-anchor="middle" pointer-events="none" x="0" y="5" font-size="10px" fill="#FFFFFF" font-family="sans-serif"> PlaceChange</text></g><g class="node" transform="translate(-397.1909933855418,7.513678892403476)"><circle class="outline" cx="0" cy="0" r="32.5" fill="#ECB5C9" stroke="#da7298" stroke-width="2px"/><text text-anchor="middle" pointer-events="none" font-family="sans-serif" dy="2.03125" font-size="32.5" fill="#2A2C34"/><text text-anchor="middle" pointer-events="none" x="0" y="5" font-size="10px" fill="#2A2C34" font-family="sans-serif"> Sameness</text></g><g class="node" transform="translate(27.551928616369466,-162.86585238337608)"><circle class="outline" cx="0" cy="0" r="40" fill="#A5ABB6" stroke="#9AA1AC" stroke-width="2px"/><text text-anchor="middle" pointer-events="none" font-family="sans-serif" dy="2.5" font-size="40" fill="#FFFFFF"/><text text-anchor="middle" pointer-events="none" x="0" y="5" font-size="10px" fill="#FFFFFF" font-family="sans-serif"> Transfer</text></g><g class="node" transform="translate(189.3506593440395,2.6430693478534693)"><circle class="outline" cx="0" cy="0" r="40" fill="#569480" stroke="#447666" stroke-width="2px"/><text text-anchor="middle" pointer-events="none" font-family="sans-serif" dy="2.5" font-size="40" fill="#FFFFFF"/><text text-anchor="middle" pointer-events="none" x="0" y="5" font-size="10px" fill="#FFFFFF" font-family="sans-serif"> Transform</text></g></g></svg>