<?xml version="1.0" encoding="UTF-8"?><svg xmlns="http://www.w3.org/2000/svg" xmlns:xlink="http://www.w3.org/1999/xlink" fill-opacity="1" color-rendering="auto" color-interpolation="auto" text-rendering="auto" stroke="black" stroke-linecap="square" width="770" stroke-miterlimit="10" shape-rendering="auto" stroke-opacity="1" fill="black" stroke-dasharray="none" font-weight="normal" stroke-width="1" height="490" font-family="'Dialog'" font-style="normal" stroke-linejoin="miter" font-size="12px" stroke-dashoffset="0" image-rendering="auto">
  <!--Generated by ySVG 2.5-->
  <defs id="genericDefs"/>
  <g>
    <defs id="defs1">
      <clipPath clipPathUnits="userSpaceOnUse" id="clipPath1">
        <path d="M0 0 L770 0 L770 490 L0 490 L0 0 Z"/>
      </clipPath>
      <clipPath clipPathUnits="userSpaceOnUse" id="clipPath2">
        <path d="M635 115 L1405 115 L1405 605 L635 605 L635 115 Z"/>
      </clipPath>
    </defs>
    <g fill="white" text-rendering="geometricPrecision" shape-rendering="geometricPrecision" transform="translate(-635,-115)" stroke="white">
      <rect x="635" width="770" height="490" y="115" clip-path="url(#clipPath2)" stroke="none"/>
    </g>
    <g fill="rgb(204,255,255)" text-rendering="geometricPrecision" shape-rendering="geometricPrecision" transform="matrix(1,0,0,1,-635,-115)" stroke="rgb(204,255,255)">
      <rect x="650" width="200" height="100" y="130" clip-path="url(#clipPath2)" stroke="none"/>
    </g>
    <g text-rendering="geometricPrecision" stroke-miterlimit="1.45" shape-rendering="geometricPrecision" transform="matrix(1,0,0,1,-635,-115)" stroke-linecap="butt">
      <rect fill="none" x="650" width="200" height="100" y="130" clip-path="url(#clipPath2)"/>
      <text x="728.1855" xml:space="preserve" y="184.1543" clip-path="url(#clipPath2)" font-family="sans-serif" stroke="none">images</text>
    </g>
    <g fill="rgb(153,204,255)" text-rendering="geometricPrecision" shape-rendering="geometricPrecision" transform="matrix(1,0,0,1,-635,-115)" stroke="rgb(153,204,255)">
      <rect x="650" width="200" height="100" y="310" clip-path="url(#clipPath2)" stroke="none"/>
    </g>
    <g text-rendering="geometricPrecision" stroke-miterlimit="1.45" shape-rendering="geometricPrecision" transform="matrix(1,0,0,1,-635,-115)" stroke-linecap="butt">
      <rect fill="none" x="650" width="200" height="100" y="310" clip-path="url(#clipPath2)"/>
      <text x="726.8174" xml:space="preserve" y="364.1543" clip-path="url(#clipPath2)" font-family="sans-serif" stroke="none">sources</text>
    </g>
    <g fill="rgb(204,255,204)" text-rendering="geometricPrecision" shape-rendering="geometricPrecision" transform="matrix(1,0,0,1,-635,-115)" stroke="rgb(204,255,204)">
      <rect x="1190" width="200" height="100" y="130" clip-path="url(#clipPath2)" stroke="none"/>
    </g>
    <g text-rendering="geometricPrecision" stroke-miterlimit="1.45" shape-rendering="geometricPrecision" transform="matrix(1,0,0,1,-635,-115)" stroke-linecap="butt">
      <rect fill="none" x="1190" width="200" height="100" y="130" clip-path="url(#clipPath2)"/>
      <text x="1279.7725" xml:space="preserve" y="184.1543" clip-path="url(#clipPath2)" font-family="sans-serif" stroke="none">GIS</text>
    </g>
    <g fill="olive" text-rendering="geometricPrecision" shape-rendering="geometricPrecision" transform="matrix(1,0,0,1,-635,-115)" stroke="olive">
      <rect x="1190" width="200" height="100" y="310" clip-path="url(#clipPath2)" stroke="none"/>
    </g>
    <g text-rendering="geometricPrecision" stroke-miterlimit="1.45" shape-rendering="geometricPrecision" transform="matrix(1,0,0,1,-635,-115)" stroke-linecap="butt">
      <rect fill="none" x="1190" width="200" height="100" y="310" clip-path="url(#clipPath2)"/>
      <text x="1270.7314" xml:space="preserve" y="364.1543" clip-path="url(#clipPath2)" font-family="sans-serif" stroke="none">places</text>
    </g>
    <g fill="rgb(255,153,0)" text-rendering="geometricPrecision" shape-rendering="geometricPrecision" transform="matrix(1,0,0,1,-635,-115)" stroke="rgb(255,153,0)">
      <rect x="920" width="200" height="100" y="310" clip-path="url(#clipPath2)" stroke="none"/>
    </g>
    <g text-rendering="geometricPrecision" stroke-miterlimit="1.45" shape-rendering="geometricPrecision" transform="matrix(1,0,0,1,-635,-115)" stroke-linecap="butt">
      <rect fill="none" x="920" width="200" height="100" y="310" clip-path="url(#clipPath2)"/>
      <text x="986.3438" xml:space="preserve" y="364.1543" clip-path="url(#clipPath2)" font-family="sans-serif" stroke="none">extractions</text>
    </g>
    <g fill="rgb(255,153,204)" text-rendering="geometricPrecision" shape-rendering="geometricPrecision" transform="matrix(1,0,0,1,-635,-115)" stroke="rgb(255,153,204)">
      <rect x="920" width="200" height="100" y="490" clip-path="url(#clipPath2)" stroke="none"/>
    </g>
    <g text-rendering="geometricPrecision" stroke-miterlimit="1.45" shape-rendering="geometricPrecision" transform="matrix(1,0,0,1,-635,-115)" stroke-linecap="butt">
      <rect fill="none" x="920" width="200" height="100" y="490" clip-path="url(#clipPath2)"/>
      <text x="985.0664" xml:space="preserve" y="544.1543" clip-path="url(#clipPath2)" font-family="sans-serif" stroke="none">conclusions</text>
      <path fill="none" d="M750 310 L750 238" clip-path="url(#clipPath2)"/>
      <path d="M750 230 L745 242 L750 239 L755 242 Z" clip-path="url(#clipPath2)" stroke="none"/>
      <path fill="none" d="M1290 310 L1290 238" clip-path="url(#clipPath2)"/>
      <path d="M1290 230 L1285 242 L1290 239 L1295 242 Z" clip-path="url(#clipPath2)" stroke="none"/>
      <path fill="none" d="M1120 360 L1182 360" clip-path="url(#clipPath2)"/>
      <path d="M1190 360 L1178 355 L1181 360 L1178 365 Z" clip-path="url(#clipPath2)" stroke="none"/>
      <path fill="none" d="M920 360 L858 360" clip-path="url(#clipPath2)"/>
      <path d="M850 360 L862 365 L859 360 L862 355 Z" clip-path="url(#clipPath2)" stroke="none"/>
      <path fill="none" d="M1020 490 L1020 418" clip-path="url(#clipPath2)"/>
      <path d="M1020 410 L1015 422 L1020 419 L1025 422 Z" clip-path="url(#clipPath2)" stroke="none"/>
    </g>
  </g>
</svg>
